<svg xmlns="http://www.w3.org/2000/svg" xmlns:xlink="http://www.w3.org/1999/xlink" width="394.034" height="505.787" viewBox="0 0 394.034 505.787"><defs><filter id="a" x="0" y="213.835" width="291.953" height="291.952" filterUnits="userSpaceOnUse"><feOffset dx="10" dy="10" input="SourceAlpha"/><feGaussianBlur stdDeviation="10" result="b"/><feFlood flood-opacity="0.161"/><feComposite operator="in" in2="b"/><feComposite in="SourceGraphic"/></filter><linearGradient id="c" x1="3.524" y1="-4.476" x2="-0.753" y2="2.927" gradientUnits="objectBoundingBox"><stop offset="0" stop-color="#d0f"/><stop offset="1" stop-color="#50e3c1"/></linearGradient><filter id="d" x="94.805" y="327.744" width="100.624" height="81.875" filterUnits="userSpaceOnUse"><feOffset dx="10" dy="10" input="SourceAlpha"/><feGaussianBlur stdDeviation="10" result="e"/><feFlood flood-opacity="0.161"/><feComposite operator="in" in2="e"/><feComposite in="SourceGraphic"/></filter><filter id="g" x="94.805" y="312.119" width="100.624" height="73.281" filterUnits="userSpaceOnUse"><feOffset dx="10" dy="10" input="SourceAlpha"/><feGaussianBlur stdDeviation="10" result="h"/><feFlood flood-opacity="0.161"/><feComposite operator="in" in2="h"/><feComposite in="SourceGraphic"/></filter><filter id="i" x="57.291" y="0" width="281.582" height="281.581" filterUnits="userSpaceOnUse"><feOffset dx="10" dy="10" input="SourceAlpha"/><feGaussianBlur stdDeviation="10" result="j"/><feFlood flood-opacity="0.161"/><feComposite operator="in" in2="j"/><feComposite in="SourceGraphic"/></filter><linearGradient id="k" x1="0.639" y1="-0.78" x2="1.919" y2="2.315" xlink:href="#c"/><filter id="l" x="158.815" y="94.493" width="88.071" height="97.428" filterUnits="userSpaceOnUse"><feOffset dx="10" dy="10" input="SourceAlpha"/><feGaussianBlur stdDeviation="10" result="m"/><feFlood flood-opacity="0.161"/><feComposite operator="in" in2="m"/><feComposite in="SourceGraphic"/></filter><filter id="n" x="153.783" y="155.397" width="240.251" height="240.25" filterUnits="userSpaceOnUse"><feOffset dx="10" dy="10" input="SourceAlpha"/><feGaussianBlur stdDeviation="10" result="o"/><feFlood flood-opacity="0.161"/><feComposite operator="in" in2="o"/><feComposite in="SourceGraphic"/></filter><linearGradient id="p" x1="-1.68" y1="-1.654" x2="1.819" y2="1.68" xlink:href="#c"/><filter id="q" x="236.587" y="217.443" width="73.018" height="85.524" filterUnits="userSpaceOnUse"><feOffset dx="10" dy="10" input="SourceAlpha"/><feGaussianBlur stdDeviation="10" result="r"/><feFlood flood-opacity="0.161"/><feComposite operator="in" in2="r"/><feComposite in="SourceGraphic"/></filter><filter id="t" x="222.56" y="229.669" width="103.059" height="103.997" filterUnits="userSpaceOnUse"><feOffset dx="10" dy="10" input="SourceAlpha"/><feGaussianBlur stdDeviation="10" result="u"/><feFlood flood-opacity="0.161"/><feComposite operator="in" in2="u"/><feComposite in="SourceGraphic"/></filter></defs><g transform="translate(-1439.887 -1392.373)"><g transform="translate(1459.887 1626.208)"><g transform="matrix(1, 0, 0, 1, -20, -233.83)" filter="url(#a)"><path d="M64.966,171.51a16.21,16.21,0,0,1-15.5-20.954l.2-.658a13.452,13.452,0,0,0-19.165-15.682l-1.216.646A16.2,16.2,0,0,1,14.077,106.25l.643-.342A13.294,13.294,0,0,0,21.414,92.44a13.3,13.3,0,0,0-9.283-11.763l-.656-.2a16.212,16.212,0,0,1,3.185-31.642c.518-.05,1.042-.075,1.559-.075a16.171,16.171,0,0,1,4.735.711l.658.2a13.3,13.3,0,0,0,10.045-1.024,13.262,13.262,0,0,0,4.227-3.538l.573-.3a13.36,13.36,0,0,0,1.41-14.6l-.646-1.216A16.216,16.216,0,0,1,51.505,5.169a16.261,16.261,0,0,1,4.757.716,16.1,16.1,0,0,1,9.569,7.888l.342.643a13.344,13.344,0,0,0,11.772,7.045c.373,0,.751-.016,1.123-.047a13.367,13.367,0,0,0,11.764-9.283l.2-.657A16.2,16.2,0,0,1,104.982.075C105.5.025,106.024,0,106.54,0a16.206,16.206,0,0,1,15.5,20.954l-.2.658A13.3,13.3,0,0,0,126.4,35.884l.3.573a13.359,13.359,0,0,0,14.6,1.41l1.217-.647a16.2,16.2,0,0,1,15.213,28.611l-.643.342a13.476,13.476,0,0,0,2.284,24.66l.657.2a16.212,16.212,0,0,1-3.185,31.643c-.518.05-1.042.075-1.559.075a16.155,16.155,0,0,1-4.736-.712l-.658-.2A13.475,13.475,0,0,0,134.215,141l.646,1.216a16.2,16.2,0,1,1-28.611,15.213l-.342-.643a13.353,13.353,0,0,0-11.617-6.82,13.676,13.676,0,0,0-1.851.127,13.364,13.364,0,0,0-11.763,9.282l-.2.657a16.2,16.2,0,0,1-13.949,11.4C66.009,171.485,65.483,171.51,64.966,171.51Zm20.847-125.9a40.354,40.354,0,1,0,40.354,40.354A40.4,40.4,0,0,0,85.813,45.608Z" transform="matrix(0.47, 0.88, -0.88, 0.47, 171.43, 233.83)" fill="#fff"/></g><g transform="translate(94.805 98.285)"><g transform="matrix(1, 0, 0, 1, -114.81, -332.12)" filter="url(#d)"><path d="M6.5,37.625H40.874A3.122,3.122,0,0,0,44,34.5V15.75H3.375V34.5A3.122,3.122,0,0,0,6.5,37.625Z" transform="translate(111.43 331.99)" opacity="0.81" fill="url(#c)"/></g><g transform="matrix(1, 0, 0, 1, -114.81, -332.12)" filter="url(#g)"><path d="M40.874,10.75h-.781V9.969a.784.784,0,0,0-.781-.781H36.187a.784.784,0,0,0-.781.781v.781H32.671V7.625A3.134,3.134,0,0,0,29.546,4.5H17.828A3.134,3.134,0,0,0,14.7,7.625V10.75H11.969V9.969a.784.784,0,0,0-.781-.781H8.062a.784.784,0,0,0-.781.781v.781H6.5a3.122,3.122,0,0,0-3.125,3.125v3.906H44V13.875A3.122,3.122,0,0,0,40.874,10.75Zm-10.937,0h-12.5V8.016a.784.784,0,0,1,.781-.781H29.156a.784.784,0,0,1,.781.781Z" transform="translate(111.43 327.62)" opacity="0.81" fill="url(#c)"/></g></g></g><g transform="translate(1517.178 1412.373)"><g transform="matrix(1, 0, 0, 1, -77.29, -20)" filter="url(#i)"><path d="M64.966,171.51a16.21,16.21,0,0,1-15.5-20.954l.2-.658a13.452,13.452,0,0,0-19.165-15.682l-1.216.646A16.2,16.2,0,0,1,14.077,106.25l.643-.342A13.294,13.294,0,0,0,21.414,92.44a13.3,13.3,0,0,0-9.283-11.763l-.656-.2a16.212,16.212,0,0,1,3.185-31.642c.518-.05,1.042-.075,1.559-.075a16.171,16.171,0,0,1,4.735.711l.658.2a13.3,13.3,0,0,0,10.045-1.024,13.262,13.262,0,0,0,4.227-3.538l.573-.3a13.36,13.36,0,0,0,1.41-14.6l-.646-1.216A16.216,16.216,0,0,1,51.505,5.169a16.261,16.261,0,0,1,4.757.716,16.1,16.1,0,0,1,9.569,7.888l.342.643a13.344,13.344,0,0,0,11.772,7.045c.373,0,.751-.016,1.123-.047a13.367,13.367,0,0,0,11.764-9.283l.2-.657A16.2,16.2,0,0,1,104.982.075C105.5.025,106.024,0,106.54,0a16.206,16.206,0,0,1,15.5,20.954l-.2.658A13.3,13.3,0,0,0,126.4,35.884l.3.573a13.359,13.359,0,0,0,14.6,1.41l1.217-.647a16.2,16.2,0,0,1,15.213,28.611l-.643.342a13.476,13.476,0,0,0,2.284,24.66l.657.2a16.212,16.212,0,0,1-3.185,31.643c-.518.05-1.042.075-1.559.075a16.155,16.155,0,0,1-4.736-.712l-.658-.2A13.475,13.475,0,0,0,134.215,141l.646,1.216a16.2,16.2,0,1,1-28.611,15.213l-.342-.643a13.353,13.353,0,0,0-11.617-6.82,13.676,13.676,0,0,0-1.851.127,13.364,13.364,0,0,0-11.763,9.282l-.2.657a16.2,16.2,0,0,1-13.949,11.4C66.009,171.485,65.483,171.51,64.966,171.51Zm20.847-125.9a40.354,40.354,0,1,0,40.354,40.354A40.4,40.4,0,0,0,85.813,45.608Z" transform="translate(237.41 20) rotate(69)" fill="#fff"/></g><g transform="matrix(1, 0, 0, 1, -77.29, -20)" filter="url(#l)"><path d="M28.071,10.527a5.848,5.848,0,1,0-7.493,5.614,4.5,4.5,0,0,1-.8,2.7c-1.126,1.4-3.6,1.637-6.228,1.879A17.646,17.646,0,0,0,7.6,21.952V11.426a5.848,5.848,0,1,0-3.509,0V26a5.861,5.861,0,1,0,3.86.132,2.573,2.573,0,0,1,1.089-.98,14.708,14.708,0,0,1,4.832-.936c3.085-.285,6.579-.614,8.641-3.173a7.871,7.871,0,0,0,1.579-4.964A5.872,5.872,0,0,0,28.071,10.527ZM5.848,4.679a1.17,1.17,0,1,1-1.17,1.17A1.173,1.173,0,0,1,5.848,4.679Zm0,28.071a1.17,1.17,0,1,1,1.17-1.17A1.173,1.173,0,0,1,5.848,32.75ZM22.223,9.357a1.17,1.17,0,1,1-1.17,1.17A1.173,1.173,0,0,1,22.223,9.357Z" transform="translate(178.82 114.49)" fill="url(#k)"/></g></g><g transform="translate(1613.67 1567.77)"><g transform="matrix(1, 0, 0, 1, -173.78, -175.4)" filter="url(#n)"><path d="M64.966,171.51a16.21,16.21,0,0,1-15.5-20.954l.2-.658a13.452,13.452,0,0,0-19.165-15.682l-1.216.646A16.2,16.2,0,0,1,14.077,106.25l.643-.342A13.294,13.294,0,0,0,21.414,92.44a13.3,13.3,0,0,0-9.283-11.763l-.656-.2a16.212,16.212,0,0,1,3.185-31.642c.518-.05,1.042-.075,1.559-.075a16.171,16.171,0,0,1,4.735.711l.658.2a13.3,13.3,0,0,0,10.045-1.024,13.262,13.262,0,0,0,4.227-3.538l.573-.3a13.36,13.36,0,0,0,1.41-14.6l-.646-1.216A16.216,16.216,0,0,1,51.505,5.169a16.261,16.261,0,0,1,4.757.716,16.1,16.1,0,0,1,9.569,7.888l.342.643a13.344,13.344,0,0,0,11.772,7.045c.373,0,.751-.016,1.123-.047a13.367,13.367,0,0,0,11.764-9.283l.2-.657A16.2,16.2,0,0,1,104.982.075C105.5.025,106.024,0,106.54,0a16.206,16.206,0,0,1,15.5,20.954l-.2.658A13.3,13.3,0,0,0,126.4,35.884l.3.573a13.359,13.359,0,0,0,14.6,1.41l1.217-.647a16.2,16.2,0,0,1,15.213,28.611l-.643.342a13.476,13.476,0,0,0,2.284,24.66l.657.2a16.212,16.212,0,0,1-3.185,31.643c-.518.05-1.042.075-1.559.075a16.155,16.155,0,0,1-4.736-.712l-.658-.2A13.475,13.475,0,0,0,134.215,141l.646,1.216a16.2,16.2,0,1,1-28.611,15.213l-.342-.643a13.353,13.353,0,0,0-11.617-6.82,13.676,13.676,0,0,0-1.851.127,13.364,13.364,0,0,0-11.763,9.282l-.2.657a16.2,16.2,0,0,1-13.949,11.4C66.009,171.485,65.483,171.51,64.966,171.51Zm20.847-125.9a40.354,40.354,0,1,0,40.354,40.354A40.4,40.4,0,0,0,85.813,45.608Z" transform="matrix(0.05, 1, -1, 0.05, 345.06, 175.4)" fill="#fff"/></g><g transform="translate(68.777 62.046)"><g transform="translate(14.027 0)"><g transform="matrix(1, 0, 0, 1, -256.59, -237.44)" filter="url(#q)"><path d="M116.975,25.074a.685.685,0,0,0,.643.449h2.928a.685.685,0,0,0,.643-.449l4.264-11.647a2.16,2.16,0,0,0-.3-2.068,18.9,18.9,0,0,1-2.976-5.61,1.418,1.418,0,0,0,1.251-1.406V1.416A1.418,1.418,0,0,0,122.01,0h-5.856a1.418,1.418,0,0,0-1.417,1.417V4.344a1.418,1.418,0,0,0,1.253,1.407c-.052.165-.115.351-.189.556a.685.685,0,1,0,1.288.466c.148-.409.255-.753.329-1.012h3.328a19.776,19.776,0,0,0,3.319,6.432.809.809,0,0,1,.1.764l-4.1,11.2h-.3V15.9a2.149,2.149,0,1,0-1.37,0v8.258h-.3l-4.1-11.2a.808.808,0,0,1,.1-.764,21.035,21.035,0,0,0,1.689-2.577.685.685,0,0,0-1.2-.665,19.7,19.7,0,0,1-1.579,2.409,2.16,2.16,0,0,0-.3,2.068Zm-.868-23.658a.047.047,0,0,1,.047-.047h5.856a.047.047,0,0,1,.047.047V4.344a.047.047,0,0,1-.047.047h-5.856a.047.047,0,0,1-.047-.047Zm2.975,11.664a.779.779,0,1,1-.779.779A.78.78,0,0,1,119.082,13.081Zm0,0" transform="translate(144.01 237.44)" opacity="0.81" fill="url(#p)"/></g></g><g transform="matrix(1, 0, 0, 1, -242.56, -237.44)" filter="url(#t)"><path d="M42.182,174.765H41.1a19.661,19.661,0,0,0-11.445-16.079h8.039a2.756,2.756,0,1,0,0-1.757H24.286v-1a.878.878,0,0,0-.878-.878H19.653a.878.878,0,0,0-.878.878v.787A17.929,17.929,0,0,1,3.847,141.79h.787a.878.878,0,0,0,.878-.878v-3.755a.878.878,0,0,0-.878-.878H.879a.878.878,0,0,0-.878.878v3.755a.878.878,0,0,0,.878.878H2.071a19.7,19.7,0,0,0,11.335,15.14H5.368a2.756,2.756,0,1,0,0,1.757H18.775v1a.878.878,0,0,0,.878.878h3.755a.878.878,0,0,0,.878-.878V158.9a17.9,17.9,0,0,1,15.048,15.867h-.907a.878.878,0,0,0-.878.878V179.4a.878.878,0,0,0,.878.878h3.755a.878.878,0,0,0,.878-.878v-3.755a.878.878,0,0,0-.878-.878ZM1.757,138.035h2v2h-2ZM40.3,156.809a1,1,0,1,1-1,1A1,1,0,0,1,40.3,156.809Zm-37.548,2a1,1,0,1,1,1-1A1,1,0,0,1,2.756,158.807Zm17.775,0v-2h2v2ZM41.3,178.52h-2v-2h2Zm0,0" transform="translate(242.56 113.39)" fill="url(#p)"/></g></g></g></g></svg>