<svg xmlns="http://www.w3.org/2000/svg" xmlns:xlink="http://www.w3.org/1999/xlink" width="1054" height="1314" viewBox="0 0 1054 1314">
  <defs>
    <clipPath id="clip-path">
      <rect id="Rectangle_26" data-name="Rectangle 26" width="1054" height="1314" transform="translate(866 1441)" fill="#fff"/>
    </clipPath>
    <linearGradient id="linear-gradient" x1="0.639" y1="-0.78" x2="0.391" y2="1.336" gradientUnits="objectBoundingBox">
      <stop offset="0" stop-color="#d0f"/>
      <stop offset="1" stop-color="#50e3c1"/>
    </linearGradient>
    <filter id="Background_Color" x="-17.754" y="-2.941" width="1336.47" height="1335.748" filterUnits="userSpaceOnUse">
      <feOffset dx="10" dy="10" input="SourceAlpha"/>
      <feGaussianBlur stdDeviation="10" result="blur"/>
      <feFlood flood-opacity="0.161"/>
      <feComposite operator="in" in2="blur"/>
      <feComposite in="SourceGraphic"/>
    </filter>
  </defs>
  <g id="Mask_Group_1" data-name="Mask Group 1" transform="translate(-866 -1441)" clip-path="url(#clip-path)">
    <g id="Design">
      <g transform="matrix(1, 0, 0, 1, 866, 1441)" filter="url(#Background_Color)">
        <path id="Background_Color-2" data-name="Background Color" d="M980.076,1697.172a40.726,40.726,0,0,1-24.9-18.762c-.661-1.128-1.277-2.294-1.825-3.47a40.584,40.584,0,0,1-3.408-11.539l-.24-1.712a33.855,33.855,0,0,0-60.291-15.358l-2.083,2.762a40.742,40.742,0,0,1-69.4-7.242,40.863,40.863,0,0,1-3.421-11.589,40.44,40.44,0,0,1,7.8-30.163l1.1-1.464a33.549,33.549,0,0,0,3.2-33.691,34.538,34.538,0,0,0-2.255-4.08,33.579,33.579,0,0,0-33.625-16.93l-1.711.241a40.708,40.708,0,0,1-40.766-19.657c-.665-1.128-1.279-2.3-1.829-3.475a40.726,40.726,0,0,1,31.258-57.533l1.712-.24a33.8,33.8,0,0,0,15.359-60.289l-2.761-2.083a40.706,40.706,0,1,1,48.993-65.019l1.464,1.1a35.239,35.239,0,0,0,54.7-32.684l-.239-1.708a40.731,40.731,0,0,1,75.43-26.346c.661,1.126,1.275,2.293,1.823,3.469a40.626,40.626,0,0,1,3.409,11.536l.24,1.713a33.414,33.414,0,0,0,13,21.785,33.325,33.325,0,0,0,12.544,5.87l1.3.982a33.567,33.567,0,0,0,34.751-12.295l2.081-2.763a40.742,40.742,0,0,1,69.4,7.239,40.823,40.823,0,0,1-4.381,41.755l-1.1,1.463a33.525,33.525,0,0,0-3.543,34.284c.4.85.834,1.694,1.3,2.508a33.581,33.581,0,0,0,33.628,16.93l1.71-.241a40.708,40.708,0,0,1,40.767,19.657c.662,1.127,1.276,2.294,1.824,3.469a40.714,40.714,0,0,1-31.253,57.537l-1.713.24a33.423,33.423,0,0,0-27.654,25.542l-.982,1.3a33.564,33.564,0,0,0,12.295,34.749l2.767,2.083a40.706,40.706,0,0,1-49,65.018l-1.461-1.1a33.858,33.858,0,0,0-53.725,31.384l.242,1.71a40.739,40.739,0,0,1-50.533,45.108ZM920.5,1385.794a101.4,101.4,0,1,0,42.691-9.494h-.006A100.752,100.752,0,0,0,920.5,1385.794Zm14.449,122.49a4.963,4.963,0,0,1-4.968-4.969V1473.5h64.591v29.812a4.964,4.964,0,0,1-4.969,4.969Zm-4.968-38.506v-6.211a4.963,4.963,0,0,1,4.968-4.969h1.242v-1.242a1.246,1.246,0,0,1,1.243-1.242H942.4a1.246,1.246,0,0,1,1.243,1.242v1.242h4.346v-4.968a4.984,4.984,0,0,1,4.969-4.969h18.632a4.983,4.983,0,0,1,4.969,4.969v4.968h4.348v-1.242a1.246,1.246,0,0,1,1.243-1.242h4.968a1.246,1.246,0,0,1,1.243,1.242v1.242h1.241a4.964,4.964,0,0,1,4.969,4.969v6.211Zm22.358-15.527v4.347h19.874v-4.347a1.245,1.245,0,0,0-1.242-1.242H953.584A1.246,1.246,0,0,0,952.341,1454.251Zm-358.336-75.433a40.726,40.726,0,0,1-24.9-18.762c-.662-1.127-1.277-2.294-1.825-3.469a40.552,40.552,0,0,1-3.406-11.539l-.241-1.713a33.419,33.419,0,0,0-13-21.782,34.007,34.007,0,0,0-47.3,6.424l-2.082,2.762a40.705,40.705,0,1,1-65.017-49l1.1-1.463a33.55,33.55,0,0,0,3.194-33.692,34.288,34.288,0,0,0-2.254-4.08,33.577,33.577,0,0,0-33.625-16.929l-1.71.241a40.71,40.71,0,0,1-40.768-19.658c-.662-1.128-1.278-2.3-1.828-3.475a40.724,40.724,0,0,1,31.258-57.532l1.712-.24a33.8,33.8,0,0,0,15.359-60.29l-2.763-2.082a40.707,40.707,0,0,1,49-65.02l1.462,1.1a35.239,35.239,0,0,0,54.7-32.684l-.238-1.708a40.731,40.731,0,0,1,75.43-26.347c.661,1.127,1.277,2.293,1.825,3.469a40.619,40.619,0,0,1,3.407,11.537l.24,1.712a33.43,33.43,0,0,0,13,21.785,33.318,33.318,0,0,0,12.544,5.869l1.3.983a33.562,33.562,0,0,0,34.749-12.3l2.083-2.763a40.7,40.7,0,1,1,65.016,48.994l-1.1,1.463a33.529,33.529,0,0,0-3.542,34.285c.4.85.833,1.693,1.3,2.507a33.582,33.582,0,0,0,33.627,16.93l1.709-.242a40.709,40.709,0,0,1,40.768,19.658c.662,1.126,1.277,2.294,1.825,3.47a40.718,40.718,0,0,1-31.256,57.537l-1.712.241a33.421,33.421,0,0,0-27.654,25.541l-.982,1.3a33.561,33.561,0,0,0,12.3,34.748l2.765,2.083a40.706,40.706,0,0,1-49,65.018l-1.462-1.1A33.855,33.855,0,0,0,644.3,1332l.241,1.71a40.737,40.737,0,0,1-50.535,45.108Zm-59.573-311.378a101.4,101.4,0,1,0,42.691-9.494A101.5,101.5,0,0,0,534.433,1067.439ZM1003.14,1288.52a83.42,83.42,0,0,1-49.884-106.979l1.21-3.325a69.378,69.378,0,0,0-94.312-85.8l-6.426,3a83.417,83.417,0,1,1-70.508-151.2l3.4-1.588A71.713,71.713,0,0,0,780.107,812.2l-3.326-1.21a83.466,83.466,0,1,1,57.1-156.864l3.324,1.211A69.38,69.38,0,0,0,923,561.024l-3-6.428a83.418,83.418,0,1,1,151.2-70.508l1.588,3.4a72.219,72.219,0,0,0,130.424-6.514l1.21-3.326a83.465,83.465,0,1,1,156.863,57.093l-1.211,3.326a68.807,68.807,0,0,0,19.607,74.615l1.409,3.023a68.78,68.78,0,0,0,74.706,11.185l6.428-3A83.419,83.419,0,1,1,1532.74,775.1l-3.4,1.588a69.3,69.3,0,0,0,5.1,127.4l3.326,1.21a83.465,83.465,0,1,1-57.1,156.863l-3.325-1.21a68.491,68.491,0,0,0-74.616,19.606l-3.022,1.409a68.776,68.776,0,0,0-11.185,74.706l3,6.428a83.419,83.419,0,1,1-151.206,70.509l-1.588-3.4a69.378,69.378,0,0,0-127.4,5.1l-1.21,3.325a83.415,83.415,0,0,1-74.789,54.852q-1.836.08-3.668.079A82.966,82.966,0,0,1,1003.14,1288.52Zm43.042-667.243c-131.034,61.1-187.926,217.415-126.825,348.448s217.415,187.926,348.448,126.825S1455.732,879.134,1394.631,748.1C1350.2,652.81,1255.4,596.729,1156.594,596.724h-.013A260.576,260.576,0,0,0,1046.182,621.277ZM605.745,1216.83a1.709,1.709,0,0,1-1.709-1.708v-7.3a1.709,1.709,0,0,1,1.709-1.709h1.764a34.816,34.816,0,0,0-29.278-30.87v1.53a1.708,1.708,0,0,1-1.709,1.709h-7.3a1.709,1.709,0,0,1-1.709-1.709v-1.944H541.425a5.361,5.361,0,1,1,0-3.417h15.64a38.333,38.333,0,0,1-22.055-29.456H532.69a1.708,1.708,0,0,1-1.707-1.709v-7.3a1.708,1.708,0,0,1,1.707-1.709H540a1.71,1.71,0,0,1,1.709,1.709v7.3a1.71,1.71,0,0,1-1.709,1.709h-1.531a34.88,34.88,0,0,0,29.043,29.044v-1.532a1.709,1.709,0,0,1,1.709-1.708h7.3a1.708,1.708,0,0,1,1.709,1.708v1.944h26.086a5.362,5.362,0,1,1,0,3.417H588.677a38.251,38.251,0,0,1,22.268,31.283h2.106a1.709,1.709,0,0,1,1.709,1.709v7.3a1.709,1.709,0,0,1-1.709,1.708Zm1.707-3.417h3.889v-3.887h-3.889Zm0-40.3a1.944,1.944,0,1,0,1.946-1.944A1.947,1.947,0,0,0,607.452,1173.116Zm-36.525,1.943h3.887v-3.887h-3.887Zm-36.526-1.943a1.943,1.943,0,1,0,1.943-1.944A1.945,1.945,0,0,0,534.4,1173.116Zm0-34.583h3.885v-3.889H534.4Zm35.908,20.787a1.332,1.332,0,0,1-1.252-.874l-8.3-22.661a4.2,4.2,0,0,1,.587-4.023,38.369,38.369,0,0,0,3.071-4.687,1.332,1.332,0,1,1,2.33,1.293,40.684,40.684,0,0,1-3.288,5.014,1.576,1.576,0,0,0-.2,1.487l7.977,21.786h.585v-16.068a4.181,4.181,0,1,1,2.665,0v16.068h.584l7.977-21.786a1.576,1.576,0,0,0-.2-1.487,38.475,38.475,0,0,1-6.458-12.514h-6.476c-.143.506-.351,1.174-.64,1.97a1.33,1.33,0,0,1-1.253.879,1.353,1.353,0,0,1-.452-.078,1.334,1.334,0,0,1-.8-1.707c.145-.4.266-.762.368-1.083a2.761,2.761,0,0,1-2.438-2.737v-5.7a2.76,2.76,0,0,1,2.757-2.757h11.394a2.759,2.759,0,0,1,2.757,2.757v5.7a2.759,2.759,0,0,1-2.435,2.736,36.765,36.765,0,0,0,5.791,10.914,4.2,4.2,0,0,1,.587,4.023l-8.3,22.66a1.331,1.331,0,0,1-1.251.874Zm1.331-22.694a1.516,1.516,0,1,0,1.517-1.516A1.519,1.519,0,0,0,571.64,1136.626Zm-4.273-24.209v5.7a.092.092,0,0,0,.092.092h11.394a.092.092,0,0,0,.092-.092v-5.7a.092.092,0,0,0-.092-.092H567.459A.092.092,0,0,0,567.367,1112.417Zm549.184-109.426a19.976,19.976,0,0,1,16.57-22.881h.393a19.581,19.581,0,0,1,2.367,0,19.655,19.655,0,0,1,3.551,0h39.45a19.724,19.724,0,0,1,0,39.449h-39.45a19.956,19.956,0,0,1-22.881-16.568Zm84.842-62.077a20.124,20.124,0,0,1-3.181-.254h-78.9a19.724,19.724,0,0,1-8.68-37.082l118.347-59.174a19.409,19.409,0,1,1,17.357,34.716l-41.815,22.091a19.977,19.977,0,0,1-3.129,39.7ZM553.685,885.35a40.7,40.7,0,0,1-24.9-18.762c-.664-1.125-1.279-2.294-1.827-3.469a40.66,40.66,0,0,1-3.407-11.539l-.239-1.711a33.856,33.856,0,0,0-60.292-15.359l-2.083,2.763a40.706,40.706,0,1,1-65.018-49l1.1-1.463a33.545,33.545,0,0,0,3.2-33.692,34.566,34.566,0,0,0-2.254-4.081,33.579,33.579,0,0,0-33.626-16.928l-1.709.241A40.713,40.713,0,0,1,321.863,712.7c-.664-1.129-1.28-2.3-1.83-3.476a40.726,40.726,0,0,1,31.26-57.533l1.712-.239a33.8,33.8,0,0,0,15.358-60.29l-2.762-2.083A40.706,40.706,0,0,1,414.6,524.057l1.463,1.1a35.238,35.238,0,0,0,54.7-32.684l-.238-1.708a40.728,40.728,0,0,1,75.427-26.346c.663,1.126,1.277,2.293,1.827,3.469a40.618,40.618,0,0,1,3.408,11.538l.241,1.711a33.574,33.574,0,0,0,25.54,27.654l1.3.982a33.562,33.562,0,0,0,34.75-12.295l2.082-2.764a40.74,40.74,0,0,1,69.4,7.24,40.865,40.865,0,0,1,3.423,11.592,40.456,40.456,0,0,1-7.8,30.164l-1.1,1.463a33.521,33.521,0,0,0-3.542,34.284c.4.85.832,1.693,1.3,2.508A33.582,33.582,0,0,0,710.4,598.9l1.709-.242a40.706,40.706,0,0,1,40.768,19.658c.663,1.127,1.277,2.293,1.824,3.469a40.718,40.718,0,0,1-31.255,57.538l-1.71.24A33.425,33.425,0,0,0,694.079,705.1l-.98,1.3a33.561,33.561,0,0,0,12.293,34.748l2.766,2.083a40.706,40.706,0,0,1-49,65.018l-1.461-1.1a33.857,33.857,0,0,0-53.725,31.384l.241,1.71a40.736,40.736,0,0,1-50.533,45.107ZM494.112,573.972a101.4,101.4,0,1,0,42.691-9.494A101.5,101.5,0,0,0,494.112,573.972Zm572.734,306.451a19.725,19.725,0,0,1,4.34-36.018l157.8-78.9a19.409,19.409,0,1,1,17.357,34.716l-157.8,78.9a19.726,19.726,0,0,1-21.7,1.3Zm0-78.9a19.725,19.725,0,0,1,4.34-36.018l118.346-59.174a19.41,19.41,0,1,1,17.359,34.716l-118.348,59.174a19.726,19.726,0,0,1-21.7,1.3ZM511.1,698.882a12.832,12.832,0,0,1,8.963-12.228v-31.9a12.806,12.806,0,1,1,7.682,0V677.8c3.826-1.84,8.5-2.289,13.014-2.7,5.746-.528,11.171-1.04,13.636-4.114a9.854,9.854,0,0,0,1.761-5.906,12.784,12.784,0,1,1,7.7-.144c-.081,4.5-1.216,8.083-3.457,10.867-4.514,5.6-12.164,6.323-18.92,6.946-4.113.384-7.986.736-10.579,2.049a5.633,5.633,0,0,0-2.385,2.145,12.8,12.8,0,1,1-17.415,11.94Zm10.245,0a2.56,2.56,0,1,0,2.56-2.561A2.568,2.568,0,0,0,521.343,698.882Zm35.852-46.1a2.56,2.56,0,1,0,2.561-2.561A2.568,2.568,0,0,0,557.2,652.785Zm-35.852-10.244a2.56,2.56,0,1,0,2.56-2.56A2.568,2.568,0,0,0,521.343,642.542Z" transform="translate(-313.98 -405.66)" opacity="0.81" fill="url(#linear-gradient)"/>
      </g>
    </g>
  </g>
</svg>
