<svg xmlns="http://www.w3.org/2000/svg" xmlns:xlink="http://www.w3.org/1999/xlink" width="587.462" height="587.462" viewBox="0 0 587.462 587.462">
  <defs>
    <filter id="Gear1" x="0" y="0" width="587.462" height="587.462" filterUnits="userSpaceOnUse">
      <feOffset dx="10" dy="10" input="SourceAlpha"/>
      <feGaussianBlur stdDeviation="10" result="blur"/>
      <feFlood flood-opacity="0.161"/>
      <feComposite operator="in" in2="blur"/>
      <feComposite in="SourceGraphic"/>
    </filter>
    <linearGradient id="linear-gradient" x1="-0.473" y1="-1.106" x2="1.065" y2="1.353" gradientUnits="objectBoundingBox">
      <stop offset="0" stop-color="#d0f"/>
      <stop offset="1" stop-color="#50e3c1"/>
    </linearGradient>
  </defs>
  <g id="Lightbulb" transform="translate(-29.603 -1345.322)">
    <g transform="matrix(1, 0, 0, 1, 29.6, 1345.32)" filter="url(#Gear1)">
      <path id="Gear1-2" data-name="Gear1" d="M199.9,396.909a36.052,36.052,0,0,1-36.082-36.083V359.2A29.605,29.605,0,0,0,144.33,331.96a29.763,29.763,0,0,0-32.835,5.954L110.413,339a36.1,36.1,0,1,1-51.057-51.057l1.082-1.082A30.01,30.01,0,0,0,39.15,235.98H36.083a36.083,36.083,0,1,1,0-72.165h1.624A29.605,29.605,0,0,0,64.949,144.33,29.627,29.627,0,0,0,58.995,111.5l-1.082-1.082A36.1,36.1,0,1,1,108.97,59.356l1.082,1.082a29.763,29.763,0,0,0,32.835,5.954h1.443A29.751,29.751,0,0,0,162.371,39.15V36.083a36.083,36.083,0,1,1,72.166,0v1.624a29.975,29.975,0,0,0,50.876,21.288l1.082-1.082a36.1,36.1,0,1,1,51.057,51.057l-1.082,1.082a29.626,29.626,0,0,0-5.954,32.835v1.443a29.751,29.751,0,0,0,27.242,18.041h3.067a36.083,36.083,0,1,1,0,72.166H359.2a30.01,30.01,0,0,0-21.288,50.876L339,286.5a36.1,36.1,0,1,1-51.057,51.057l-1.082-1.082a30.01,30.01,0,0,0-50.876,21.288v3.067A36.053,36.053,0,0,1,199.9,396.909ZM198.7,85.289A113.416,113.416,0,1,0,312.121,198.7,113.544,113.544,0,0,0,198.7,85.289Z" transform="translate(379.72 20) rotate(65)" fill="#fff"/>
    </g>
    <path  d="M59.719.1a8.607,8.607,0,0,0-2.238,1.033L5.837,26.953A8.607,8.607,0,1,0,13.412,42.1L65.056,16.28A8.607,8.607,0,0,0,59.719.1ZM76.934,25.92A8.607,8.607,0,0,0,74.7,26.953L5.837,61.383a8.607,8.607,0,1,0,7.574,15.149L82.271,42.1A8.607,8.607,0,0,0,76.934,25.92Zm0,34.429A8.608,8.608,0,0,0,74.7,61.383L23.052,87.2a8.607,8.607,0,0,0,3.787,16.182H61.269a8.717,8.717,0,0,0,2.754-17.215l18.248-9.64A8.607,8.607,0,0,0,76.934,60.35ZM32.865,120.6a8.717,8.717,0,0,0,2.754,17.215H52.834a8.607,8.607,0,1,0,0-17.215H35.619a8.609,8.609,0,0,0-1.549,0,8.6,8.6,0,0,0-1.033,0Z" transform="translate(273.36 1559.035)" fill="url(#linear-gradient)"/>
  </g>
</svg>
