<svg xmlns="http://www.w3.org/2000/svg" width="502.174" height="98.848" viewBox="0 0 502.174 98.848">
  <path id="Logo" d="M-250.032-94.863h18.457q17.871,0,24.17,1.641t9.58,5.391a17.067,17.067,0,0,1,4.1,8.35q.82,4.6.82,18.076v33.223q0,12.773-1.2,17.08a12.846,12.846,0,0,1-4.189,6.738,17.426,17.426,0,0,1-7.383,3.4A66.726,66.726,0,0,1-218.919,0h-31.113Zm24.668,16.23v62.4q5.332,0,6.563-2.139T-217.571-30V-66.855a49.476,49.476,0,0,0-.41-8.262,3.918,3.918,0,0,0-1.875-2.666Q-221.321-78.633-225.364-78.633Zm71.128-16.23V0H-178.9V-94.863Zm67.261,0-17.988,60.527V0h-22.852V-34.336l-17.344-60.527H-122.5q5.312,27.774,5.991,37.383,2.051-15.182,6.87-37.383Zm65.738,0V0H-45.906V-39.844h-7.383V0H-77.957V-94.863h24.668v33.926h7.383V-94.863Zm57.344,0L50.213,0H25L23.679-17.051H14.855L13.372,0h-25.5L.452-94.863Zm-13.074,61Q21.16-49.984,19.275-73.711q-3.769,27.247-4.734,39.844ZM116.8-53.555H92.132V-70.042q0-7.191-.791-8.975T87.854-80.8q-3.047,0-3.867,2.168t-.82,9.375V-25.2q0,6.914.82,9.023t3.691,2.109q2.754,0,3.6-2.114t.85-9.927V-38.027H116.8v3.7q0,14.728-2.08,20.89t-9.2,10.8Q98.4,1.992,87.971,1.992q-10.84,0-17.871-3.926A19.088,19.088,0,0,1,60.784-12.8Q58.5-19.746,58.5-33.691V-61.406a123.233,123.233,0,0,1,.7-15.381,21.531,21.531,0,0,1,4.189-9.873,23.359,23.359,0,0,1,9.668-7.471,34.926,34.926,0,0,1,14.209-2.725q10.9,0,17.988,4.213t9.316,10.5q2.227,6.29,2.227,19.573Zm72.446-41.309L175.1-52.031,190.594,0H165.105l-9.99-40.664V0H130.447V-94.863h24.668v36.855L166.1-94.863Zm60.845,28.711h-22.91v-7.031q0-4.922-.879-6.27a3.232,3.232,0,0,0-2.93-1.348A3.729,3.729,0,0,0,220-78.983a10.545,10.545,0,0,0-1.143,5.512,15.627,15.627,0,0,0,1.284,7.153q1.227,2.4,6.971,5.8,16.471,9.776,20.749,16.046t4.277,20.215q0,10.137-2.373,14.941T240.6-1.26a36.271,36.271,0,0,1-15.82,3.252q-9.9,0-16.9-3.75t-9.17-9.551q-2.168-5.8-2.168-16.465v-6.211h22.91v11.543q0,5.332.967,6.855a3.739,3.739,0,0,0,3.428,1.523A4.017,4.017,0,0,0,227.5-16a11.033,11.033,0,0,0,1.2-5.742q0-8.379-2.285-10.957-2.344-2.578-11.543-8.613a113.555,113.555,0,0,1-12.187-8.848,20.7,20.7,0,0,1-4.951-7.617A33.52,33.52,0,0,1,195.775-70.2q0-10.9,2.783-15.937a18.73,18.73,0,0,1,8.994-7.881,35.876,35.876,0,0,1,15-2.842,39.081,39.081,0,0,1,16.377,3.105q6.768,3.105,8.965,7.822t2.2,16.025Z" transform="translate(250.032 96.855)"/>
</svg>
