<svg xmlns="http://www.w3.org/2000/svg" width="1142.298" height="642.185" viewBox="0 0 1142.298 642.185"><g transform="translate(-394.124 -6527.26)"><path d="M234.074,62.756c168.731-65,259.672-55.444,345.28,0,110.311,71.443,35.2,132.138,35.2,206.8,0,132.854,48.986,325.62-108.222,325.62S150.264,396.364,46.979,285.515,65.344,127.757,234.074,62.756Z" transform="translate(385.228 6574.267)" fill="#ecb22e"/><path d="M240.143,127.015c136.118-36.742,215.614-14.773,301.222,45.53,44.516,31.358,40.856,161.232,40.856,161.232s3.186,150.89-21.935,178.536c-53.564,58.947-381.611-29.234-484.9-149.8S104.024,163.757,240.143,127.015Z" transform="translate(767.228 6418.267)" fill="#36c5f0"/><path d="M234.074,56.648C402.8.424,493.745,8.69,579.354,56.648c110.311,61.8,69.436,81.742,69.436,146.325,0,114.915-65.475,267.018-222.683,267.018s-117.594,22.92-220.878-72.96S65.344,112.872,234.074,56.648Z" transform="translate(880.228 6635.267)" fill="#e01e5a"/><g transform="translate(-716 -130)"><path d="M3136.408,692.661C2988.484,602.83,2863,610.3,2863,484.573S2963.284,47.74,3136.408,150.457s260.464,259.826,249.935,390.4c-7.872,97.622-61.01,184.333-149.134,184.345C3207.46,725.208,3173.741,715.332,3136.408,692.661Z" transform="translate(-1463.467 6527.261)" fill="#2eb67d"/><g transform="translate(1524.671 6818.204)"><g transform="translate(0.218 144.288)"><path d="M120.341,157.57a28.77,28.77,0,1,1-28.77-28.77h28.77Z" transform="translate(-62.8 -128.8)" fill="#fff"/><path d="M95.8,157.57a28.77,28.77,0,0,1,57.541,0V229.5a28.77,28.77,0,1,1-57.541,0Z" transform="translate(-23.874 -128.8)" fill="#fff"/></g><path d="M124.571,120.141a28.77,28.77,0,1,1,28.77-28.77v28.77Z" transform="translate(-23.656 -62.6)" fill="#fff"/><path d="M163.615,95.7a28.77,28.77,0,0,1,0,57.541H91.47a28.77,28.77,0,1,1,0-57.541Z" transform="translate(-62.7 -23.556)" fill="#fff"/><g transform="translate(144.288)"><path d="M161.9,124.47a28.77,28.77,0,1,1,28.77,28.77H161.9Z" transform="translate(-89.974 -23.556)" fill="#fff"/><path d="M186.441,163.515a28.77,28.77,0,1,1-57.541,0V91.371a28.77,28.77,0,1,1,57.541,0Z" transform="translate(-128.9 -62.6)" fill="#fff"/></g><g transform="translate(144.288 144.288)"><path d="M157.67,161.8a28.77,28.77,0,1,1-28.77,28.77V161.8Z" transform="translate(-128.9 -89.874)" fill="#fff"/><path d="M157.67,186.341a28.77,28.77,0,1,1,0-57.541h72.144a28.77,28.77,0,0,1,0,57.541Z" transform="translate(-128.9 -128.8)" fill="#fff"/></g></g></g></g></svg>