<svg xmlns="http://www.w3.org/2000/svg" width="122.458" height="143.123" viewBox="0 0 122.458 143.123">
  <path id="android" d="M124.335,53.688V88.263a8.7,8.7,0,1,1-17.406,0V53.688a8.7,8.7,0,1,1,17.406,0ZM10.569,44.847a8.77,8.77,0,0,0-8.692,8.835V88.257a8.78,8.78,0,0,0,8.692,8.852,8.778,8.778,0,0,0,8.714-8.852V53.688A8.768,8.768,0,0,0,10.569,44.847Zm13.965,63.409a6.785,6.785,0,0,0,6.793,6.787h7.762v19.239a8.709,8.709,0,1,0,17.417,0V115.049H70.048v19.239a8.715,8.715,0,1,0,17.428,0V115.049h7.745a6.787,6.787,0,0,0,6.8-6.787V45.117H24.534Zm77.3-68.76H24.358c1.013-11.747,8.995-21.8,20.384-27.094L37.581,2A1.29,1.29,0,0,1,37.806.193,1.333,1.333,0,0,1,39.6.616l7.426,10.8a44.362,44.362,0,0,1,32.159,0L86.611.616A1.333,1.333,0,0,1,88.406.193,1.29,1.29,0,0,1,88.632,2L81.47,12.4C92.854,17.692,100.841,27.749,101.837,39.5ZM51.056,24.479a4.294,4.294,0,1,0-4.294,4.294A4.285,4.285,0,0,0,51.056,24.479Zm33.216,0a4.285,4.285,0,1,0-4.294,4.294A4.278,4.278,0,0,0,84.272,24.479Z" transform="translate(-1.877 0)" fill="#2b2b2b" fill-rule="evenodd"/>
</svg>
