<svg xmlns="http://www.w3.org/2000/svg" width="481.106" height="481.185" viewBox="0 0 481.106 481.185">
  <path id="blockchain" d="M242.593,2a68.981,68.981,0,0,0-48.942,20.278L148.792,67.1l93.8,93.8,93.8-93.8L291.572,22.278A69.065,69.065,0,0,0,242.593,2ZM122.622,93.27,22.279,193.613a69.243,69.243,0,0,0,0,97.921L67.1,336.356,216.422,187.071Zm239.906.036-93.764,93.764,75.581,75.618,93.8-93.8ZM464.208,195.24l-93.655,93.62,47.532,47.534,44.822-44.822A69.132,69.132,0,0,0,464.208,195.24Zm-221.615,18L93.271,362.562,193.614,462.906a69.243,69.243,0,0,0,97.921,0L391.878,362.562Z" transform="translate(-2 -2)" fill="#fff"/>
</svg>
