<svg id="cloud" xmlns="http://www.w3.org/2000/svg" width="142.597" height="83.595" viewBox="0 0 142.597 83.595">
  <path id="Subtraction_18" data-name="Subtraction 18" d="M122.959,83.595H29.518a29.5,29.5,0,1,1,0-59h.03a29.2,29.2,0,0,1,3.583.231A41.787,41.787,0,0,1,71.3,0c1.268,0,2.546.058,3.821.174a41.78,41.78,0,0,1,36.836,31.84c.349-.023.757-.049,1.157-.049a14.746,14.746,0,0,1,14.63,12.885,19.673,19.673,0,0,1-4.782,38.746ZM95.9,52.248a9.834,9.834,0,1,0,9.834,9.834A9.834,9.834,0,0,0,95.9,52.248Zm-49.172,0a9.834,9.834,0,1,0,9.834,9.834A9.834,9.834,0,0,0,46.728,52.248ZM61.451,44.9a2.449,2.449,0,0,0-1.708.694l-4.918,4.918A2.458,2.458,0,1,0,58.3,53.984l4.923-4.918a2.472,2.472,0,0,0-.03-3.446,2.442,2.442,0,0,0-1.738-.72Zm19.728,0a2.444,2.444,0,0,0-1.738.72,2.472,2.472,0,0,0-.042,3.446l4.918,4.918a2.458,2.458,0,0,0,3.472-3.472l-4.9-4.918a2.446,2.446,0,0,0-1.708-.694ZM71.315,27.66a9.834,9.834,0,1,0,9.834,9.834,9.834,9.834,0,0,0-9.834-9.834ZM95.9,67a4.916,4.916,0,1,1,3.472-1.44A4.916,4.916,0,0,1,95.9,67ZM46.728,67a4.918,4.918,0,1,1,3.472-1.44A4.918,4.918,0,0,1,46.728,67ZM71.315,42.414a4.918,4.918,0,1,1,3.472-1.44A4.918,4.918,0,0,1,71.315,42.414Z" transform="translate(0 0)" fill="#2b2b2b"/>
</svg>
