<svg xmlns="http://www.w3.org/2000/svg" width="102.957" height="102.957" viewBox="0 0 102.957 102.957"><g transform="translate(-11 -11)"><path d="M98.871,26.086A51.466,51.466,0,1,0,26.086,98.871,51.466,51.466,0,1,0,98.871,26.086Zm10.422,34.081H89.331A89.383,89.383,0,0,0,86.075,37.79a51.052,51.052,0,0,0,10.611-7.312A46.751,46.751,0,0,1,109.292,60.167ZM64.79,64.79H84.73a84.5,84.5,0,0,1-2.921,20.57,51.968,51.968,0,0,0-17.019-3.7ZM93.366,27.263a46.812,46.812,0,0,1-8.741,6.072,53.67,53.67,0,0,0-2.71-6.3,37.036,37.036,0,0,0-6.766-9.665A46.667,46.667,0,0,1,93.366,27.263ZM64.79,16.337C69.6,17.409,74.14,21.842,77.8,29.07a52.513,52.513,0,0,1,2.647,6.24A47.154,47.154,0,0,1,64.79,38.819ZM81.83,39.744a84.507,84.507,0,0,1,2.879,20.444H64.79V43.463a52,52,0,0,0,17.04-3.719ZM60.167,60.167H40.227a84.507,84.507,0,0,1,2.879-20.444,51.037,51.037,0,0,0,17.04,3.7V60.167Zm.021-43.83V38.819A47.037,47.037,0,0,1,44.535,35.31a52.514,52.514,0,0,1,2.647-6.24c3.656-7.228,8.195-11.661,13.006-12.733ZM49.83,17.367a37.4,37.4,0,0,0-6.766,9.665,61.807,61.807,0,0,0-2.71,6.3,47.511,47.511,0,0,1-8.741-6.072,46.667,46.667,0,0,1,18.217-9.9ZM28.293,30.478A51.871,51.871,0,0,0,38.9,37.79a88.571,88.571,0,0,0-3.257,22.377H15.686A46.751,46.751,0,0,1,28.293,30.478ZM15.686,64.79H35.647a89.268,89.268,0,0,0,3.3,22.5,50.588,50.588,0,0,0-10.569,7.27A46.677,46.677,0,0,1,15.686,64.79ZM31.7,97.778a46.988,46.988,0,0,1,8.7-6.03,56.939,56.939,0,0,0,2.668,6.177,37.531,37.531,0,0,0,6.766,9.686A46.9,46.9,0,0,1,31.7,97.778ZM60.188,108.62c-4.812-1.072-9.35-5.505-13.006-12.733a54.006,54.006,0,0,1-2.605-6.114,46.379,46.379,0,0,1,15.612-3.488V108.62ZM43.169,85.36a84.5,84.5,0,0,1-2.921-20.57h19.94V81.662a50.917,50.917,0,0,0-17.019,3.7Zm21.642,23.26V86.285a46.89,46.89,0,0,1,15.612,3.488,54.007,54.007,0,0,1-2.605,6.114c-3.656,7.228-8.195,11.661-13.006,12.733Zm10.359-1.03A37.171,37.171,0,0,0,81.935,97.9,56.938,56.938,0,0,0,84.6,91.727a46.987,46.987,0,0,1,8.7,6.03,46.354,46.354,0,0,1-18.133,9.833ZM96.643,94.563a51.4,51.4,0,0,0-10.569-7.27,89.411,89.411,0,0,0,3.3-22.5h19.961A46.9,46.9,0,0,1,96.643,94.563Z" fill="#fff"/></g></svg>