<svg xmlns="http://www.w3.org/2000/svg" width="51" height="51" viewBox="0 0 51 51">
  <g id="earth-globe" transform="translate(-11 -11)">
    <path id="Path_375" data-name="Path 375" d="M54.527,18.473A25.494,25.494,0,1,0,36.5,62,25.494,25.494,0,0,0,54.527,18.473Zm5.162,16.882H49.8A44.276,44.276,0,0,0,48.188,24.27a25.289,25.289,0,0,0,5.256-3.622A23.158,23.158,0,0,1,59.689,35.355Zm-22.044,2.29h9.877a41.856,41.856,0,0,1-1.447,10.19A25.743,25.743,0,0,0,37.645,46ZM51.8,19.056a23.188,23.188,0,0,1-4.33,3.008,26.585,26.585,0,0,0-1.343-3.122,18.346,18.346,0,0,0-3.351-4.788A23.117,23.117,0,0,1,51.8,19.056ZM37.645,13.644c2.383.531,4.632,2.727,6.443,6.307A26.013,26.013,0,0,1,45.4,23.042a23.358,23.358,0,0,1-7.754,1.738Zm8.441,11.595a41.861,41.861,0,0,1,1.426,10.127H37.645V27.081a25.756,25.756,0,0,0,8.441-1.842ZM35.355,35.355H25.478A41.861,41.861,0,0,1,26.9,25.228a25.281,25.281,0,0,0,8.441,1.832v8.3Zm.01-21.711V24.78a23.3,23.3,0,0,1-7.754-1.738,26.013,26.013,0,0,1,1.311-3.091c1.811-3.58,4.059-5.777,6.443-6.307Zm-5.131.51a18.524,18.524,0,0,0-3.351,4.788,30.617,30.617,0,0,0-1.343,3.122,23.535,23.535,0,0,1-4.33-3.008,23.117,23.117,0,0,1,9.024-4.9ZM19.566,20.648a25.694,25.694,0,0,0,5.256,3.622,43.874,43.874,0,0,0-1.613,11.085H13.321A23.158,23.158,0,0,1,19.566,20.648Zm-6.245,17h9.888a44.219,44.219,0,0,0,1.634,11.147,25.059,25.059,0,0,0-5.235,3.6A23.122,23.122,0,0,1,13.321,37.645Zm7.931,16.341A23.276,23.276,0,0,1,25.561,51a28.2,28.2,0,0,0,1.322,3.06,18.591,18.591,0,0,0,3.351,4.8,23.232,23.232,0,0,1-8.982-4.871Zm14.113,5.371c-2.383-.531-4.632-2.727-6.443-6.307a26.752,26.752,0,0,1-1.291-3.029,22.974,22.974,0,0,1,7.733-1.728V59.356ZM26.935,47.834a41.856,41.856,0,0,1-1.447-10.19h9.877V46a25.222,25.222,0,0,0-8.431,1.832Zm10.72,11.522V48.292a23.227,23.227,0,0,1,7.733,1.728A26.753,26.753,0,0,1,44.1,53.049c-1.811,3.58-4.059,5.777-6.443,6.307Zm5.131-.51a18.413,18.413,0,0,0,3.351-4.8,28.2,28.2,0,0,0,1.322-3.06,23.275,23.275,0,0,1,4.309,2.987,22.962,22.962,0,0,1-8.982,4.871Zm10.637-6.453a25.461,25.461,0,0,0-5.235-3.6,44.29,44.29,0,0,0,1.634-11.147H59.71a23.231,23.231,0,0,1-6.287,14.748Z" fill="#222"/>
  </g>
</svg>
