<svg xmlns="http://www.w3.org/2000/svg" width="45.678" height="44.561" viewBox="0 0 45.678 44.561"><path d="M42.615,16.74A22.74,22.74,0,0,0,34.3,8.428,22.339,22.339,0,0,0,22.839,5.365,22.341,22.341,0,0,0,11.375,8.428,22.737,22.737,0,0,0,3.063,16.74,22.341,22.341,0,0,0,0,28.2,22.2,22.2,0,0,0,4.357,41.63a22.368,22.368,0,0,0,11.256,8.252,1.331,1.331,0,0,0,1.189-.208,1.163,1.163,0,0,0,.387-.892q0-.089-.015-1.606t-.015-2.646l-.684.118a8.725,8.725,0,0,1-1.65.1,12.575,12.575,0,0,1-2.067-.208,4.618,4.618,0,0,1-1.993-.891,3.773,3.773,0,0,1-1.308-1.829l-.3-.684a7.431,7.431,0,0,0-.937-1.516,3.588,3.588,0,0,0-1.294-1.13l-.208-.149a2.183,2.183,0,0,1-.387-.357,1.631,1.631,0,0,1-.267-.416q-.089-.209.149-.343a1.929,1.929,0,0,1,.862-.133l.595.089a4.341,4.341,0,0,1,1.472.714,4.8,4.8,0,0,1,1.442,1.546,5.242,5.242,0,0,0,1.65,1.859,3.5,3.5,0,0,0,1.948.639,8.457,8.457,0,0,0,1.7-.148,5.915,5.915,0,0,0,1.338-.446,4.818,4.818,0,0,1,1.457-3.063,20.363,20.363,0,0,1-3.048-.535,12.137,12.137,0,0,1-2.8-1.16A8.006,8.006,0,0,1,10.437,34.6a9.575,9.575,0,0,1-1.561-3.123,14.849,14.849,0,0,1-.61-4.461,8.674,8.674,0,0,1,2.35-6.126,7.994,7.994,0,0,1,.208-6.066,4.167,4.167,0,0,1,2.558.4,17.881,17.881,0,0,1,2.483,1.145q.788.475,1.264.8a21.477,21.477,0,0,1,11.42,0l1.13-.713a16,16,0,0,1,2.735-1.309,3.9,3.9,0,0,1,2.41-.327,7.917,7.917,0,0,1,.237,6.066,8.675,8.675,0,0,1,2.35,6.126,15.015,15.015,0,0,1-.61,4.475,9.2,9.2,0,0,1-1.575,3.123,8.314,8.314,0,0,1-2.409,1.978,12.159,12.159,0,0,1-2.8,1.16,20.34,20.34,0,0,1-3.048.536,5.3,5.3,0,0,1,1.546,4.222v6.274a1.185,1.185,0,0,0,.372.892,1.292,1.292,0,0,0,1.174.208,22.365,22.365,0,0,0,11.256-8.252A22.2,22.2,0,0,0,45.678,28.2,22.359,22.359,0,0,0,42.615,16.74Z" transform="translate(0 -5.365)" fill="#fff"/></svg>