<svg xmlns="http://www.w3.org/2000/svg" width="133.966" height="133.966" viewBox="0 0 133.966 133.966">
  <g id="icons8-ios-logo" transform="translate(-4 -3)">
    <path id="Path_361" data-name="Path 361" d="M101.43,3H40.536A36.565,36.565,0,0,0,4,39.536V100.43a36.565,36.565,0,0,0,36.536,36.536H101.43a36.565,36.565,0,0,0,36.536-36.536V39.536A36.565,36.565,0,0,0,101.43,3ZM33.107,90.169H27.383V61.031h5.724ZM30.245,55.916a3.524,3.524,0,1,1,0-7.033,3.522,3.522,0,1,1,0,7.033ZM61.971,91.082c-11.235,0-18.055-7.794-18.055-20.247,0-12.483,6.972-20.217,18.055-20.217,11.113,0,17.964,7.764,17.964,20.217C79.934,83.258,73.145,91.082,61.971,91.082Zm39,.03c-8.556,0-14.31-4.415-14.736-11.326h5.937c.518,3.654,4.11,6,9.256,6,4.811,0,8.342-2.5,8.342-5.937,0-2.923-2.223-4.689-7.338-5.907l-4.993-1.187c-6.972-1.644-10.169-5.024-10.169-10.687,0-6.881,5.633-11.448,14.066-11.448,7.825,0,13.549,4.567,13.914,11.083h-5.846c-.578-3.562-3.654-5.785-8.16-5.785-4.75,0-7.886,2.253-7.886,5.754,0,2.74,2.009,4.323,7.064,5.511l4.232,1.035c7.947,1.857,11.2,5.054,11.2,10.869C115.861,86.485,110.137,91.113,100.973,91.113Z" fill="#fff"/>
    <path id="Path_362" data-name="Path 362" d="M42.878,35.115c0,8.921-4.506,14.675-11.844,14.675-7.429,0-11.9-5.754-11.9-14.675,0-8.951,4.628-14.645,11.9-14.645C38.372,20.47,42.878,26.164,42.878,35.115Z" transform="translate(30.936 35.72)" fill="#fff"/>
  </g>
</svg>
