<svg xmlns="http://www.w3.org/2000/svg" width="44.561" height="44.561" viewBox="0 0 44.561 44.561"><path d="M40.53,0H4.031A4.031,4.031,0,0,0,0,4.031v36.5a4.031,4.031,0,0,0,4.031,4.031h36.5a4.031,4.031,0,0,0,4.031-4.031V4.031A4.031,4.031,0,0,0,40.53,0ZM13.789,38.477a1.173,1.173,0,0,1-1.173,1.173H7.623A1.173,1.173,0,0,1,6.45,38.477V17.545a1.173,1.173,0,0,1,1.173-1.173h4.993a1.173,1.173,0,0,1,1.173,1.173ZM10.119,14.4a4.744,4.744,0,1,1,4.744-4.744A4.744,4.744,0,0,1,10.119,14.4ZM39.884,38.571a1.079,1.079,0,0,1-1.079,1.079H33.448a1.079,1.079,0,0,1-1.079-1.079V28.753c0-1.465.43-6.418-3.828-6.418-3.3,0-3.972,3.391-4.107,4.912V38.571a1.079,1.079,0,0,1-1.079,1.079H18.174A1.079,1.079,0,0,1,17.1,38.571V17.45a1.079,1.079,0,0,1,1.079-1.079h5.182a1.079,1.079,0,0,1,1.079,1.079v1.826c1.224-1.838,3.044-3.256,6.919-3.256,8.58,0,8.531,8.016,8.531,12.42V38.571Z" fill="#fff"/></svg>