<svg xmlns="http://www.w3.org/2000/svg" width="159.406" height="156.99" viewBox="0 0 159.406 156.99">
  <g id="Open_Source_SKill" data-name="Open Source SKill" transform="matrix(0.951, -0.309, 0.309, 0.951, 6.3, 42.588)">
    <g id="Group_8" data-name="Group 8">
      <path id="Path_3" data-name="Path 3" d="M58.714,8.144A58.626,58.626,0,0,0,37.665,121.521a3.615,3.615,0,0,0,2.906-.125,3.681,3.681,0,0,0,1.9-2.208L53.481,84.054a3.66,3.66,0,0,0-1.725-4.306,14.672,14.672,0,1,1,13.915.007,3.652,3.652,0,0,0-1.725,4.306L74.956,119.2a3.681,3.681,0,0,0,1.9,2.208,3.724,3.724,0,0,0,1.6.367,3.647,3.647,0,0,0,1.306-.242A58.631,58.631,0,0,0,58.714,8.144Z" transform="translate(0 -8.144)" fill="none" stroke="#fff" stroke-width="10"/>
    </g>
  </g>
</svg>
