<svg xmlns="http://www.w3.org/2000/svg" xmlns:xlink="http://www.w3.org/1999/xlink" width="241.068" height="164.316" viewBox="0 0 241.068 164.316">
  <defs>
    <filter id="Icon_material-people" x="0" y="0" width="241.068" height="164.316" filterUnits="userSpaceOnUse">
      <feOffset dy="6" input="SourceAlpha"/>
      <feGaussianBlur stdDeviation="5" result="blur"/>
      <feFlood flood-opacity="0.161"/>
      <feComposite operator="in" in2="blur"/>
      <feComposite in="SourceGraphic"/>
    </filter>
  </defs>
  <g transform="matrix(1, 0, 0, 1, 0, 0)" filter="url(#Icon_material-people)">
    <path id="Icon_material-people-2" data-name="Icon material-people" d="M145.41,65.064a28.782,28.782,0,1,0-28.782-28.782A28.662,28.662,0,0,0,145.41,65.064Zm-76.752,0A28.782,28.782,0,1,0,39.876,36.282,28.662,28.662,0,0,0,68.658,65.064Zm0,19.188C46.3,84.252,1.5,95.477,1.5,117.831v23.985H135.816V117.831C135.816,95.477,91.012,84.252,68.658,84.252Zm76.752,0c-2.782,0-5.948.192-9.306.48,11.129,8.059,18.9,18.9,18.9,33.1v23.985h57.564V117.831C212.568,95.477,167.764,84.252,145.41,84.252Z" transform="translate(13.5 1.5)" fill="#fff"/>
  </g>
</svg>
