<svg id="pm" xmlns="http://www.w3.org/2000/svg" width="127.371" height="158.966" viewBox="0 0 127.371 158.966">
  <path id="Exclusion_6" data-name="Exclusion 6" d="M-2935.033-32h-95.529a15.934,15.934,0,0,1-11.258-4.6,15.477,15.477,0,0,1-4.663-11.1V-157.54a15.477,15.477,0,0,1,4.663-11.1,15.934,15.934,0,0,1,11.258-4.6h19.551V-182.1c0-4.89,3.164-8.869,7.053-8.869h42.321c3.889,0,7.052,3.978,7.052,8.869v8.868h19.552a15.934,15.934,0,0,1,11.258,4.6,15.477,15.477,0,0,1,4.663,11.1V-47.695a15.477,15.477,0,0,1-4.663,11.1A15.934,15.934,0,0,1-2935.033-32Zm-75.978-141.23v8.868c0,4.89,3.164,8.869,7.053,8.869h42.321c3.889,0,7.052-3.978,7.052-8.869v-8.867h-56.426Z" transform="translate(3046.483 190.968)" fill="#2b2b2b"/>
</svg>
