<svg xmlns="http://www.w3.org/2000/svg" width="137.371" height="168.966" viewBox="0 0 137.371 168.966">
  <g id="PM_Skill" data-name="PM Skill" transform="translate(5 5)">
    <path id="Path_4" data-name="Path 4" d="M101.528,6H117.45a15.808,15.808,0,0,1,15.921,15.692V131.538A15.808,15.808,0,0,1,117.45,147.23H21.921A15.808,15.808,0,0,1,6,131.538V21.692A15.808,15.808,0,0,1,21.921,6H37.843" transform="translate(-6 11.736)" fill="none" stroke="#fff" stroke-linecap="round" stroke-linejoin="round" stroke-width="10"/>
    <path id="Path_5" data-name="Path 5" d="M19.053,3h42.32c3.9,0,7.053,3.97,7.053,8.868V29.6c0,4.9-3.158,8.868-7.053,8.868H19.053C15.158,38.472,12,34.5,12,29.6V11.868C12,6.97,15.158,3,19.053,3Z" transform="translate(23.472 -3)" fill="none" stroke="#fff" stroke-linecap="round" stroke-linejoin="round" stroke-width="10"/>
  </g>
</svg>
