<svg xmlns="http://www.w3.org/2000/svg" width="417.237" height="365.082" viewBox="0 0 417.237 365.082">
  <path id="server" d="M391.159,106.559H26.077A26.077,26.077,0,0,1,0,80.482V28.327A26.077,26.077,0,0,1,26.077,2.25H391.159a26.077,26.077,0,0,1,26.077,26.077V80.482A26.077,26.077,0,0,1,391.159,106.559ZM352.043,34.847A19.558,19.558,0,1,0,371.6,54.4,19.558,19.558,0,0,0,352.043,34.847Zm-52.155,0A19.558,19.558,0,1,0,319.447,54.4,19.558,19.558,0,0,0,299.889,34.847Zm91.271,202.1H26.077A26.077,26.077,0,0,1,0,210.868V158.714a26.077,26.077,0,0,1,26.077-26.077H391.159a26.077,26.077,0,0,1,26.077,26.077v52.155A26.077,26.077,0,0,1,391.159,236.946Zm-39.116-71.713A19.558,19.558,0,1,0,371.6,184.791,19.558,19.558,0,0,0,352.043,165.233Zm-52.155,0a19.558,19.558,0,1,0,19.558,19.558A19.558,19.558,0,0,0,299.889,165.233Zm91.271,202.1H26.077A26.077,26.077,0,0,1,0,341.255V289.1a26.077,26.077,0,0,1,26.077-26.077H391.159A26.077,26.077,0,0,1,417.237,289.1v52.155A26.077,26.077,0,0,1,391.159,367.332Zm-39.116-71.713A19.558,19.558,0,1,0,371.6,315.177,19.558,19.558,0,0,0,352.043,295.619Zm-52.155,0a19.558,19.558,0,1,0,19.558,19.558A19.558,19.558,0,0,0,299.889,295.619Z" transform="translate(0 -2.25)" fill="#fff"/>
</svg>
