<svg xmlns="http://www.w3.org/2000/svg" xmlns:xlink="http://www.w3.org/1999/xlink" width="206.743" height="203.004" viewBox="0 0 206.743 203.004">
  <defs>
    <filter id="Icon_metro-tools" x="0" y="0" width="206.743" height="203.004" filterUnits="userSpaceOnUse">
      <feOffset dy="6" input="SourceAlpha"/>
      <feGaussianBlur stdDeviation="5" result="blur"/>
      <feFlood flood-opacity="0.161"/>
      <feComposite operator="in" in2="blur"/>
      <feComposite in="SourceGraphic"/>
    </filter>
  </defs>
  <g transform="matrix(1, 0, 0, 1, 0, 0)" filter="url(#Icon_metro-tools)">
    <path id="Icon_metro-tools-2" data-name="Icon metro-tools" d="M178.576,33.018a44,44,0,0,1-62.373,55.2l-12.173,13.294,8.685,8.72,5.19-5.19a6.783,6.783,0,0,1,9.605,0L169.6,147.563a6.783,6.783,0,0,1,0,9.605L150.39,176.379a6.783,6.783,0,0,1-9.605,0L98.7,133.861a6.783,6.783,0,0,1,0-9.605l4.74-4.74-8.277-8.3L36.953,174.808a13.579,13.579,0,0,1-19.211,0l-4.8-4.8a13.579,13.579,0,0,1,0-19.211L79.25,95.259,35.209,51.1,21.3,51.094,5.2,25.212,18.157,12.237l26.47,16.2L44.8,42.056,89.353,86.782l12.962-10.851A44.049,44.049,0,0,1,154.5,9.053L125.961,37.2l24.02,24.02,28.595-28.2ZM28.869,157.57a6.794,6.794,0,1,0,0,9.612A6.8,6.8,0,0,0,28.869,157.57Z" transform="translate(9.8 3.22)" fill="#fff"/>
  </g>
</svg>
