<svg xmlns="http://www.w3.org/2000/svg" width="60" height="44.56" viewBox="0 0 60 44.56"><g transform="translate(0 -48)"><g transform="translate(0 48)"><path d="M60,53.275a27.553,27.553,0,0,1-7.087,1.776,11.423,11.423,0,0,0,5.411-6.214,26.027,26.027,0,0,1-7.8,2.722A12.893,12.893,0,0,0,41.539,48c-6.81,0-12.292,5.052-12.292,11.246a10.621,10.621,0,0,0,.285,2.564A36,36,0,0,1,4.177,50.05a10.588,10.588,0,0,0-1.684,5.683,11.041,11.041,0,0,0,5.464,9.344A13.035,13.035,0,0,1,2.4,63.692v.123c0,5.464,4.264,10,9.855,11.047a13.369,13.369,0,0,1-3.225.37A11.868,11.868,0,0,1,6.7,75.041a12.329,12.329,0,0,0,11.494,7.832,26.23,26.23,0,0,1-15.251,4.8A25.179,25.179,0,0,1,0,87.514,37.032,37.032,0,0,0,18.87,92.56c22.635,0,35.01-17.138,35.01-31.994,0-.5-.019-.977-.045-1.453A23.49,23.49,0,0,0,60,53.275Z" transform="translate(0 -48)" fill="#fff"/></g></g></svg>