<svg xmlns="http://www.w3.org/2000/svg" width="111.891" height="111.895" viewBox="0 0 111.891 111.895">
  <path id="icons8-unity" d="M107.474,59.475l7.171-12.153a2.552,2.552,0,0,0,.1-1.93L100.547,4.7a2.549,2.549,0,0,0-3-1.633L55.8,13.244a2.547,2.547,0,0,0-1.76,1.526L49.6,25.887H36.059a2.549,2.549,0,0,0-1.869.819L3.674,59.765a2.542,2.542,0,0,0,.114,3.565l32,30.516a2.555,2.555,0,0,0,1.755.7H52.136l4.448,11.118a2.543,2.543,0,0,0,1.93,1.561l44.4,7.629a2.506,2.506,0,0,0,.432.038,2.542,2.542,0,0,0,2.482-2l9.007-41.27a2.543,2.543,0,0,0-.313-1.867ZM49.6,25.887l35.841-6.569L66.575,56.4H23.769Zm2.543,68.661L23.769,66.575H66.575l22.251,33.484Zm45.934-.262-21.326-32.8L95.395,24.4l12.079,35.073Z" transform="translate(-3 -3)" fill="#fff"/>
</svg>
