<svg xmlns="http://www.w3.org/2000/svg" width="247.001" height="195" viewBox="0 0 247.001 195">
  <g id="uxui" transform="translate(5 5)">
    <path id="Union_2" data-name="Union 2" d="M-3151.687,212.657a37,37,0,0,1-37-37v-111a37,37,0,0,1,37-37h26a37,37,0,0,1,37,37v111a37,37,0,0,1-37,37Zm137-19a13,13,0,0,1-13-13q0-.651.063-1.286l-33.957-58.481h0l34.054-58.647a13.614,13.614,0,0,1-.16-2.085,13.5,13.5,0,0,1,13.5-13.5h49a13.5,13.5,0,0,1,13.5,13.5,13.5,13.5,0,0,1-13.5,13.5h-49a13.5,13.5,0,0,1-13.34-11.415l-34.054,58.647h0l33.957,58.481a13,13,0,0,1,12.938-11.713h50a13,13,0,0,1,13,13,13,13,0,0,1-13,13Zm1-59a14,14,0,0,1-14-14,14,14,0,0,1,14-14h48a14,14,0,0,1,14,14,14,14,0,0,1-14,14Z" transform="translate(3188.688 -27.657)" fill="#2b2b2b" stroke="#2b2b2b" stroke-linejoin="round" stroke-width="10"/>
  </g>
</svg>
