<svg xmlns="http://www.w3.org/2000/svg" xmlns:xlink="http://www.w3.org/1999/xlink" width="1920" height="2124" viewBox="0 0 1920 2124">
  <defs>
    <clipPath id="clip-path">
      <rect id="Rectangle_596" data-name="Rectangle 596" width="1920" height="2124" transform="translate(0 2161)" fill="#fff" stroke="#707070" stroke-width="1"/>
    </clipPath>
    <linearGradient id="linear-gradient" x1="0.965" y1="-0.313" x2="0.414" y2="1.303" gradientUnits="objectBoundingBox">
      <stop offset="0" stop-color="#d0f"/>
      <stop offset="1" stop-color="#50e3c1"/>
    </linearGradient>
    <filter id="Path_8" x="-598.606" y="-881.965" width="6168.445" height="3394.239" filterUnits="userSpaceOnUse">
      <feOffset dy="3" input="SourceAlpha"/>
      <feGaussianBlur stdDeviation="10" result="blur"/>
      <feFlood flood-opacity="0.161"/>
      <feComposite operator="in" in2="blur"/>
      <feComposite in="SourceGraphic"/>
    </filter>
  </defs>
  <g id="Mask_Group_2" data-name="Mask Group 2" transform="translate(0 -2161)" clip-path="url(#clip-path)">
    <g id="Back" transform="matrix(0.999, 0.052, -0.052, 0.999, -314.727, 1420.277)">
      <path id="Path_6" data-name="Path 6" d="M-.284,7.742c-.157,4.427,3.017,9.863,6.329,11.426,3.985,1.543,6.8-1.856,7.014-7.944C13.293,4.583,10.774-.319,6.73-.2,3.36-.1-.127,3.315-.284,7.742Z" transform="translate(5846.67 -174.989)" fill="url(#linear-gradient)"/>
      <path id="Path_7" data-name="Path 7" d="M-.321,8.737c-.157,4.427,3.135,6.543,6.563,4.785,4.123-2.331,5.607-6.244,3.683-8.953C4.135-3,.032-1.225-.321,8.737Z" transform="translate(5838.949 -147.011)" fill="url(#linear-gradient)"/>
      <g transform="matrix(1, -0.05, 0.05, 1, 353.06, 723.24)" filter="url(#Path_8)">
        <path id="Path_8-2" data-name="Path 8" d="M5846.321-162.473c-3.687,9.677-9.773,16.233-13.874,13.96s-11,3.51-14.713,13.984c-7.292,16.959-7.292,16.959-9.877-4.5-3.226-27.02-11.6-26.776-25.059-.866-5.446,12.12-6.567,20.127-2.38,20.006,5.023-.146,13.78,12.359,19.913,28.13,10.035,23.632,9.81,30.019.4,35.874-6,4.162-7.789,7.4-4.44,7.306,17.583-.511-15.3,30.748-44.165,42.751-37.316,14.641-48.925,11.789-52.262-12.038-4.844-28.568-27.815-17.533-31.484,15.269-3.556,29.609-19.634,34.862-18.588,5.325.9-25.545-12.8-16.375-22.275,15-8.609,30.554-36.744,45.725-30.7,16.842,1.93-7.233-.355-13.546-5.379-13.4-4.187.122-13.311-2.006-20.76-4.182-9.905-3.7-13.424,1.188-14.073,19.548-.51,14.369,4.12,25.4,12.378,28.349,21.484,7.35-1.8,27.166-27.581,23.13-12.472-2.03-24.307,1.5-28.662,6.415-3.546,5.685-13.791,11.565-22.19,12.607-9.266,1.864-17.083,10.066-19.1,19.694-4.083,20.853-19.265,24.484-18.531,3.728.537-15.167,44.731-58.717,60.637-59.179,5.023-.146,6.838-4.186,4.469-8.1-3.179-4.693-1.194-13.522,4.027-19.256,6.98-8.177,5.531-14.515-6.66-24.528-12.16-10.811-13.638-16.351-6.63-25.326,6.058-5.758,8.824-13.016,6.369-14.539-1.589-2.346-11.975,7.525-23.31,20.614-20.159,26.1-19.08,42.82,2.971,34.2,11.024-4.307,12.585-1.163,7.026,14.15-10.255,29.8-13.6,29.9-41.748-1.977-13.665-15.552-28.255-28.685-31.6-28.587-12.558.365-4.083,20.853,17.118,36.186l21.983,16.9-23.282,19.816c-28.42,23.155-29.454,28.767-9.532,32.973,10.771,2.877,9.069,3.724-4.354,4.911-10.913,1.115-19.452,6.148-19.706,13.332-.227,6.386-3.772,12.072-8.8,12.218-4.186.122-8.23-3.748-8.089-7.739.17-4.79-7.251-7.764-16.461-7.5-10.884.316-14.928-3.554-11.3-11.634,3.6-7.282.423-11.974-7.112-11.755-17.58.511-22.942,10.236-17.845,31.62,2.84,14.272,8.616,16.5,23.8,12.865,13.508-3.583,25.115-.73,36.439,10.105,21.841,20.9,20,25.735-4.92,20.877-14.927-3.554-20.873-.988-21.184,7.793-.226,6.386-3.772,12.071-8.8,12.217-4.186.122-8.259-2.95-8.117-6.941s-8.869-9.312-20.506-11.366c-14.118-2.78-20.562-9.77-20.138-21.744.65-18.361-28.49-69.349-39.373-69.032-16.744.487-15.606,15.605,3.055,31.81,11.354,10.037,19.97,26.533,19.6,36.911s2.7,18.263,6.884,18.142,8.956,6.917,11.156,15.625c2.925,11.877-.537,15.167-14.712,13.984q-17.539-.686-18.006,12.485c-.254,7.185-3.914,16.063-7.375,19.353s-5.945,2.565-5.775-2.225-6.331-10.183-13.781-12.359c-8.315-1.353-21.54-5.754-28.962-8.728-11.578-3.651-15.012-1.159-15.436,10.816-.339,9.58-4.027,19.256-9.135,21.8-4.27,2.516-8.88,14.612-9.3,26.587l-.762,21.553-16.038-19.47c-11.212-14.029-12.6-21.963-5.625-30.14,15.663-17.2.763-21.553-18.219-5.052-23.312,20.614-22.173,35.732,3.468,43.759,18.164,6.649,19.726,9.794,11.015,19.616-6.086,6.556-14.571,9.993-20.318,6.97-4.912-3.047-14.9-4.352-22.464-3.335-7.592,1.816-15.794-2.731-18.888-9.818-6.047-18.166-23.216-5.705-18.034,13.283,3.764,11.853.3,15.143-17.28,15.654-11.72.341-20.205,3.777-17.833,7.7,3.206,3.894-10.839,22.644-30.744,41.564-41.541,39.485-38.785,56.152,2.727,17.465,24.176-21.436,29.283-23.977,42.369-15.586,18.746,13.809,17.6,22.615-3.106,16.837-19.057-5.029-53.618,26.28-47.514,42.849,1.477,5.539-2.042,10.427-7.9,10.6a17.131,17.131,0,0,1-15.54-9.916c-2.256-7.111-5.605-7.014-16.8,2.083-18.062,14.082-19.577,33.265-2.833,32.778,6.7-.195,12.417,3.626,12.247,8.416-.367,10.377-32.706,2.545-50.586-12.087-14.617-12.335-37.166-13.274-45.1-1.879-3.517,4.887,3.9,7.861,15.625,7.521,13.394-.389,21.6,4.157,21.343,11.342-.283,7.983-8.8,12.218-24.7,12.68-25.953.754-42.283,13.191-24.928,19.066,5.8,1.426,8.146,6.143,4.683,9.433s-11.805,2.736-17.5-1.884c-6.5-5.393-13.112-7.594-15.708-5.125-1.759,2.443-3.208-3.894-2.868-13.474,1.148-8.805-2.7-18.263-7.666-19.714-9.933-2.9-32.219,36.024-25.889,46.208,2.4,3.12-1.985,8.83-8.767,11.419-20.347,7.768-24.494-16.832-7.129-34.881,8.683-9.025,13.207-18.726,9.972-21.821s-15.267,6.026-27.5,20.736-27.693,26.324-35.229,26.543-11.053,5.106-8.768,11.419c3.095,7.087-4.808,17.684-18.484,26.056l-23.085,14.228,15.8-21.193c15.833-21.992,11.788-25.861-17.654-21.018-5.89.969-19.867-5.8-30.383-15.864-20.251-18.55-47.992-14.554-40.354,5.958,3.094,7.087.047,22.327-7.019,32.9-9.8,17.031-9.972,21.821-.933,26.343,5.719,3.821,8.756,12.5,6.8,20.536s1.946,15.893,7.722,18.117c8.286,2.152,11.053-5.106,10.254-29.8-1.851-42.212,12.918-57.793,35.624-37.718,8.927,7.715,14.5,15.528,11.909,18-1.732,1.645,2,14.3,8.248,26.874,9.425,17.27,9.951,26.027,2.133,34.229-6.085,6.557-8.07,15.386-4.892,20.078,2.342,4.717-2.794,8.056-12,8.324-10.046.292-17.779,6.1-18.006,12.485-.649,18.36-27.392,41.466-53.571,48.607-13.479,2.784-23.809,11.059-24.034,17.445-.254,7.185-5.362,9.725-12.813,7.549-10.742-3.675-8.9-8.513,8.354-23.369,12.089-10.718,29.2-21.583,38.522-25.043,19.453-6.147,28.446-23.953,21.533-41.3-3.01-9.482-11.3-11.633-32.339-7.832-15.991,2.857-28.493,1.625-30-3.115-2.285-6.313-10.684-5.272-29.357,2.448-17.863,8.494-24.814,15.873-21.833,26.153,4.373,18.214-12.4,19.5-19.255.56-4.6-11.828-6.274-11.78-21.964,6.221-8.71,9.823-14.995,21.967-12.6,25.087s-2.041,10.427-9.8,17.032c-10.329,8.275-15.323,7.623-26.649-3.213-12.134-11.609-12.105-12.408-.526-8.757,21.484,7.35,36.434-36.945,18.722-56.366-19.273-22.566-48.067-36.084-54.266-26.334-3.518,4.887.47,10.353,7.083,12.553,7.449,2.176,13.055,9.19,12.858,14.778s5.436,11.8,12.02,14.8c19.029,5.827,14.419,17.923-9.22,24.192-29.555,8.036-26.885,27.1,5.313,38.921,21.456,8.148,27.063,15.163,25.631,31.951-2.861,33.577-19.944,43.643-25.6,14.3-2.84-14.272-10.008-24.43-16.705-24.236-9.209.268-11.052,5.106-8.1,16.185,3.734,12.651,1.11,15.917-12.285,16.306-10.046.292-17.694,3.7-17.864,8.494a7.584,7.584,0,0,0,8.089,7.74c10.883-.316.912,21.5-12.652,26.684-5.945,2.565-15.963,2.059-21.682-1.762-8.2-4.547-7.138-10.957,6.877-28.909,18.457-25.257,18.552-51.576.135-51.041-15.069.438-32.858,30.461-25.72,41.418,8.7,14.1,8.952,77.891.41,82.924-5.107,2.541-5.832-.628-2.2-8.708,4.554-10.5,2.1-12.023-12.275-7.618-16.076,5.252-16.857,3.68-11.6-26.776,4.083-20.853,2.8-31.98-3.893-31.785-5.024.146-9.493,8.25-9.832,17.83-1.1,31.133-13.189,41.851-33.694,30.485-20.479-12.164-21.9-19.3-3.254-26.222,6.782-2.59,10.356-9.073,8.016-13.79-3.989-5.466-10.771-2.877-21.965,6.221-18.983,16.5-22.06,32.539-6.379,38.464,10.685,5.272-15.907.462-45.733-7.443-12.445-2.828-15.823-1.933-11.891,5.13,3.988,5.466-7.206,14.564-32.717,26.469-42.48,18.779-64.088,38.546-30.263,27.993,11-3.51,25.455-10.309,31.485-15.269,13.762-10.767,29.019,7.131,21.728,24.09-2.737,6.459-4.808,17.684-5.118,26.465-.707,19.957-14.91,19.572-20.9-.19-7.5-24.5-23.6-18.453-41.5,14.763-12.541,23.491-13.631,30.7-4.62,36.02,8.174,5.345,6.359,9.385-8.241,20.176-12.84,8.348-19.99,21.315-20.5,35.684s-6.764,25.715-17.845,31.62c-9.378,5.057-16.941,6.074-16.8,2.083.112-3.193-6.472-6.192-14.007-5.973-8.344-.555-20.816-2.585-27.429-4.785-7.422-2.974-18.5,2.93-29.03,16.793-16.613,20.419-16.641,21.218,2.135,34.229,13.056,9.19,15.369,14.705,7.665,19.714-6.839,4.186-8.937,16.209-6.266,35.271,4.09,26.2,3.2,27.818-7.179,13.765-7.251-7.764-13.582-17.947-15.087-22.688s-7.336-5.369-13.31-2.005c-7.7,5.009-7.845,9-.622,17.562,7.2,9.36,3.79,11.054-25.511,11.906-30.976.9-34.381,2.594-35.031,20.955-.509,14.369-8.325,22.571-30.459,33.581-17,7.671-35.9,21.777-42.9,30.753-10.527,13.863-14.741,14.783-24.476,6.294-10.6-7.667-13.978-6.771-20.4,9.365-7.263,16.16-13.208,18.725-44.1,17.231-26.733-.818-34.353,1.8-32.123,9.706,4.571,12.627,71.659,7.487,89.748-7.393,10.3-7.476,11.053-5.106,6.1,16.569-4.921,20.877-3.445,26.417,6.6,26.125,6.7-.195,9.9,3.7,7.252,7.763-7.958,12.193-26.292,10.334-41.69-3.573-9.707-9.287-15.539-9.916-25-2.463-8.6,6.629-16.16,7.647-28.464.827-13.978-6.771-17.355-5.875-17.722,4.5-.226,6.386,7.11,11.755,16.32,11.488s16.546,5.1,16.32,11.487-3.773,12.072-8.8,12.218c-4.186.121-8.569,5.831-8.8,12.218s-3.772,12.071-8.8,12.217c-4.186.122-8.175-5.345-7.949-11.731s-2.924-11.877-7.947-11.731c-4.185.122-8.542,5.033-8.768,11.419-.2,5.588-6.4,15.338-14.158,21.943-12.031,9.122-12.088,10.719.244,16.74,6.557,3.8,10.488,10.86,7,14.948-3.518,4.887-11,3.509-20.731-4.98-8.926-7.715-15.567-9.117-15.737-4.327-.2,5.588-6.2,9.75-12.9,9.944s-12.417-3.627-12.247-8.416c.141-3.991-3.124-6.289-7.393-3.772-4.3,3.315-5.8-1.426-2.982-10.28,3.772-12.072.509-14.369-18.022-10.641-26.988,6.366-46.29-15.4-38.631-42.737,2.85-9.652,1.458-17.587-3.564-17.441-10.047.292-20.329,30.894-11.319,36.215,4.91,3.047,11.711,23.583,19.507,63.23.7,3.967,1.109,15.917,1.607,25.472.47,10.353,5.211,18.19,12.746,17.971,6.7-.195,12.417,3.626,12.247,8.416-.2,5.588-8.626,7.428-20.233,4.575-15.765-3.529-24.278.705-33.939,13.746-12.258,15.508-12.4,19.5-2.467,22.4,7.451,2.176,1.365,8.732-17.365,18.049-27.242,13.551-28.08,13.576-32.593-.648-2.981-10.28-11.993-15.6-24.55-15.236-15.07.438-19.143-2.633-15.482-11.512,3.63-8.08,17.166-12.461,43.12-13.215,33.487-.974,37.729-2.692,34.052-16.939-2.2-8.708-1.053-17.513,3.218-20.03,10.243-5.88.717-43.881-11.842-43.516-5.86.17-21.24,9.389-33.385,21.7-12.115,11.517-25.737,18.292-31.483,15.269s-6.613-2.2-3.462,3.291c7.111,11.755,32.227,11.025,45.208-1.314s23.5-2.278,11.3,11.634c-14.8,16.379-48.257,16.554-64.379-.521-8.062-8.538-19.527-15.382-26.224-15.187-5.86.17-10.743-3.675-10.573-8.465s-4.769-7.039-10.714-4.474c-5.079,1.743-15.849-1.134-21.455-8.149-10.516-10.061-9.651-10.884,11.109-6.7,18.277,3.456,22.491,2.536,20.4-9.365-1.279-11.127,2.991-13.644,23.027-12.631,34.183,2.994,81.4-7.948,75.883-17.357-3.208-3.894-19.838-6.6-38.256-6.065-17.581.511-32.509-3.042-32.34-7.832.142-3.992-3.123-6.289-7.421-2.974-5.108,2.541-7.422-2.974-6.274-11.78,2.353-19.207,12.427-20.3,34.466-4.989,24.466,17.631,48.828,14.531,42.837-5.232-3.734-12.651-1.109-15.917,16.471-16.428,26.79-.778,30.008-20.809,5.119-26.465-12.445-2.828-22.633,1.455-33.1,13.721-13.961,16.355-15.635,16.4-28.577,4.02-8.118-6.941-17.938-13.035-22.125-12.914-5.022.146-5.719-3.821-3.066-7.885,4.412-6.508,9.435-6.654,16.743-.487,8.146,6.143,11.607,2.852,15.55-14.008,7.828-32.126-6.874-42.066-26.112-18.381-15.719,18.8-16.557,18.823-24.419,4.7-9.454-16.472-12.859-14.778-22.135,11.011-4.582,11.3-3.161,18.433,1.862,18.287s9.039,4.522,8.813,10.908c-.254,7.184-6.2,9.75-17,7.671-19.086-4.23-22.943,10.236-4.78,16.885,23.968,8.076-20.564,61.2-52.377,62.129-12.558.365-.215-17.538,17.648-26.032,11.89-5.13,17.976-11.687,13.875-13.96-12.3-6.819-19.207-48.087-8.323-48.4,5.023-.146,9.463-7.452,9.774-16.233s-2.783-15.868-7.806-15.722c-4.186.121-8.569,5.831-8.8,12.218-.593,16.764-32.915,32.057-46.752,21.3-13-10.787-22.632,1.455-13.123,16.331,5.55,8.611,2.784,15.868-9.219,24.191-23.2,17.421-15.927,48.311,11.7,47.507,10.883-.316,23.187,6.5,27.927,14.34,10.987,20.414,9.81,30.018-2.324,18.409-5.662-5.418-18.916-9.02-29.8-8.7-14.233.414-18.56,4.527-17.225,14.057,1.392,7.934,8.729,13.3,15.454,12.31,6.755-1.791,3.236,3.1-7.064,10.572-11.138,7.5-19.961,20.517-20.244,28.5-.593,16.764,12.66,20.366,18.192,5.851s37.7-1.893,42.075,16.321c2.9,12.675-3.162,18.434-29.454,28.767-29.7,12.027-33.215,16.914-34.062,40.863-.763,21.554-3.416,25.618-15,21.967-9.9-3.7-11.635-2.054-6.895,5.783,4.769,7.039,3.038,8.684-3.518,4.887a13.918,13.918,0,0,1-4.374-18.214c2.766-7.258,3.387-24.82.547-39.092-3.338-23.827-6.6-26.124-25.161-21.6-13.508,3.583-23.5,2.278-27.429-4.785-5.578-7.812-8.927-7.715-20.958,1.407-7.732,5.807-12.229,14.71-9.916,20.225,1.506,4.741-4.5,8.9-13.705,9.17-10.019-.506-19.34,2.955-20.347,7.768-3.688,9.677,33.335,26.942,55.939,26.285s17.881,14.632-6.6,20.925l-21.1,5.4,20.891,24.114c12.83,15.576,17.485,25.808,11.427,31.566-9.52,9.049-37.7,1.893-30.637-8.679,2.625-3.266-2.059-12.7-10.177-19.641-17.853-15.431-28.238-5.559-22.5,21.388,3.621,15.844-.706,19.957-35.454,32.929-31.344,11.278-43.092,12.417-54.558,5.573-20.478-12.164-19.188-24.961,4.123-45.575,15.521-13.211,17.393-18.847,9.191-23.394s-6.415-7.788,6.256-11.346c10.969-2.711,17.948-10.888,18.316-21.266.452-12.772-4.43-16.618-21.173-16.131-19.255.56-20.845-1.786-16.065-18.672,3.8-12.87.847-23.948-7.213-32.486-7.308-6.168-11.042-18.818-8.22-27.672,3.829-13.668,1.345-14.394-22.208-10.519-21.042,3.8-23.526,3.076-10.714-4.473,7.7-5.009,14.74-14.783,14.938-20.371.226-6.386,4.61-12.1,9.634-12.242s7.732-5.807,4.61-12.1c-2.258-7.112.423-11.974,8.795-12.217,7.535-.219,14.815,6.746,17.016,15.454,6.574,26.923,17.8,17.027,16.416-14.831-1.11-15.917,2.052-34.35,8.138-40.907,7.874-9.8,6.227-10.548-8.955-6.917-11,3.509-21.823,2.229-24.194-1.689-2.342-4.717-11.523-5.247-20.816-2.585-20.319,6.97-20.263,5.374,4.281-26.441,11.363-13.887,23.4-23.009,27.469-19.937,3.235,3.1,5.022-.146,2.737-6.459s-.131-19.933,3.585-30.408c5.476-12.918,4.808-17.684-3.563-17.441-13.4.389-35.116,23.349-28.673,30.339,3.264,2.3-4.525,9.7-17.309,16.452-31.512,16.068-32.933,8.932-1.805-19.884,13.875-13.96,26.1-28.67,26.246-32.661s-17.129-12.261-37.861-17.241c-38.115-10.057-65.873-29.187-43.269-29.843,7.563-1.017,6.03-4.96-4.571-12.627-13.865-9.964-14.617-12.334-3.507-19.037,6.838-4.186,17.026-8.469,22.049-8.615,5.86-.17,7.846-9,5.729-20.1-2.614-20.658-17.428-27.4-18.05-9.842-1.063,6.411-5.193,4.936-11.607-2.852-5.579-7.812-20.421-13.761-32.979-13.4-20.092.584-20.873-.989-12.83-15.577,5.333-8.927,14.8-16.379,21.494-16.574,18.418-.535,15.578-14.807-3.338-23.827-20.562-9.77-33.346-3.018-34.109,18.535-.311,8.781-7.318,17.757-17.45,20.444-21.964,6.22-22.416,18.993-.65,18.36,16.744-.487,32.555,25.37,31.623,51.713-.48,13.571-30.676,16.044-38.567,2.716-3.96-6.265-1.42-7.136,8.512-4.235,19.839,6.6,13.734-9.969-7.524-23.705-15.567-9.117-16.433-8.294-17.366,18.049.188,18.336,4.035,27.794,10.732,27.6s9.877,4.5,6.274,11.779c-2.794,8.056,2.868,13.474,20.308,16.954l24.052,5.681-17.874,32.418c-9.831,17.83-15.589,38.731-13.36,46.641,2.981,10.28,1.194,13.522-4.525,9.7-5.748-3.023-15.878-.336-22.774,5.447-8.626,7.428-15.323,7.622-20.985,2.2-6.472-6.192-2.9-12.675,13.349-22.717,12-8.323,22.444-19.792,22.643-25.379.226-6.386,4.582-11.3,8.767-11.419,13.4-.39,10.526-13.863-3.508-19.037-7.449-2.176-20.177,2.979-29.7,12.027-27.693,26.323-36.7,21-28.708-15.912,6.99-32.1,6.21-33.674-12.378-28.349-11,3.509-22.8,6.245-26.15,6.342-12.558.365-7.263,16.161,5.295,15.8,6.7-.194,12.36,5.223,12.134,11.609s-2.907,11.249-6.255,11.346c-16.658-1.908-20.148,2.18-12.144,12.315,4.8,6.24,7.807,15.722,6.772,21.335-1.873,5.637,3.762,11.852,12.077,13.206s14.289-2.01,14.571-9.993a13.778,13.778,0,0,1,13.01-13.137c9.209-.268,8.2,4.546-5.7,19.3-17.393,18.847-19.933,19.718-37.955,9.078-10.629-6.868-23.1-8.9-29.075-5.535-7.676,4.21-8.373.244-3.621-15.844,6.624-21.724,1.742-25.569-18.775-13.011-6,4.162-8.767,11.419-5.588,16.111,3.151,5.491.328,14.345-4.921,20.877-9.576,10.645-13.762,10.767-34.268-.6-13.112-7.594-21.954-17.7-20.082-23.34,2.709-5.661,2.069-11.225-2.031-13.5-4.91-3.047-76.551,12.592-84.284,18.4-1.731,1.645,5.38,13.4,14.946,26.679l17.542,24.211-40.1-1.227c-22.546-.94-46.6-6.621-53.908-12.788s-19.527-15.381-26.92-19.154c-13.141-6.8-23-59.141-12.113-59.457,17.552.287,26.225,15.187,20.467,36.088-4.779,16.886-4.055,20.054,2.088,11.9,7.874-9.8,14.514-8.4,42.356,8.339,25.359,16.009,33.647,18.161,33.986,8.582.226-6.387-4.6-11.828-10.46-11.658-15.069.438-38.443-24.4-37.906-39.569.227-6.386,10.668-17.854,22.615-24.581,17.948-10.888,28.022-11.979,46.215-6.128,19,6.625,26.563,5.608,39.517-5.933,8.625-7.428,20.572-14.155,25.6-14.3,5.86-.17,10.159-3.485,10.3-7.477.509-14.369-12.83-15.576-36.666-3.719-21.325,11.784-22.971,11.035-30.608-9.478-5.352-14.2-4.956-25.375,1.243-35.124,7.037-9.774,4-18.458-10.478-34.784-16.9-18.648-20.2-20.147-25.641-8.027-8.242,20.176-20.686,17.348-19.867-5.8.48-13.571,5.729-20.1,14.938-20.37,10.883-.316,11.805-2.736,5.334-8.927-14.561-13.931-35.914-1.349-36.706,21-.4,11.176,8.972,30.043,20.269,41.677,19.329,20.969,20.167,20.945,15.793,2.731-3.706-13.449-2.727-17.465,5.56-15.313,19.029,5.827,11.672,48.306-11.724,71.314-20.8,20.541-22.5,21.388-54.756,11.161-18.22-5.053-42.357-8.339-54.106-7.2-31.088,4.093-26.168-16.784,8.778-35.343,32.406-17.688,55.536-9.588,46.232,17-3.659,8.878-2.211,15.216,1.975,15.094,8.372-.243,40.449-32.276,35.539-35.324-22.1-13.712-99.134-34.6-125.924-33.821-11.72.341-24.137-3.286-26.508-7.2-3.179-4.692-9.848-5.3-14.984-1.957-5.945,2.565-3.292-1.5,4.553-10.5,9.576-10.645,12.4-19.5,7.658-27.336-9.509-14.875-22.491-2.536-27.637,24.727-4.31,27.239-36.264,32.155-62.206,8.985-20.28-17.752-37.945-14.847-21.879,3.826,13.667,15.552,2.585,21.456-20.517,12.558-29.658-12.7-25.207-43.925,6.973-55.228,14.4-5.2,25.511-11.906,25.652-15.9.452-12.773-46.684-4.225-61.425,10.557-14.769,15.581-36.479,14.617-26.762-.02,2.653-4.064-2.812-15.07-12.519-24.357-12.943-12.383-14.419-17.923-6.715-22.931,8.541-5.033,8.8-12.218,2.72-29.585-3.706-13.449-5.511-33.333-2.6-44.582,2.936-12.047,1.6-21.578-2.586-21.456-10.884.316-31.092,75.067-22.194,83.581,4.045,3.87,4.628,11.03,2.756,16.666-2.71,5.661-1.29,12.8,3.621,15.844,15.6,8.319,9.255,22.06-8.157,17.781-9.124-2.127-18.361-1.061-21.014,3-6.171,8.952,17.485,25.808,26.892,19.952,5.108-2.541,12.529.433,18.164,6.649s18.832,11.415,29.714,11.1c20.93-.608,26.395,10.4,11.015,19.617-5.136,3.339-6.98,8.177-4.61,12.1,2.4,3.12-4.468,8.1-14.6,10.791-21.965,6.22-31.785.126-16.405-9.093,18.786-10.913,3.7-33.6-19.1-27.356-12.671,3.558-20.149,2.18-19.951-3.407.4-11.176-35.6-10.13-47.719,1.387-10.385,9.871-27.74,4-27.288-8.776.17-4.79,7.733-5.807,18.5-2.93,17.412,4.279,17.44,3.48,7.817-8.2-9.65-10.884-9.509-14.875-.94-20.707,6.811-3.388,8.739-10.621,5.588-16.112s-.555-7.958,6.923-6.581,13.423-1.188,14.4-5.2c.169-4.79-5.549-8.611-12.218-9.214-16.659-1.908-38.641-18.813-32.583-24.572,5.193-4.936-19.743-32.92-29.789-32.627-3.349.1-6.9,5.783-7.122,12.169s5.437,11.8,12.971,11.585c8.372-.243,11.579,3.651,7.948,11.731-2.766,7.257-.706,19.957,4.843,28.568,7.891,13.327,6.913,17.343-5.118,26.465-8.57,5.832-12.982,12.339-11.392,14.686,2.427,2.322-4.525,9.7-14.8,16.379-19.679,12.534-19.679,12.534-18.606-17.8.819-23.15,4.507-32.827,15.5-36.336,22.83-7.043,9.134-21.8-15.313-16.3-14.316,2.808-26.7-1.616-40.456-14.774-12.943-12.383-25.331-16.808-34.653-13.347-11.862,4.332-12.67,3.558-3.179-4.693,13.01-13.137,14.214-23.539.819-23.15-5.023.146-21.456-8.148-36.939-19.66-14.674-10.738-27.814-17.533-27.9-15.139-.95,3.218-2.014,9.628-3.02,14.442-1.29,12.8-49.15,18.175-57.07,5.646-3.178-4.692-8.146-6.143-12.444-2.828-3.49,4.089-2.822,8.854,2.088,11.9,11.438,7.642,7.344,52.419-5.75,67.952-6.952,7.379-18.033,13.283-25.539,12.7-32.565-1.446-43.618,3.66-44.155,18.827-.48,13.571,5.295,15.8,32.085,15.017,18.418-.535,35.857,2.945,38.2,7.662,8.729,13.3,2,14.3-42.085,7.6-59.044-9.448-79.55-20.814-73.068-38.547,5.617-16.91-4.345-19.013-20.76-4.182-8.682,9.025-12.812,7.549-21.6-4.157-13.61-17.148-8.135-30.067,11.844-27.458,7.478,1.378,15.211-4.429,17.2-13.259s.452-12.772-5.521-9.409c-5.136,3.339-9.266,1.864-9.124-2.127.452-12.772,48.087-11.764,52.658.862,2.314,5.515.329,14.345-4.864,19.28-8.654,8.226-3.416,25.618,7.468,25.3,12.558-.365,25.567-13.5,31.184-30.412,5.56-15.313,2.381-20.006-14.137-25.905-28.934-9.526-26.779-23.145,3.359-24.021,15.069-.438,29.527-7.238,36.507-15.415,7.9-10.6,23.141-15.824,49.122-17.377,73.756-4.536,88.1-8.143,88.525-20.117.509-14.369-38.086-10.855-73,6.906-20.431,10.163-23.78,10.261-31.7-2.269-6.358-9.385-10.516-10.061-13.253-3.6-2.709,5.661-14.6,10.791-27.157,11.156-11.72.341-30.421,8.859-41.643,18.754s-19.708,13.332-19.51,7.744S1594,1032.1,1577.484,1026.2c-22.265-8.923-27.927-14.34-23.374-24.839,3.6-7.282,8.3-21.773,9.474-31.376,2.013-9.628,5.758-20.9,8.439-25.764a7.7,7.7,0,0,0-2.088-11.9c-4.1-2.273-16.217,9.243-27.694,26.324-33.508,48.821-34.6,56.03-17.556,70.686,15.426,13.109,20.4,61.609,5.885,70.005-11.975,7.525-17.411-4.278-6.941-16.545,5.221-5.734,7.15-12.967,4.723-15.289s-8.485,3.436-14.656,12.388c-5.362,9.725-14.826,17.177-20.686,17.348s-17.835,7.7-26.518,16.72c-30.375,31.186-60.033,18.491-55.187-23.915,1.261-12-.883-22.3-5.907-22.157-16.743.486-6.8-20.536,18.015-36.409,34.25-22.527,38.118-60.917,6.305-59.993-11.721.341-21.043,3.8-21.213,8.591-.141,3.991,3.9,7.861,8.089,7.739,5.023-.146,8.259,2.95,8.089,7.74-.141,3.991-22.021,7.817-48.783,7.8-33.459.175-55.367,4.8-69.073,13.969-11.138,7.5-28.023,11.979-37.984,9.876-14.119-2.779-20.092.584-23.865,12.655-2.907,11.249-11.42,15.484-29.838,16.019-18.39-.263-24.137-3.286-20.506-11.366s-.47-10.353-14.758-8.343c-10.912,1.115-36.808.272-55.922-3.16-23.3-3.31-40.072-2.025-45.264,2.91-6.058,5.758-17.722,4.5-36.666-3.719-33.731-15.767-35.123-23.7-3.112-30.213,21.071-4.6,24.589-9.487,25.267-28.645.123-27.117-9.838-29.22-23.215-5.705-13.292,21.12-44.155,18.827-54.163-5.6-6.189-14.174-13.611-17.149-32.922-14.992-20.149,2.18-24.25-.093-22.18-11.317,1.957-8.032-1-19.11-5.793-25.351-12.049-14-41.661-4.371-42.311,13.989s-21.636,20.565-28.577,4.02c-2.286-6.313-10.46-11.658-17.994-11.439-13.395.389-13.423,1.187-.537,15.167,17.74,18.623,4.871,27.77-24.872,17.47-11.579-3.651-24.024-6.479-27.4-5.583s-12.5-1.232-20.732-4.98c-14.034-5.174-14.006-5.973.565-15.966,7.732-5.807,19.538-8.542,26.179-7.14,19,6.625,89.928-36.107,82.036-49.434-2.37-3.918-7.365-4.571-11.636-2.054s-16.715-.312-28.182-7.156c-18.831-11.415-20.506-11.366-29.386,3.246-14.243,24.338-34.5,29.711-27.881,7.987,4.779-16.886,3.942-16.861-15.991,2.857-12.982,12.339-17.535,22.838-12.625,25.885,4.882,3.845,4.712,8.635-3.077,16.039s-10.3,7.476-10.046.292c.17-4.79-7.891-13.327-17.768-17.825-14.787-7.545-19.866-5.8-29.5,6.439-14.91,19.572-61.068,24.1-67.981,6.761-2.257-7.111-11.823-20.39-20.665-30.5-14.448-17.124-16.959-17.051-31.643-3.865s-17.2,13.259-29.3.851c-10.516-10.062-12.021-14.8-3.366-23.029,15.578-14.807,13.349-22.717-7.581-22.108-13.395.389-15.822-1.933-8.9-8.514,5.193-4.936,8.071-15.386,5.814-22.5-2.116-11.1-12.886-13.98-45.508-13.829-41.831.418-65.742-9.254-52.76-21.593,3.462-3.291,12.614-1.962,20.816,2.585,12.3,6.82,19,6.625,30.167-1.674,11.138-7.5,12.982-12.339,5.588-16.111-4.91-3.047-14.985-1.957-21.014,3-8.6,6.63-13.621,6.776-20.845-1.786-13.639-16.35,10.367-33,32.576-22.478,18.888,9.818,33.929,10.178,34.24,1.4.113-3.193-14.674-10.738-32-17.411-30.524-11.873-33.872-11.775-46.045,1.338-11.307,12.29-13.988,17.153-14.44,29.926-.113,3.193-15.4-13.907-33.834-36.5-19.245-23.365-46.607-53.67-60.3-68.424-19.358-20.172-24.794-31.975-20.965-45.644,4.694-14.49,2.324-18.409-11.071-18.02-9.209.268-20.732-4.98-26.366-11.2-12.049-14-30.382-15.864-18.333-1.86,23.233,28.831,6.684,94.7-17.414,66.7-4.8-6.24-22.124-12.914-37.917-15.645-15.822-1.932-25.67-7.229-23.017-11.293s-1.42-7.136-8.118-6.941c-7.535.219-13.254-3.6-13.084-8.392s6.924-6.581,16.02-3.655c8.287,2.151,20.121-1.382,26.235-8.737,13.066-14.734,11.477-17.08-15.9-23.462-16.6-3.5-22.576-.141-29.753,13.624-9.915,20.225-30.347,30.388-29.81,15.221.2-5.588,9.022-18.6,19.435-29.273,14.741-14.782,16.641-21.218,9.361-28.183-12.943-12.383-44.756-11.459-58.575.9C73.863,527.624,64.484,532.681,60.3,532.8c-10.883.316-8.248-26.874,3-37.568,15.578-14.807,3.726-34.4-19.715-33.718-14.232.414-20.76-4.182-20.421-13.761-.583-7.16-.94-20.707-1.466-29.463s2.72-29.585,6.662-46.446c7.912-34.52-6.9-41.267-16.461-7.5C8.1,377.221.893,391.785-4.356,398.317c-6.98,8.177-22.28,345.947-54.611,1212.13l-44.141,1199.864,521.088,41.1,1922.17-100.737L5757.167,2640l49.077-1386.613C5849.3,36.805,5853.562-130.785,5842.2-116.9c-17.479,21.242-16.019,3.655,1.517-19.183,7.036-9.774,12.567-24.289,11.174-32.223C5852.747-178.609,5851.044-177.762,5846.321-162.473ZM5668.508,88.312c-6.924,6.581-30-3.115-29.659-12.695.2-5.588,5.223-5.734,17.583-.511C5665.441,80.427,5671.1,85.845,5668.508,88.312Zm-127.036,21.236c2.37,3.918.5,9.555-4.638,12.894-4.271,2.517-8.344-.555-8.119-6.941C5529.224,101.132,5534.333,98.591,5541.472,109.548Zm36.8,23.652c-.141,3.991-6.143,8.153-13.677,8.372-6.7.195-9.9-3.7-7.252-7.764a17.317,17.317,0,0,1,13.678-8.372C5575.2,125.315,5578.438,128.41,5578.269,133.2ZM5484.847,244.37c-26.6,19.115-38.99,14.69-22.293-8.124,11.449-16.282,16.558-18.823,25.513-11.906C5497.829,232.031,5496.879,235.248,5484.847,244.37ZM5314.5,260.485a8.862,8.862,0,0,1-8.654,8.226c-4.187.122-8.231-3.748-8.09-7.739.17-4.79,4.469-8.1,8.655-8.226C5311.438,252.6,5314.673,255.695,5314.5,260.485Zm-65.312,25.822c-2.82,8.854-8.014,13.79-12.144,12.315-8.174-5.345.152-27.916,10.2-28.208C5251.433,270.292,5252.016,277.453,5249.193,286.306Zm61.5,10.972c2.286,6.313.272,15.941-5.785,21.7-6.924,6.581-9.407,5.856-9.04-4.522.255-7.184-2.867-13.473-7.892-13.327-4.186.122-8.23-3.748-8.088-7.74C5280.339,280.617,5305.314,283.878,5310.692,297.279Zm67.96,41.088c-.311,8.781-3.913,16.063-8.936,16.209-4.186.122-8.118-6.941-7.807-15.722s4.751-16.087,8.938-16.209C5375.871,322.5,5378.963,329.585,5378.653,338.366Zm-117.627,15.38c-.227,6.386-3.773,12.072-7.958,12.193-10.885.316-17.966-12.237-11.043-18.818C5251.543,338.073,5261.449,341.772,5261.025,353.747Zm-150.977,12.362c-.227,6.386-6.284,12.144-12.98,12.339-7.535.219-9.878-4.5-7.111-11.755,3.574-6.484,8.795-12.218,12.98-12.339S5110.274,359.723,5110.049,366.109Zm56.092-1.63c-.169,4.79-4.78,16.885-11.873,28.256-11.476,17.08-12.342,17.9-7.619,2.614,2.851-9.652,1.515-19.183-3.4-22.23-4.1-2.273-8.087-7.74-7.975-10.933C5135.589,353.4,5164.776,355.746,5166.141,364.479Zm127.552,11.445c-.085,2.395-3.574,6.483-8.683,9.024-4.271,2.516-8.4,1.042-8.258-2.95.17-4.79,4.5-8.9,8.683-9.025C5290.458,372.828,5293.75,374.327,5293.692,375.924Zm-37.825,29.01c-3.519,4.887-12.031,9.122-18.729,9.316-10.046.292-9.961-2.1-1.109-15.917,6.17-8.951,13.847-13.162,17.891-9.292S5258.548,400.071,5255.868,404.934ZM5125.1,413.519c17.741,18.624,18.493,20.994,4.674,33.357-13.01,13.138-14.628,11.59-26.225-15.187-6.134-15.771-11.456-30.768-11.371-33.163C5092.514,388.947,5107.329,395.694,5125.1,413.519ZM93.521,562.938c-10.7,18.652-25.267,28.645-31.739,22.454-5.662-5.418,23.066-37.354,33.95-37.67C99.918,547.6,98.827,554.81,93.521,562.938ZM5078.375,434.016c2.341,4.717-2.936,12.047-12.314,17.1-17.892,9.292-30.919-.7-21.2-15.333C5051.924,425.215,5072.016,424.631,5078.375,434.016ZM91.515,619.616a8.862,8.862,0,0,1-8.654,8.226c-4.186.122-8.231-3.748-8.089-7.739.17-4.79,4.468-8.1,8.654-8.226C88.449,611.731,91.685,614.827,91.515,619.616ZM5038.385,500.57c-.141,3.991-6.116,7.355-12.813,7.549-12.558.365-16.4-9.093-6.884-18.142C5025.611,483.4,5038.751,490.192,5038.385,500.57ZM4935,538.663c-2.6,2.468-7.479-1.378-9.708-9.287-4.627-11.03-3.761-11.853,4.356-4.912C4935.315,529.882,4937.6,536.195,4935,538.663ZM89.481,677.092c-.2,5.588-3.886,15.265-8.3,21.773-9.689,13.839-20.845-1.786-13.554-18.745C74,665.58,89.961,663.522,89.481,677.092ZM4911,555.31c-.226,6.386-6.285,12.144-12.981,12.339-21.768.633-14.5-15.527,11.7-23.466C4910.586,543.36,4911.225,548.923,4911,555.31ZM4815.353,587.6c22.706,20.074,23.2,29.629,1.437,30.262-9.208.268-16.574-4.3-16.348-10.689.254-7.185-5.522-9.409-16.489-6.7-9.295,2.662-17,7.671-17.14,11.663s-7.789,7.4-17,7.671c-14.232.414-14.147-1.981,7.518-23.345C4785.976,566.918,4791.027,565.973,4815.353,587.6ZM376.772,735.73c24.324,21.622,28.312,27.088,14.946,26.679-36.723-2.123-44.371,1.29-40.75,17.134,5.154,19.787.968,19.908-20.958,1.406-17.881-14.632-23.392-47.965-8.323-48.4,5.023-.146,8.57-5.831,8.8-12.217C331.133,701.968,341.875,705.643,376.772,735.73ZM4947.485,587.742c-3.631,8.08-7.375,19.354-7.545,24.143-1.374,15.192-6.312,12.943-13.112-7.594-7.638-20.512-3.979-29.39,14.439-29.925C4950.478,574.1,4952.011,578.041,4947.485,587.742Zm-67.833,49.819c-9.52,9.049-15.737-4.327-8.531-18.891,7.177-13.765,7.177-13.765,10.047-.292C4883.4,626.288,4882.249,635.093,4879.653,637.561Zm246.189-8.75c-.141,3.991-4.272,2.516-8.231-3.748s-7.809-15.722-7.667-19.714c.17-4.79,4.271-2.517,8.23,3.748S5126.011,624.022,5125.842,628.812ZM4803.1,650.153c2.37,3.918,1.392,7.934-3.631,8.08-4.186.122-10.743-3.675-13.112-7.593-2.342-4.717-1.393-7.934,3.631-8.08C4794.176,642.438,4800.76,645.436,4803.1,650.153ZM213.978,845.726c-10.357,9.073-13.225-4.4-6.433-30.914l7.658-27.336,1.579,26.27C217.92,828.864,216.6,842.459,213.978,845.726Zm4357.006-135.4c-.367,10.378-2.878,10.451-12.643,2.76-6.5-5.393-12.1-12.408-11.963-16.4s6.029-4.96,12.642-2.76C4565.6,696.928,4571.209,703.942,4570.984,710.329Zm42.2-10.8c-.226,6.386-3.772,12.072-8.8,12.218-4.185.122-8.174-5.345-7.948-11.731s4.61-12.1,8.8-12.217C4610.257,687.656,4613.408,693.147,4613.182,699.533Zm155.678,20.2c-2.6,2.468-10.159,3.485-15.935,1.261-6.613-2.2-4.017-4.668,5.192-4.936C4767.354,714.989,4772.294,717.238,4768.859,719.73ZM507.038,859.537c-2.6,2.468-10.159,3.485-15.935,1.261-6.613-2.2-4.016-4.668,5.193-4.936C505.533,854.8,510.471,857.045,507.038,859.537ZM4536.225,747.225c-.142,3.991-.48,13.571-.791,22.352-.339,9.579-6.425,16.136-13.959,16.355-9.21.268-12.388-4.425-8.645-15.7,2.823-8.854,1.4-15.99-2.783-15.868a6.792,6.792,0,0,1-7.28-6.966c.113-3.193,7.761-6.6,16.942-6.075C4528.917,741.057,4536.337,744.032,4536.225,747.225Zm196.513.669c-8.684,9.024-19.821,16.525-24.006,16.647-5.023.146-1.421-7.136,7.263-16.16s19.819-16.525,24.006-16.647C4745.022,731.587,4741.419,738.869,4732.737,747.893ZM165.627,888.6a8.862,8.862,0,0,1-8.654,8.226c-4.186.122-8.231-3.748-8.089-7.739.17-4.79,4.469-8.1,8.654-8.226C162.561,880.713,165.8,883.809,165.627,888.6ZM4636.178,758.674c-.141,3.991-6.143,8.153-12.84,8.348s-12.417-3.626-12.275-7.618c.169-4.79,6.144-8.153,12.84-8.348S4636.348,753.884,4636.178,758.674ZM4559.815,789.6c-.226,6.386-3.687,9.677-8.626,7.428-4.1-2.273-8.089-7.739-7.919-12.529.142-3.991,4.439-7.306,8.625-7.428C4556.918,776.927,4560.069,782.417,4559.815,789.6Zm192.41-1.6c-.169,4.79-3.546,5.685-8.484,3.437-4.1-2.273-8.061-8.538-7.919-12.529.169-4.79,4.383-5.71,8.483-3.436C4749.244,777.717,4752.366,784.006,4752.225,788Zm-109.4,19.129c-.169,4.79-3.546,5.685-8.484,3.436-4.1-2.273-8.061-8.538-7.92-12.529.169-4.79,4.383-5.71,8.485-3.437C4639.845,796.845,4642.967,803.134,4642.826,807.126ZM916.972,926.572c-.226,6.386-3.773,12.072-8.8,12.218-4.186.122-8.174-5.345-7.948-11.731s4.61-12.1,8.8-12.217C914.046,914.7,917.2,920.186,916.972,926.572Zm3775.295-98.554c10.149,20.439,10.008,24.43-3.387,24.82-15.907.462-29.573-15.09-24.1-28.008C4671.206,808.693,4682.841,810.748,4692.266,828.018Zm83.973-9.618c-.141,3.991-6.979,8.177-14.514,8.4-12.558.365-13.339-1.207-2.23-7.91C4775.741,808.845,4776.579,808.821,4776.239,818.4Zm-302.375,36.7c-.226,6.386-6.284,12.144-12.981,12.339-13.395.389-16.4-9.093-6.048-18.166C4464.383,839.425,4474.316,842.327,4473.864,855.1ZM559.926,972.037c2.342,4.717-.678,19.159-7.047,33.7L541.12,1030.8l.321-32.705C541.706,966.984,549.608,956.388,559.926,972.037ZM4523.954,857.63c-.141,3.992-4.468,8.1-9.491,8.25-4.186.122-5.719-3.821-3.066-7.885,2.682-4.863,6.98-8.177,9.492-8.25C4522.563,849.7,4524.124,852.841,4523.954,857.63ZM839.619,985.44c-.226,6.386-3.744,11.273-8.767,11.419-4.186.122-8.118-6.941-7.779-16.521.311-8.781,4.666-13.693,8.768-11.419C836.779,971.168,839.845,979.054,839.619,985.44Zm121.844-16.3c2.37,3.919-1.12,8.007-7.817,8.2-7.535.219-13.254-3.6-13.112-7.594a8.124,8.124,0,0,1,7.817-8.2C953.373,961.4,959.12,964.423,961.463,969.139ZM4435.739,868.966c8.729,13.3-1.431,16.788-12.671,3.558-6.443-6.99-6.273-11.78-1.25-11.926S4433.4,864.25,4435.739,868.966ZM898.889,988.5c-.978,4.016-1.317,13.595-1.628,22.376-.65,18.361-24.2,22.235-30.28,4.867-6.913-17.343,4.677-37.616,18.8-34.837C893.255,982.286,899,985.309,898.889,988.5Zm3320.818-88.536c-5.5,13.717-31.1,28.017-38.352,20.253-3.235-3.1,1.232-11.2,9.831-17.83C4211.759,888.235,4224.346,887.072,4219.708,899.966Zm76.823,3.349c-.17,4.79-3.688,9.677-8.825,13.016-4.27,2.517-6.2,9.75-3.075,16.038,4.513,14.223-7.263,16.16-20.207,3.777-7.279-6.966-7.082-12.553.848-23.948C4275.883,895.941,4296.982,890.543,4296.531,903.315Zm-3316.5,108.347c6.415,7.788,7.082,12.554.244,16.74-13.677,8.372-41.746-1.976-41.266-15.547C939.516,998.486,967.98,997.659,980.029,1011.663ZM4371.595,909.109c-.17,4.79-3.717,10.475-8.824,13.016-4.271,2.516-8.345-.555-8.118-6.941.254-7.185,4.638-12.894,8.824-13.016C4368.5,902.021,4371.736,905.117,4371.595,909.109Zm-134.514,19.858c-.169,4.79-3.717,10.475-8.824,13.016-4.271,2.517-8.852,13.814-9.22,24.192-.876,24.747-16.228,33.167-32.406,17.688-12.134-11.609-12.105-12.407,2.126-12.821,12.557-.365,13.479-2.784,6.255-11.346-8.06-8.538-5.379-13.4,10.058-24.216C4227.345,920.478,4237.448,918.589,4237.081,928.967Zm86.841,3.856c6.912,17.343-5.175,28.062-20.743,18.944-9.82-6.094-9.764-7.691-.555-7.958,5.862-.17,9.379-5.057,6.285-12.145-2.288-6.313-.415-11.95,2.934-12.047C4316.03,919.5,4321.665,925.711,4323.921,932.823Zm-2929.7,96.308c9.51,14.875-3.133,17.635-22.745,4.648l-17.966-12.237,17.581-.511C1381.142,1020.739,1391.884,1024.414,1394.226,1029.131Zm-335.409,24.9c-2.625,3.266-12,8.324-21.3,10.986-14.345,3.606-15.126,2.034-7.977-10.933,5.306-8.129,14.684-13.186,21.3-10.986C1057.425,1046.1,1061.441,1050.765,1058.816,1054.031ZM1346,1044.887a174.4,174.4,0,0,0,28.877,11.123c22.378,5.729,15.811,25.857-12.992,36.263-23.7,7.866-25.37,7.915-19.838-6.6,4.61-12.1.65-18.36-15.839-25.058-14.844-5.948-18.023-10.641-10.319-15.649C1329.565,1036.593,1328.728,1036.617,1346,1044.887Zm251.953,17.4c-.141,3.991-4.525,9.7-10.5,13.064-10.272,6.678-32.809-18.185-25.716-29.556C1567.042,1037.666,1598.318,1051.908,1597.951,1062.286Zm-515.732,15.786c-2.653,4.064-8.569,5.831-12.643,2.76a7.7,7.7,0,0,1-2.088-11.9c2.653-4.064,8.569-5.831,12.643-2.76A7.7,7.7,0,0,1,1082.219,1078.072Zm151.35,24.31c-9.52,9.049-15.737-4.328-8.531-18.891,7.178-13.765,7.178-13.765,10.046-.292C1237.313,1091.109,1236.165,1099.914,1233.569,1102.382Zm-184.039,1.361c1.862,18.288-1.487,18.385-22.519-1.738l-16.987-16.253,19.142,2.634C1039.155,1089.69,1048.11,1096.607,1049.53,1103.743Zm3360.505-99.259c-.142,3.991-4.469,8.1-9.492,8.251-4.186.122-5.72-3.821-3.067-7.886,2.681-4.863,6.98-8.177,9.492-8.25C4408.643,996.55,4410.2,999.694,4410.035,1004.484Zm185.515,4.178c-6.058,5.758-10.272,6.678-10.1,1.889.4-11.176,10.78-21.047,16.443-15.63C4603.48,997.267,4600.743,1003.726,4595.55,1008.662Zm-2805.4,81.531c11.551,4.449,24.494,16.832,29.15,27.064,7.807,15.723,6.048,18.166-6.51,18.531-9.209.268-18.277-3.456-21.456-8.148-3.96-6.264-8.2-4.546-13.536,4.381-11.533,18.677-26.518,16.72-19.17-1.835,3.744-11.273.65-18.36-11.682-24.382C1708.307,1086.99,1748.135,1072.276,1790.153,1090.193Zm2349.32-49.935c4.626,11.03,5.991,19.762,2.642,19.859-10.046.292-26.14-17.582-25.744-28.758C4116.993,1013.8,4130.189,1019,4139.474,1040.258ZM1010.4,1122.424c-.085,2.4-3.575,6.484-8.682,9.025-4.271,2.516-8.4,1.041-8.259-2.95.169-4.79,4.5-8.9,8.683-9.024C1007.162,1119.329,1010.454,1120.828,1010.4,1122.424Zm-243.235,19.829a8.862,8.862,0,0,1-8.654,8.226c-4.186.121-8.23-3.748-8.089-7.74.169-4.79,4.468-8.1,8.654-8.226C764.1,1134.367,767.333,1137.463,767.163,1142.253Zm142.151.653c-.226,6.386-3.688,9.677-8.626,7.428-4.1-2.273-8.089-7.74-7.92-12.529.141-3.992,4.44-7.306,8.626-7.428C906.418,1130.231,909.569,1135.722,909.315,1142.906Zm192.721-10.386c-.141,3.991-6.143,8.153-12.84,8.348s-12.417-3.626-12.275-7.618c.169-4.79,6.143-8.153,12.84-8.348S1102.205,1127.731,1102.036,1132.521Zm200.076,18.109c-.141,3.991-6.143,8.153-12.84,8.348s-12.417-3.627-12.275-7.618c.17-4.79,6.143-8.153,12.84-8.348S1302.281,1145.84,1302.112,1150.63Zm555.154,4.6c6.076,17.368,6.019,18.964-5.616,16.91-5.832-.628-10.216,5.082-10.5,13.065,1.053,17.513-13.066,14.734-24.918-4.858-7.167-10.159-5.3-15.8,7.6-25.74C1845.274,1139.629,1851.134,1139.458,1857.266,1155.229Zm41.736,25.9c2.37,3.918.554,7.958-3.631,8.08-5.023.146-9.068-3.723-8.927-7.715.17-4.79,1.957-8.031,3.631-8.08C1892.587,1173.342,1896.66,1176.414,1899,1181.13Zm2122.425-66.468c-.057,1.6-6.058,5.758-13.678,8.372-6.782,2.59-10.1,1.889-7.421-2.974C4005.635,1111.932,4021.653,1108.277,4021.427,1114.663Zm-2219.436,90.02c-.226,6.386-4.525,9.7-8.627,7.428-4.91-3.047-6.386-8.586-3.733-12.651C1797.562,1188.066,1802.5,1190.314,1801.991,1204.683Zm2302.419-71.7a8.862,8.862,0,0,1-8.653,8.226c-4.187.122-8.232-3.748-8.09-7.74.169-4.789,4.469-8.1,8.655-8.226C4101.345,1125.1,4104.581,1128.2,4104.411,1132.985Zm-96.427,30.714c2.115,11.1,7.665,19.714,11.85,19.592s7.422,2.974,7.252,7.764c-.48,13.571-17.892,9.292-33.148-8.606-8.033-9.336-11.767-21.987-9.894-27.624C3991.335,1137.866,4002.886,1142.315,4007.984,1163.7ZM1449.7,1234.061c-.141,3.991-1.957,8.032-3.631,8.08-2.511.073-6.556-3.8-8.927-7.716-2.342-4.717-.554-7.958,3.631-8.08C1445.793,1226.2,1449.866,1229.271,1449.7,1234.061Zm-91.885,44.138c-5.193,4.936-12.784,6.751-16.019,3.655s-.527-8.757,6.312-12.943C1364.35,1258.87,1370.793,1265.86,1357.812,1278.2Zm627.886-18.248c-6.058,5.758-10.272,6.678-10.1,1.888s2.907-11.249,6.34-13.741c2.625-3.266,7.676-4.21,10.1-1.888C1993.629,1248.557,1990.891,1255.016,1985.7,1259.951Zm179.316,13.928c-3.97,17.659-2.324,18.409,27.956,13.542,18.531-3.728,32.707-2.546,32.566,1.446s-17.864,8.494-38.85,10.7c-34.381,2.594-37.673,1.095-32.141-13.42,3.744-11.273.593-16.764-13.469-21.14-18.221-5.053-18.221-5.053-2.116-11.1C2162.683,1245.238,2170.829,1251.381,2165.014,1273.879ZM2345.8,1246.3c9.068,3.724,11.382,9.238,6.97,15.746s-9.577,10.645-12.925,10.743c-20.817-2.585-29.33,1.65-25.483,11.108,5.352,14.2-27.948,33.508-35.058,21.753-3.18-4.692-9.849-5.3-14.985-1.957-5.974,3.363-5.023.146,1.957-8.031,6.115-7.355,17.223-14.057,23.084-14.228,6.7-.195,11.862-4.332,12-8.323.311-8.781-10.488-10.86-37.391-6.888-24.363,3.1-5.38-13.4,21.58-18.969C2316.725,1240.762,2330.091,1241.17,2345.8,1246.3ZM1833.1,1270.766c-.141,3.991-1.957,8.031-3.631,8.08-2.512.073-6.557-3.8-8.927-7.715-2.342-4.717-.555-7.958,3.631-8.08C1829.2,1262.9,1833.275,1265.976,1833.1,1270.766Zm401.565-3.7c-.141,3.991-1.957,8.031-3.631,8.08-2.512.073-6.556-3.8-8.926-7.715-2.342-4.717-.555-7.958,3.631-8.08C2230.767,1259.209,2234.839,1262.28,2234.67,1267.07Zm1773.978-27.632c-.141,3.991-4.469,8.1-9.491,8.25-4.187.122-5.719-3.821-3.067-7.885,2.681-4.863,6.98-8.177,9.492-8.25C4007.257,1231.5,4008.818,1234.648,4008.648,1239.438Zm-2487,88.227c-.141,3.992-4.468,8.1-9.491,8.251-4.186.122-5.719-3.821-3.067-7.885,2.681-4.863,6.98-8.177,9.492-8.25C1520.261,1319.731,1521.822,1322.875,1521.653,1327.665Zm2397.962-53.741c2.37,3.918-1.12,8.007-8.655,8.226s-10.742-3.675-8.089-7.739c2.681-4.863,6.979-8.177,8.654-8.226S3917.271,1269.207,3919.614,1273.924ZM2332.731,1332c-.481,13.571-2.183,14.418-21.184,7.793-10.742-3.675-11.494-6.046-2.088-11.9C2325.733,1317.056,2333.211,1318.434,2332.731,1332Zm33.345,3.018c-.141,3.991-3.631,8.08-7.817,8.2-5.023.146-10.742-3.675-13.113-7.594-2.342-4.717,1.12-8.007,7.818-8.2C2360.5,1327.21,2366.246,1330.233,2366.076,1335.022Zm492.9-8.743c-.141,3.991-3.829,13.668-8.326,22.571-7.206,14.564-8.014,13.79-7.308-6.167-.414-11.95,4.112-21.651,8.3-21.773C2856.665,1320.765,2859.929,1323.062,2858.978,1326.28Zm1164.436-31.449c-.141,3.991-1.957,8.031-3.631,8.08-2.512.073-6.556-3.8-8.926-7.715-2.342-4.717-.555-7.958,3.631-8.08C4019.51,1286.97,4023.583,1290.041,4023.414,1294.831ZM2181.5,1351.551c-.057,1.6-6.115,7.355-13.01,13.137-11.194,9.1-12,8.323-7.422-2.974S2181.812,1342.77,2181.5,1351.551Zm41.435,10.757c-.339,9.579-17.45,20.444-23.113,15.026s5.785-21.7,15.832-21.991A6.791,6.791,0,0,1,2222.936,1362.309Zm1833.4-52.485a8.862,8.862,0,0,1-8.654,8.226c-4.186.122-8.231-3.748-8.09-7.74.169-4.79,4.469-8.1,8.654-8.226C4053.27,1301.938,4056.5,1305.033,4056.336,1309.823ZM2864.366,1386.73c-10.329,8.275-12.2,13.911-5.928,25.691,7.111,11.755,6.218,13.376-5.362,9.725-8.26-2.95-16.546-5.1-18.22-5.053s-3.208-3.894-3.038-8.684c.367-10.378,26.189-31.065,38.747-31.43C2875.588,1376.834,2872.935,1380.9,2864.366,1386.73ZM2567.1,1420.888c5.324,15-12.257,15.508-33.488.973-14.673-10.738-14.673-10.738,6.284-12.144C2552.454,1409.352,2563.977,1414.6,2567.1,1420.888ZM2390.03,1438c2.2,8.708,1.109,15.917-3.077,16.038-10.046.292-25.218-20-18.323-25.783C2378.179,1418.4,2386.41,1422.152,2390.03,1438Zm1363.731-14.912c2.2,8.708,11.908,18,21.032,20.123,9.962,2.1,17.3,7.472,17.156,11.463s-4.354,4.911-8.457,2.638c-4.91-3.047-14.2-.385-21.071,4.6-10.329,8.275-12.812,7.55-12.332-6.021.34-9.579-6.771-21.334-16.592-27.429-12.247-8.416-13.78-12.359-5.3-15.8C3746.876,1404.943,3749.36,1405.668,3753.761,1423.084ZM2729.52,1463.218c-.48,13.571-6.567,20.127-21.721,22.96-26.122,5.544-25.98,1.552-1.692-23.077C2729.53,1439.294,2730.367,1439.269,2729.52,1463.218Zm56.776,26.261c6.556,3.8,7.224,8.562,2.088,11.9-4.271,2.517-12.529-.433-18.164-6.649C2758.952,1482.3,2768.274,1478.838,2786.3,1489.479Zm83.962,14.307c-.141,3.991-5.306,8.129-12,8.323s-14.928-3.554-17.3-7.472c-2.342-4.717,2.794-8.056,12-8.323C2863.006,1496.021,2870.428,1499,2870.259,1503.785Zm706.571,3.389c11.3,11.633,11.992,15.6,2.783,15.868-12.53-.433-40.373-17.168-40.062-25.949C3539.919,1486.716,3563.135,1492.421,3576.83,1507.174Zm-281.05,24.915c-.169,4.79-3.546,5.685-8.484,3.437-4.1-2.273-8.062-8.538-7.92-12.529.169-4.79,4.384-5.71,8.486-3.436C3292.8,1521.809,3295.922,1528.1,3295.78,1532.089Zm-393.277,5.847c-.085,2.395-3.575,6.484-8.683,9.024-4.271,2.517-8.4,1.042-8.259-2.95.169-4.79,4.5-8.9,8.683-9.024C2899.267,1534.84,2902.559,1536.34,2902.5,1537.936Zm426.793-7.619c-.141,3.991-1.957,8.031-3.632,8.08-2.512.073-6.556-3.8-8.927-7.715-2.342-4.717-.555-7.958,3.631-8.08C3325.392,1522.456,3329.466,1525.528,3329.3,1530.318Zm-849.591,67.754c-1.845,4.839,4.486,15.021,13.412,22.737l17.073,13.858-18.248-4.254c-10.771-2.877-19.2-1.037-19.368,3.753-.536,15.167-23.441.681-26.14-17.582-4.091-26.2,2.08-35.149,20.356-31.693C2475.915,1587.017,2481.549,1593.233,2479.705,1598.071Zm237.318-18.061c-.142,3.991-4.469,8.1-9.492,8.251-4.186.122-5.719-3.821-3.066-7.886,2.681-4.863,6.98-8.177,9.492-8.25C2715.631,1572.076,2717.192,1575.22,2717.023,1580.01Zm828.432,10.215c-8.626,7.428-9.436,6.654-4.017-4.668,2.794-8.056,7.959-12.193,10.385-9.871S3551.513,1584.466,3545.455,1590.225Zm-243.7,9.475c-.226,6.386-4.525,9.7-8.626,7.428-4.91-3.047-6.386-8.587-3.733-12.651C3297.321,1583.082,3302.259,1585.331,3301.751,1599.7Zm221.871,16.678c-6.923,6.581-14.656,12.388-17.167,12.461s-4.825-5.442-4.6-11.828c.255-7.185,7.958-12.193,18-12.485C3534.928,1604.087,3535.709,1605.659,3523.621,1616.378Zm-375.255,16.488c-1.844,4.839-8.767,11.419-13.847,13.162-5.916,1.767-8.315-1.353-4.684-9.434C3136.2,1622.055,3153.9,1618.351,3148.366,1632.866Zm4.917,50.1c6.49,29.318-2.833,32.778-11.89,5.131-5.352-14.2-4.984-24.576-.8-24.7S3150.331,1671.884,3153.284,1682.962Z" transform="matrix(1, 0.05, -0.05, 1, -316.41, -674.66)" fill="url(#linear-gradient)"/>
      </g>
      <path id="Path_9" data-name="Path 9" d="M2.347,4.487c-2.833,3.952-3.664,8.4-1.7,10,5.889,4.8,12.884-2.586,9.788-10.235C7.955-1.758,6.607-1.718,2.347,4.487Z" transform="translate(1352.104 1095.269)" fill="url(#linear-gradient)"/>
      <path id="Path_10" data-name="Path 10" d="M.04,4.5C2.461,12.172,31.3,15.2,31.559,8.009,31.657,5.242,24.381,1.584,15,.2,4.279-1.149-1.171.668.04,4.5Z" transform="translate(5744.727 -96.928)" fill="url(#linear-gradient)"/>
      <path id="Path_11" data-name="Path 11" d="M.423,1.2c-2.1,2.272,2.5,5.456,9.855,6.9s13.225,6.8,13.049,11.783c-.353,9.961,20.54,9.354,24.937-.725C51.214,11.891,5.356-5.02.423,1.2Z" transform="translate(5724.963 -78.693)" fill="url(#linear-gradient)"/>
      <path id="Path_12" data-name="Path 12" d="M.268,13.3c.937,11.582,5.478,16.426,16.222,17.219C31.933,31.729,73.1,10.078,73.429.67c.118-3.32-5.314-2.057-11.536,2.547C48.1,12.463,20.691,25.975,15.3,26.131c-2.022.059-2.5-5.456-.937-11.582.91-6.661-2.226-13.2-6.9-14.173C.8-1.642-1.362,2.291.268,13.3Z" transform="translate(5594.141 -61.552)" fill="url(#linear-gradient)"/>
      <path id="Path_13" data-name="Path 13" d="M-.325,8.849c-.157,4.427,3.135,6.543,6.564,4.785,4.1-1.778,6.935-5.73,7.053-9.05.1-2.767-2.52-4.9-6.563-4.785C3.359-.1-.148,3.868-.325,8.849Z" transform="translate(5788.837 -62.742)" fill="url(#linear-gradient)"/>
      <path id="Path_14" data-name="Path 14" d="M1.326,2.79C-1.468,5.635-.257,9.47,3.054,11.032c3.291,2.116,8.048.872,10.168-1.954C16.016,6.233,14.805,2.4,11.494.836,8.2-1.28,3.446-.036,1.326,2.79Z" transform="translate(5710.099 -47.255)" fill="url(#linear-gradient)"/>
      <path id="Path_15" data-name="Path 15" d="M-.2,5.528C-.3,8.3,2.971,10.964,6.341,10.866c4.044-.118,6.838-2.963,6.936-5.73.118-3.32-2.5-5.456-6.544-5.338C3.363-.1-.085,2.208-.2,5.528Z" transform="translate(5734.328 -44.572)" fill="url(#linear-gradient)"/>
      <path id="Path_16" data-name="Path 16" d="M1.91,3.221c-5.548,4.584.2,13.262,8.966,13.008,3.37-.1,6.2-4.05,6.359-8.477C17.529-.55,9.539-3.082,1.91,3.221Z" transform="translate(5675.961 -31.785)" fill="url(#linear-gradient)"/>
      <path id="Path_17" data-name="Path 17" d="M-.334,9.108c-.235,6.641,3.633,11.5,10.372,11.308,6.065-.176,9.572-4.148,8.42-9.643C15.579-2.964.136-4.174-.334,9.108Z" transform="translate(5760.85 -32.887)" fill="url(#linear-gradient)"/>
      <path id="Path_18" data-name="Path 18" d="M2.33,2.925c-6.359,8.477-1.124,12.748,13.8,9.55C26.3,10.52,26.992,9.947,17.118,3.6,9.881-1.165,5.857-1.6,2.33,2.925Z" transform="translate(5612.871 -10.871)" fill="url(#linear-gradient)"/>
      <path id="Path_19" data-name="Path 19" d="M-.252,6.876c-.2,5.534,5.753,8.678,13.841,8.443,16.175-.47,14.6-13.14-2.148-15.417C4.74-1.009-.076,1.9-.252,6.876Z" transform="translate(5481.991 46.552)" fill="url(#linear-gradient)"/>
      <path id="Path_20" data-name="Path 20" d="M-.321,8.737c-.157,4.427,3.135,6.543,6.563,4.785,4.122-2.331,5.607-6.244,3.683-8.952C4.135-3,.032-1.225-.321,8.737Z" transform="translate(-8.549 233.008)" fill="url(#linear-gradient)"/>
      <path id="Path_21" data-name="Path 21" d="M-.2,5.528C-.3,8.3,2.972,10.965,6.341,10.867c4.044-.118,6.837-2.963,6.935-5.73.118-3.321-2.5-5.456-6.544-5.338C3.363-.1-.085,2.208-.2,5.528Z" transform="translate(5264.979 90.692)" fill="url(#linear-gradient)"/>
      <path id="Path_22" data-name="Path 22" d="M7.774,2.939c-8.185,3-10.325,6.381-5.8,11.778,4.483,6.5,7.179,6.425,16.136.637C38.122,1.5,32.311-5.514,7.774,2.939Z" transform="translate(5275.129 113.762)" fill="url(#linear-gradient)"/>
      <path id="Path_23" data-name="Path 23" d="M7.943,3.109C3.186,4.353-.478,12.752-.752,20.5c.878,13.242.878,13.242,3.965,2.1,1.583-6.68,7.845-12.39,13.236-12.547s9.534-3.041,9.631-5.808C26.3-1.847,21.6-2.263,7.943,3.109Z" transform="translate(-9.245 272.139)" fill="url(#linear-gradient)"/>
      <path id="Path_24" data-name="Path 24" d="M-.183,4.976c-.255,7.194,18.86,18.8,24.389,14.77C29.081,15.182,14.821-.436,6.06-.181,2.69-.083-.085,2.208-.183,4.976Z" transform="translate(5209.885 125.462)" fill="url(#linear-gradient)"/>
      <path id="Path_25" data-name="Path 25" d="M7.2,5.413c-2.12,2.826-2.97,7.826-.372,10.515,1.924,2.708.439,6.621-3.683,8.953-9.612,5.255-1.838,13.874,12.316,13.463,9.436-.274,10.92-4.187,9.447-19.624C22.9-.572,15.681-5.89,7.2,5.413Z" transform="translate(5367.604 120.78)" fill="url(#linear-gradient)"/>
      <path id="Path_26" data-name="Path 26" d="M-.274,7.463c-.274,7.748,15.607,15.579,21.868,9.868,2.082-1.719,2.238-6.146.372-10.515C17.6-3.007.079-2.5-.274,7.463Z" transform="translate(5310.582 133.872)" fill="url(#linear-gradient)"/>
      <path id="Path_27" data-name="Path 27" d="M.509,4.692c2.442,7.116,11.818,8.5,12.728,1.841C13.315,4.32,10.043,1.651,6.057.108,1.379-.861-1.4,1.43.509,4.692Z" transform="translate(5182.016 170.762)" fill="url(#linear-gradient)"/>
      <path id="Path_28" data-name="Path 28" d="M7.187,10.119C-4.642,20.966-3.169,36.4,9.178,29.963c3.429-1.758,8.722.852,11.916,5.735,5.1,8.144,7.12,8.086,24.283-1.259,9.631-5.808,17.935-12.131,18.033-14.9.215-6.088,1.563-6.127-24.937.725-23.111,6.2-39.012-1.078-19.251-7.733C25.345,10.7,30.2,6.686,30.3,3.919,30.592-4.382,19.711-1.3,7.187,10.119Z" transform="translate(31.776 325.877)" fill="url(#linear-gradient)"/>
      <path id="Path_29" data-name="Path 29" d="M3.4,8.251c-7.962,15.711-4.71,18.933,12.374,11.8C35.573,12.291,37.79,6.7,22.465,2.168,8.469-1.848,8.469-1.848,3.4,8.251Z" transform="translate(5228.472 180.696)" fill="url(#linear-gradient)"/>
      <path id="Path_30" data-name="Path 30" d="M1.993,3.108a5.845,5.845,0,0,0-.968,8.321c3.848,5.416,22.915-.666,23.15-7.307C24.372-1.412,8.235-2.049,1.993,3.108Z" transform="translate(111.252 345.655)" fill="url(#linear-gradient)"/>
      <path id="Path_31" data-name="Path 31" d="M-.284,7.742c-.157,4.427,3.017,9.863,6.329,11.426,3.985,1.543,6.8-1.856,7.014-7.943C13.293,4.583,10.774-.319,6.73-.2,3.36-.1-.127,3.315-.284,7.742Z" transform="translate(5133.206 199.56)" fill="url(#linear-gradient)"/>
      <path id="Path_32" data-name="Path 32" d="M.472,5.51C1.683,9.344,6.918,13.615,11.6,14.584c5.333,1.5,8.108-.788,6.242-5.157C16.628,5.593,11.392,1.322,6.714.352,1.381-1.151-1.393,1.141.472,5.51Z" transform="translate(5160.424 210.378)" fill="url(#linear-gradient)"/>
      <path id="Path_33" data-name="Path 33" d="M3.563,10.941c-6.379,9.031-5.783,11.225,2.978,10.97,5.392-.157,10.286-5.275,10.5-11.362S16.086-.48,14.064-.421C12.716-.382,7.822,4.736,3.563,10.941Z" transform="translate(5196.247 208.791)" fill="url(#linear-gradient)"/>
      <path id="Path_34" data-name="Path 34" d="M-.046,7.8c1.172,4.941,9.083,9.687,17.805,10.539,12.747,1.288,14.134.142,9.036-8C18.484-2.133-2.311-4.293-.046,7.8Z" transform="translate(115.643 369.638)" fill="url(#linear-gradient)"/>
      <path id="Path_35" data-name="Path 35" d="M.582,5.443c1.191,4.388,13.186,7.909,25.953,8.644,26.88,1.43,20.473-7.782-9.64-12.988C2.165-1.237-1.9-.566.582,5.443Z" transform="translate(5092.329 229.005)" fill="url(#linear-gradient)"/>
      <path id="Path_36" data-name="Path 36" d="M.74,4.944C-3.519,11.149,6.355,17.5,13.271,12.319,19.513,7.162,18.439-.546,11.7-.35,7.656-.233,3.534,2.1.74,4.944Z" transform="translate(224.459 566.732)" fill="url(#linear-gradient)"/>
      <path id="Path_37" data-name="Path 37" d="M30.509,11.247c1.767,7.136,8.174,16.348,13.369,21.725C55.619,43.687,42.5,52.914,28.7,43.364c-10.528-6.881-30.191-2.992-30.5,5.862-.353,9.961,39.968,12.106,56.477,2.229,19.9-10.529,18.142-37.014-2.077-36.427-7.414.215-12.668-3.5-12.511-7.929s-3.076-8.2-7.12-8.086S27.394,4.151,30.509,11.247Z" transform="translate(5023.22 455.179)" fill="url(#linear-gradient)"/>
      <path id="Path_38" data-name="Path 38" d="M.471,5.509C2.4,8.217,9.037,10.788,14.429,10.631s8.186-3,6.262-5.71C18.786,1.659,12.125-.358,6.733-.2S-1.433,2.247.471,5.509Z" transform="translate(236.515 613.588)" fill="url(#linear-gradient)"/>
      <path id="Path_39" data-name="Path 39" d="M.612,11.031C4.2,23.642,10.905,24.553,22.042,14.278,31.117,5.169,25.94-.762,9.091-.272,1-.037-1.81,3.362.612,11.031Z" transform="translate(5120.508 472.652)" fill="url(#linear-gradient)"/>
      <path id="Path_40" data-name="Path 40" d="M7.958,2.92c-4.855,4.011-8.4,9.09-8.48,11.3-.235,6.641,18.675,4.986,24.322-2.365C30.873,2.254,17.668-5.1,7.958,2.92Z" transform="translate(4988.31 489.118)" fill="url(#linear-gradient)"/>
      <path id="Path_41" data-name="Path 41" d="M3.936,1.548C-3.694,7.851-.559,14.394,9.551,14.1c5.392-.157,10.188-2.507,10.286-5.274C20.091,1.631,9.484-3.036,3.936,1.548Z" transform="translate(5115.352 514.878)" fill="url(#linear-gradient)"/>
      <path id="Path_42" data-name="Path 42" d="M1.72,2.933c-5.627,6.8,1.218,22.631,9.307,22.4s8.812-20.711.881-24.9A8.924,8.924,0,0,0,1.72,2.933Z" transform="translate(4955.457 528.301)" fill="url(#linear-gradient)"/>
      <path id="Path_43" data-name="Path 43" d="M4.531,8.155c4.561,4.29,10.549,6.327,13.977,4.569C27.427,8.042,19.652-.577,6.846-.2-1.915.05-1.974,1.71,4.531,8.155Z" transform="translate(4988.716 531.19)" fill="url(#linear-gradient)"/>
      <path id="Path_44" data-name="Path 44" d="M8.624,3.082c-4.757,1.244-9,6.9-9.173,11.876.38,8.281,1.054,8.262,7.433-.769,8.479-11.3,20-13.3,19.623-2.782-.274,7.748,26.516,30.741,34.6,30.506,12.131-.353,3.244-15.574-17.159-28.8C31.441,5.183,20.219-1.125,18.851-.532,17.5-.493,12.727,1.3,8.624,3.082Z" transform="translate(271.03 704.022)" fill="url(#linear-gradient)"/>
      <path id="Path_45" data-name="Path 45" d="M-.2,5.528C-.3,8.3,2.971,10.965,6.341,10.867c4.044-.118,6.837-2.963,6.935-5.73.118-3.321-2.5-5.456-6.544-5.338C3.363-.1-.085,2.208-.2,5.528Z" transform="translate(4648.709 572.459)" fill="url(#linear-gradient)"/>
      <path id="Path_46" data-name="Path 46" d="M-.169,4.618c-.333,9.408,19,14.927,42.029,10.941,19.624-2.782,23.746-5.113,17.9-11.024C52.6-2.444.085-2.577-.169,4.618Z" transform="translate(4904.438 575.763)" fill="url(#linear-gradient)"/>
      <path id="Path_47" data-name="Path 47" d="M4.428,9.267c3.829,5.97,9.757,9.667,13.86,7.89,8.938-5.235,7.668-7.41-7.6-13.6C-1.9-2.159-2.594-1.586,4.428,9.267Z" transform="translate(4552.035 594.256)" fill="url(#linear-gradient)"/>
      <path id="Path_48" data-name="Path 48" d="M-.3,8.3c-.157,4.427,3.076,8.2,6.446,8.105,4.044-.118,6.877-4.07,7.033-8.5S10.773-.319,6.729-.2C3.359-.1-.148,3.868-.3,8.3Z" transform="translate(4537.832 631.752)" fill="url(#linear-gradient)"/>
      <path id="Path_49" data-name="Path 49" d="M-.476,16.587c-2.014,18.855,6.65,21.367,17.982,5.558C28.164,6.356,26.4-.779,13.591-.407,4.829-.152.609,4.946-.476,16.587Z" transform="translate(4566.845 648.7)" fill="url(#linear-gradient)"/>
      <path id="Path_50" data-name="Path 50" d="M.744,5.5c-2.12,2.826-.87,5.554,2.5,5.456,4.044-.118,7.512-2.983,7.61-5.75C10.971,1.885,9.7-.289,8.353-.25,6.332-.191,2.883,2.12.744,5.5Z" transform="translate(816.144 778.861)" fill="url(#linear-gradient)"/>
      <path id="Path_51" data-name="Path 51" d="M1.18,14.89C5.31,31.355,20.9,47.487,27.14,42.33,32.669,38.3,10.451.247,2.384-.071-.313.007-1.222,6.667,1.18,14.89Z" transform="translate(4322.904 696.951)" fill="url(#linear-gradient)"/>
      <path id="Path_52" data-name="Path 52" d="M1.326,2.79C-1.468,5.635-.257,9.47,3.054,11.032c3.292,2.116,8.049.872,10.168-1.954C16.016,6.233,14.805,2.4,11.494.836,8.2-1.28,3.446-.036,1.326,2.79Z" transform="translate(4363.389 694.827)" fill="url(#linear-gradient)"/>
      <path id="Path_53" data-name="Path 53" d="M-.2,5.528C-.3,8.3,2.971,10.965,6.341,10.867c4.044-.118,6.838-2.963,6.936-5.73.118-3.32-2.5-5.456-6.544-5.338C3.363-.1-.085,2.208-.2,5.528Z" transform="translate(704.763 813.769)" fill="url(#linear-gradient)"/>
      <path id="Path_54" data-name="Path 54" d="M7.657,5.7c-9.71,8.022-11.528,21.343-2.766,21.088,3.37-.1,7.629-6.3,9.251-14.09C18.754-3.471,18.754-3.471,7.657,5.7Z" transform="translate(4886.957 695.272)" fill="url(#linear-gradient)"/>
      <path id="Path_55" data-name="Path 55" d="M13.951,7.329c11.975,4.075,25.4,5.343,30.191,2.993C53.061,5.64,29.053-.849,5.464-.164-3.972.111-1.354,2.246,13.951,7.329Z" transform="translate(4555.429 711.557)" fill="url(#linear-gradient)"/>
      <path id="Path_56" data-name="Path 56" d="M5.157,9.061C-8.93,26.608,3.6,33.983,26.254,21.716,44.11,11.8,49.854,1.681,38.4,2.014A62.173,62.173,0,0,1,22.993-.3C18.334-1.826,10.11,2.283,5.157,9.061Z" transform="translate(437.012 843.031)" fill="url(#linear-gradient)"/>
      <path id="Path_57" data-name="Path 57" d="M1.774,8.969C-1.1,14.028-1.294,19.562.669,21.164,4.6,24.366,24.61,10.517,24.826,4.429,25.139-4.425,6.151-.556,1.774,8.969Z" transform="translate(4488.77 728.687)" fill="url(#linear-gradient)"/>
      <path id="Path_58" data-name="Path 58" d="M.367,8.2c.5,4.961,5.694,10.338,10.353,11.862,6.007,1.484,8.8-1.362,7.014-7.944C17.236,7.152,12.04,1.775,7.381.252,1.374-1.232-1.419,1.613.367,8.2Z" transform="translate(515.534 853.146)" fill="url(#linear-gradient)"/>
      <path id="Path_59" data-name="Path 59" d="M9.383.068C1.256,1.41-1.577,5.362.249,10.837,2.115,15.206,3.921,21.234,3.823,24c-.118,3.321,9.972,3.58,23.53.975,21.011-3.928,23.667-2.9,23.276,8.169-.353,9.961-3.088,11.147-15.1,8.179l-15.384-2.87L35.829,51.818c12.394,11.249,18.4,12.733,27.993,8.032,14.369-6.5,15.834-9.858,6.83-21.759-3.867-4.863-3-10.417,2.57-15.554,6.281-6.264,4.972-7.331-6.544-5.338-8.107.788-21.45-2.694-29.976-9.08C28.83,2.267,16.182-1.788,9.383.068Z" transform="translate(461.474 897.489)" fill="url(#linear-gradient)"/>
      <path id="Path_60" data-name="Path 60" d="M3.607,11.421C-2.078,19.879-2.255,24.86,2.98,29.13s7.277,3.658,7.512-2.983c.176-4.981,6.418-10.138,14.565-12.033s12.327-5.887,9.749-9.129C28.418-4.779,12.819-1.562,3.607,11.421Z" transform="translate(582.859 891.608)" fill="url(#linear-gradient)"/>
      <path id="Path_61" data-name="Path 61" d="M7.786,8.639c-10.442,9.7-11.175,11.381-2.414,11.127,6.066-.176,12.943-4.246,15.141-9.285C27.742-3.55,21.716-4.481,7.786,8.639Z" transform="translate(4302.433 784.833)" fill="url(#linear-gradient)"/>
      <path id="Path_62" data-name="Path 62" d="M4.616,5.378c-6.975,6.837-7.034,8.5,1.728,8.242,12.805-.372,21.207-9.462,12.6-13.634C15.635-1.576,9.491.813,4.616,5.378Z" transform="translate(4241.803 834.119)" fill="url(#linear-gradient)"/>
      <path id="Path_63" data-name="Path 63" d="M.471,5.509a14.009,14.009,0,0,0,10.588,5.221c3.37-.1,6.163-2.943,6.261-5.71C17.438,1.7,12.8-.378,6.733-.2,1.341-.045-1.433,2.247.471,5.509Z" transform="translate(4325.789 827.306)" fill="url(#linear-gradient)"/>
      <path id="Path_64" data-name="Path 64" d="M-.15,4.087c-.1,2.767,4.4,8.717,10.333,12.415,9.2,6.367,10.568,5.774,8.859-3.022C16.739,2.49.183-5.321-.15,4.087Z" transform="translate(4187.693 865.012)" fill="url(#linear-gradient)"/>
      <path id="Path_65" data-name="Path 65" d="M4.941,7.958C.047,13.075-2.171,18.668.467,20.25c5.215,4.824,25.787-5.725,30.144-14.7C34.313-3.953,15.4-2.3,4.941,7.958Z" transform="translate(4275.318 862.294)" fill="url(#linear-gradient)"/>
      <path id="Path_66" data-name="Path 66" d="M3.936,4.852C-.939,9.417-1.789,14.417,1.522,15.979c3.985,1.543,10.129-.847,14.31-4.839C20.707,6.576,21.557,1.576,18.246.014,14.261-1.529,8.117.861,3.936,4.852Z" transform="translate(796.633 974.263)" fill="url(#linear-gradient)"/>
      <path id="Path_67" data-name="Path 67" d="M-.2,5.532C-.3,8.3,2.971,10.968,7.015,10.85c3.37-.1,4.816-2.9,2.892-5.612C8,1.976,4.711-.139,2.689-.08,1.341-.041-.085,2.211-.2,5.532Z" transform="translate(1597.497 954.102)" fill="url(#linear-gradient)"/>
      <path id="Path_69" data-name="Path 69" d="M-.2,5.528C-.3,8.3,2.971,10.965,6.341,10.867c4.044-.118,6.838-2.963,6.936-5.73.118-3.32-2.5-5.456-6.544-5.338C3.363-.1-.085,2.208-.2,5.528Z" transform="translate(1421.194 975.065)" fill="url(#linear-gradient)"/>
      <path id="Path_70" data-name="Path 70" d="M1.326,2.79C-1.468,5.635-.257,9.47,3.054,11.032c3.291,2.116,8.048.872,10.168-1.954C16.016,6.233,14.805,2.4,11.494.836,8.2-1.28,3.446-.036,1.326,2.79Z" transform="translate(808.361 1004.055)" fill="url(#linear-gradient)"/>
      <path id="Path_71" data-name="Path 71" d="M.3,12.521C1.35,20.783,5.178,26.753,8.548,26.655c10.11-.294,8.93-24.031-1.082-26.5C.786-1.314-1.373,2.618.3,12.521Z" transform="translate(1622.755 980.665)" fill="url(#linear-gradient)"/>
      <path id="Path_72" data-name="Path 72" d="M.751,5.5c1.924,2.708,5.2,5.377,7.218,5.319,1.348-.039,2.794-2.845,2.892-5.612C10.978,1.889,7.686-.227,3.642-.109.272-.011-1.154,2.242.751,5.5Z" transform="translate(2227.553 967.464)" fill="url(#linear-gradient)"/>
      <path id="Path_74" data-name="Path 74" d="M.471,5.509a14.01,14.01,0,0,0,10.588,5.22c3.37-.1,6.164-2.943,6.262-5.71C17.438,1.7,12.8-.378,6.733-.2,1.341-.045-1.433,2.247.471,5.509Z" transform="translate(2311.726 980.857)" fill="url(#linear-gradient)"/>
      <path id="Path_75" data-name="Path 75" d="M1.91,3.221c-5.548,4.584.2,13.262,8.965,13.008,3.37-.1,6.2-4.05,6.36-8.477C17.529-.55,9.539-3.082,1.91,3.221Z" transform="translate(868.052 1031.664)" fill="url(#linear-gradient)"/>
      <path id="Path_77" data-name="Path 77" d="M2.923,3.332c4.659,1.523,10.744.793,12.825-.926C18.5.668,14.518-.875,7.085-.106-.329.109-2.41,1.828,2.923,3.332Z" transform="translate(1456.422 1013.21)" fill="url(#linear-gradient)"/>
      <path id="Path_78" data-name="Path 78" d="M5.243,4.048c-7.551,4.089-7.59,5.2,1.074,7.709,6.661,2.018,10.764.24,10.94-4.741C17.589-2.392,16.916-2.373,5.243,4.048Z" transform="translate(1649.252 1017.346)" fill="url(#linear-gradient)"/>
      <path id="Path_80" data-name="Path 80" d="M-.2,5.528c-.176,4.981,3.056,8.757,6.426,8.659,4.044-.118,6.818-2.41,6.916-5.177C13.257,5.69,10.7,1.894,6.713.352,3.4-1.211-.046,1.1-.2,5.528Z" transform="translate(1678.208 1042.578)" fill="url(#linear-gradient)"/>
      <path id="Path_81" data-name="Path 81" d="M-.2,5.532C-.3,8.3,2.971,10.968,7.015,10.851c3.37-.1,4.816-2.9,2.892-5.612C8,1.976,4.711-.139,2.689-.08,1.341-.041-.085,2.211-.2,5.532Z" transform="translate(2348.22 1019.383)" fill="url(#linear-gradient)"/>
      <path id="Path_82" data-name="Path 82" d="M-.325,8.845c-.176,4.981,3.1,7.65,7.853,6.406C19.777,11.578,22.23-.655,10.772-.322,4.707-.146-.148,3.865-.325,8.845Z" transform="translate(1577.847 1050.476)" fill="url(#linear-gradient)"/>
      <path id="Path_83" data-name="Path 83" d="M.471,5.509a14.009,14.009,0,0,0,10.588,5.221c3.37-.1,6.164-2.943,6.262-5.71C17.438,1.7,12.8-.378,6.733-.2,1.341-.045-1.433,2.247.471,5.509Z" transform="translate(2058.706 1035.719)" fill="url(#linear-gradient)"/>
      <path id="Path_84" data-name="Path 84" d="M1.326,2.79C-1.468,5.635-.257,9.47,3.054,11.032c3.291,2.116,8.048.872,10.168-1.954C16.016,6.233,14.805,2.4,11.494.836,8.2-1.28,3.446-.036,1.326,2.79Z" transform="translate(1614 1059.838)" fill="url(#linear-gradient)"/>
      <path id="Path_85" data-name="Path 85" d="M15.188,16.513C4.745,26.214-2.982,35.284-1.019,36.886c4.6,3.183,52.8-26.965,53.032-33.606C52.366-6.681,34.627-.085,15.188,16.513Z" transform="translate(1942.353 1059.644)" fill="url(#linear-gradient)"/>
      <path id="Path_86" data-name="Path 86" d="M-.18,4.9c-.353,9.961,17.335,23.821,24.271,18.091,2.774-2.292-1.708-8.8-9.542-15.755C2.751-1.816.075-2.291-.18,4.9Z" transform="translate(2038.291 1064.926)" fill="url(#linear-gradient)"/>
      <path id="Path_87" data-name="Path 87" d="M.3,12.144c-2.3,7.806-.568,16.049,5.341,20.3,12.433,10.143,21.45,2.694,10.384-8.041-4.561-4.29-6.309-11.979-3.456-16.485,2.179-4.486,1.642-8.34-1.728-8.242S3.235,5.425.3,12.144Z" transform="translate(4052.634 1022.028)" fill="url(#linear-gradient)"/>
      <path id="Path_88" data-name="Path 88" d="M2.3,5.873c-2.813,3.4-3.625,7.292-1.661,8.894,4.581,3.737,18.315-3.849,18.55-10.49S7.964-2.032,2.3,5.873Z" transform="translate(1820.257 1091.191)" fill="url(#linear-gradient)"/>
      <path id="Path_89" data-name="Path 89" d="M.054,6.625C3.745,16.469,18.514,17.7,18.847,8.29c.176-4.981-4.4-8.717-10.47-8.541S-1.157,2.791.054,6.625Z" transform="translate(1862.393 1089.632)" fill="url(#linear-gradient)"/>
      <path id="Path_90" data-name="Path 90" d="M6.225,4.7c-8.918,4.682-8.977,6.342.819,14.9,9.181,6.92,13.879,7.336,20.121,2.179s5.627-6.8-3.135-6.543c-6.74.2-9.337-2.493-7.12-8.086C21.961-2.389,20.633-2.9,6.225,4.7Z" transform="translate(2130.669 1084.637)" fill="url(#linear-gradient)"/>
      <path id="Path_91" data-name="Path 91" d="M.751,5.5c1.924,2.708,5.2,5.377,7.218,5.319,1.348-.039,2.794-2.845,2.892-5.612.118-3.32-3.174-5.436-7.218-5.319C.273-.011-1.154,2.242.751,5.5Z" transform="translate(2181.747 1079.649)" fill="url(#linear-gradient)"/>
      <path id="Path_92" data-name="Path 92" d="M3.936,1.548C-3.694,7.851-.559,14.394,9.551,14.1c5.392-.157,10.188-2.507,10.286-5.274C20.091,1.631,9.484-3.036,3.936,1.548Z" transform="translate(1474.84 1127.696)" fill="url(#linear-gradient)"/>
      <path id="Path_93" data-name="Path 93" d="M5.994,4.023C.5,6.946-1.733,13.093.112,18.015,6.362,31.654,17.937,28,18.486,12.505S19.034-2.99,5.994,4.023Z" transform="translate(1987.358 1112.965)" fill="url(#linear-gradient)"/>
      <path id="Path_94" data-name="Path 94" d="M.744,5.5c-2.12,2.826-.87,5.554,2.5,5.456,4.044-.118,7.512-2.983,7.61-5.75C10.971,1.885,9.7-.289,8.353-.25,6.332-.191,2.883,2.12.744,5.5Z" transform="translate(2222.229 1118.068)" fill="url(#linear-gradient)"/>
      <path id="Path_95" data-name="Path 95" d="M4.552,3.714C-3.751,10.036-1.29,16.6,9.493,16.285c5.392-.157,10.247-4.168,10.4-8.595C20.21-1.164,12.2-3.143,4.552,3.714Z" transform="translate(1666.784 1143.15)" fill="url(#linear-gradient)"/>
      <path id="Path_96" data-name="Path 96" d="M4.138,3.569c-8.323,6.876-5.129,11.759,9.6,14.095C31.8,21.009,40,17.453,34.984,7.1,31.908-1.108,12.461-3.307,4.138,3.569Z" transform="translate(1878.091 1137.791)" fill="url(#linear-gradient)"/>
      <path id="Path_97" data-name="Path 97" d="M7.013,6.787C-4.8,17.081-4.143,17.615,18.791,16.4,45.77,15.059,50.01,9.407,30.758,1.674,21.479-2.479,16.048-1.215,7.013,6.787Z" transform="translate(2117.089 1135.159)" fill="url(#linear-gradient)"/>
      <path id="Path_98" data-name="Path 98" d="M.522,1.387C-4.411,7.611,20.475,27.343,27.411,21.613,30.165,19.875,26.376,12.8,18.5,6.945,11.325.52,3.336-2.012.522,1.387Z" transform="translate(4026.543 1088.043)" fill="url(#linear-gradient)"/>
      <path id="Path_99" data-name="Path 99" d="M7.839,9.164c5.89,4.8,12.531,7.375,15.286,5.637C30.061,9.071,19.63-.577,7.5-.224-2.611.069-2.631.623,7.839,9.164Z" transform="translate(2346.166 1139.12)" fill="url(#linear-gradient)"/>
      <path id="Path_100" data-name="Path 100" d="M1.91,3.221c-5.549,4.584.2,13.262,8.965,13.008,3.37-.1,6.2-4.05,6.359-8.477C17.529-.55,9.539-3.082,1.91,3.221Z" transform="translate(3252.487 1120.862)" fill="url(#linear-gradient)"/>
      <path id="Path_101" data-name="Path 101" d="M-.02.544C-.157,4.418,31.888,31.129,35.932,31.011c2.022-.059,3.507-3.972,3.663-8.4A7.532,7.532,0,0,0,31.8,14.546c-4.044.118-13.342-3.482-19.886-8.82C5.352.941.039-1.116-.02.544Z" transform="translate(2421.369 1165.348)" fill="url(#linear-gradient)"/>
      <path id="Path_102" data-name="Path 102" d="M.751,5.5c1.924,2.708,5.2,5.377,7.218,5.319,1.348-.039,2.794-2.845,2.892-5.612.118-3.32-3.174-5.436-7.218-5.319C.273-.011-1.154,2.242.751,5.5Z" transform="translate(3016.227 1142.497)" fill="url(#linear-gradient)"/>
      <path id="Path_103" data-name="Path 103" d="M8.735.077c-4.777,1.8-9,6.9-9.153,11.323-.2,5.534,3.789,7.077,10.607,4.667s16.83.064,23.393,4.849c13.127,9.569,35.485,5.6,31.179-5.882-1.231-3.281-8.527-6.386-15.94-6.171S31.4,6.605,26.121,3.442,12.818-1.147,8.735.077Z" transform="translate(3977.022 1122.801)" fill="url(#linear-gradient)"/>
      <path id="Path_104" data-name="Path 104" d="M11.242,7.392c-15.834,9.858-16.206,20.373-.031,19.9,8.762-.255,12.943-4.246,13.3-14.207.274-7.748-.184-13.815-.858-13.8Z" transform="translate(2202.167 1185.173)" fill="url(#linear-gradient)"/>
      <path id="Path_105" data-name="Path 105" d="M.458,8.273C3,12.622,6.9,16.378,10.274,16.28s6.2-4.05,6.359-8.477S12.21-.361,6.818-.2C.752-.028-1.387,3.351.458,8.273Z" transform="translate(3319.051 1150.584)" fill="url(#linear-gradient)"/>
      <path id="Path_106" data-name="Path 106" d="M2.3,5.873c-2.813,3.4-3.624,7.292-1.661,8.894,4.58,3.737,18.315-3.849,18.55-10.49S7.964-2.032,2.3,5.873Z" transform="translate(2134.711 1192.987)" fill="url(#linear-gradient)"/>
      <path id="Path_107" data-name="Path 107" d="M9.645,11.856C-4.226,23.316-4.579,33.277,8.9,32.886c3.37-.1,6.183-3.5,6.34-7.924s5.031-8.992,10.5-11.362C37.317,9.946,40.4-1.2,29.621-.887,26.251-.789,17.294,5,9.645,11.856Z" transform="translate(2265.92 1192.337)" fill="url(#linear-gradient)"/>
      <path id="Path_108" data-name="Path 108" d="M7.236,5.042c-7.57,4.643-9.729,8.575-5.764,10.671S12.256,15.4,17.13,10.836C29-1.119,23.071-4.816,7.236,5.042Z" transform="translate(3209.587 1173.177)" fill="url(#linear-gradient)"/>
      <path id="Path_109" data-name="Path 109" d="M36.667,13.829c-.333,9.408-3.9,15.04-9.964,15.216-11.458.333-33.114,22.523-27.977,29.56,1.944,2.155,10.627,4.114,20.062,3.84,10.11-.294,15.58-2.664,13.021-6.46-2.578-3.242,2.433-11.68,10.776-19.11C57.168,24.29,57.227,22.629,47.549,10.748L37.2-1.113Z" transform="translate(2324.768 1209.306)" fill="url(#linear-gradient)"/>
      <path id="Path_110" data-name="Path 110" d="M1.2,26.1c-1.9,15.534-3.734,29.409-3.08,29.943,3.252,3.223,30.524-6.415,27.966-10.211-1.943-2.155,1.6-7.233,7.132-11.264,14.487-9.819,13.393-16.974-2.782-16.5-7.414.215-13.362-2.929-13.205-7.356S14.872,1.375,11.561-.188,3.795,9.989,1.2,26.1Z" transform="translate(3160.802 1207.408)" fill="url(#linear-gradient)"/>
      <path id="Path_111" data-name="Path 111" d="M8.286,3.861c-15.756,7.645-9.33,16.3,12.237,15.677,12.131-.353,16.947-3.257,15.16-9.839C33.4-1.845,24.042-3.784,8.286,3.861Z" transform="translate(2732.742 1218.703)" fill="url(#linear-gradient)"/>
      <path id="Path_112" data-name="Path 112" d="M6.544,4.838c-5.49,2.924-8.323,6.876-6.36,8.477,5.235,4.271,26.383-3.531,26.6-9.618S19.584-2.175,6.544,4.838Z" transform="translate(3875.946 1190.203)" fill="url(#linear-gradient)"/>
      <path id="Path_113" data-name="Path 113" d="M-.2,5.528C-.3,8.3,2.971,10.965,6.341,10.867c4.044-.118,6.838-2.963,6.936-5.73.118-3.32-2.5-5.456-6.544-5.338C3.363-.1-.085,2.208-.2,5.528Z" transform="translate(2231.71 1244.481)" fill="url(#linear-gradient)"/>
      <path id="Path_114" data-name="Path 114" d="M4.6.792c-7.629,6.3-6.254,24.507,1.16,24.291,10.109-.294,16.763-17.072,9.565-22.944C12.055-.53,7.356-.947,4.6.792Z" transform="translate(2692.885 1237.344)" fill="url(#linear-gradient)"/>
      <path id="Path_115" data-name="Path 115" d="M20.046,3.609c-.137,3.874-4.953,6.778-10.345,6.935S-.545,14.711-.7,19.139c-.45,12.728,17.845,9.432,22.378-4.52C24.607,7.9,24.842,1.258,23.553-.363,21.57-1.411,20.163.289,20.046,3.609Z" transform="translate(3899.767 1215.453)" fill="url(#linear-gradient)"/>
      <path id="Path_116" data-name="Path 116" d="M1.326,2.79C-1.468,5.635-.257,9.47,3.054,11.032c3.292,2.116,8.049.872,10.169-1.954C16.016,6.233,14.805,2.4,11.494.836,8.2-1.28,3.446-.036,1.326,2.79Z" transform="translate(2870.793 1252.982)" fill="url(#linear-gradient)"/>
      <path id="Path_117" data-name="Path 117" d="M2.254,3.452C-4.779,11.949,3.786,17.229,12.8,9.78,17.658,5.769,17.775,2.448,13.81.352,9.825-1.191,4.394.073,2.254,3.452Z" transform="translate(2382.775 1275.921)" fill="url(#linear-gradient)"/>
      <path id="Path_118" data-name="Path 118" d="M13.661,8.8C-1.656,23.068-6.131,35.361,5.327,35.028c4.044-.118,6.857-3.516,7.014-7.944.137-3.874,7.131-11.264,15.376-15.926,8.938-5.235,11.79-9.741,7.825-11.837C32.23-2.241,21.983,1.926,13.661,8.8Z" transform="translate(3087.959 1261.282)" fill="url(#linear-gradient)"/>
      <path id="Path_119" data-name="Path 119" d="M1.456,1.466C-.624,3.185-.762,7.059,1.182,9.214c4.483,6.5,22.7,5.421,22.915-.666S7-3.118,1.456,1.466Z" transform="translate(2535.758 1287.141)" fill="url(#linear-gradient)"/>
      <path id="Path_120" data-name="Path 120" d="M4.618,11.382c-7.092,10.157-7.19,12.924-.588,16.6,5.294,2.61,11.457-.333,16.45-8.218C34.7-1.655,20.825-8.991,4.618,11.382Z" transform="translate(2586.098 1285.574)" fill="url(#linear-gradient)"/>
      <path id="Path_121" data-name="Path 121" d="M.452,6.059c-5.627,6.8,21.72,33.092,29.964,28.429C37.948,30.952,20.212-.6,10.777-.323,7.407-.225,2.591,2.68.452,6.059Z" transform="translate(2662.36 1292.6)" fill="url(#linear-gradient)"/>
      <path id="Path_122" data-name="Path 122" d="M8.486,7.665C-3.9,15.212-3.94,16.319,10.359,30.83L25.312,45.874l-3.4-18.145c-2.9-13.184-1.4-17.65,6.018-17.866,4.718-.137,11.556-3.1,13.675-5.926C47.967-4.539,23.627-1.62,8.486,7.665Z" transform="translate(3810.894 1277.97)" fill="url(#linear-gradient)"/>
      <path id="Path_123" data-name="Path 123" d="M-.2,5.528C-.3,8.3,2.971,10.965,6.341,10.867c4.044-.118,6.838-2.963,6.935-5.73.118-3.32-2.5-5.456-6.544-5.338C3.363-.1-.085,2.208-.2,5.528Z" transform="translate(3753.427 1279.438)" fill="url(#linear-gradient)"/>
      <path id="Path_124" data-name="Path 124" d="M1.893,5.807c-2.814,3.4-2.951,7.273-.987,8.874,5.235,4.271,24.361-3.472,24.6-10.113C25.756-2.626,7.559-2.1,1.893,5.807Z" transform="translate(2717.107 1326.769)" fill="url(#linear-gradient)"/>
      <path id="Path_125" data-name="Path 125" d="M.555,4.369C-4.4,11.147,14.58,26.628,27.385,26.256c8.088-.235,8.166-2.449-1.532-13.776C13.557-1.537,6.9-3.555.555,4.369Z" transform="translate(2576.911 1341.68)" fill="url(#linear-gradient)"/>
      <path id="Path_126" data-name="Path 126" d="M2.4,12.849C7.717,33.7,7.717,33.7,17.466,24.573c5.607-6.244,4.4-10.079-6.093-18.067C-1.754-3.063-1.754-3.063,2.4,12.849Z" transform="translate(2632.298 1341.312)" fill="url(#linear-gradient)"/>
      <path id="Path_127" data-name="Path 127" d="M-.223,6.082C-.321,8.849,3.009,9.858,6.438,8.1c4.1-1.778,6.9-4.623,6.955-6.283C13.432.71,10.776-.319,6.732-.2,3.362-.1-.106,2.761-.223,6.082Z" transform="translate(3057.352 1322.996)" fill="url(#linear-gradient)"/>
      <path id="Path_128" data-name="Path 128" d="M12.027,5.105C-.3,10.992-5.586,27.178,4.524,26.884c2.7-.078,10.345-6.935,17.339-14.325C35.177-2.2,31.905-4.87,12.027,5.105Z" transform="translate(2899.649 1340.278)" fill="url(#linear-gradient)"/>
      <path id="Path_129" data-name="Path 129" d="M8.388,5.573C2.205,9.07-2,13.614-.071,16.323c3.848,5.417,30.5-5.862,30.759-13.056Q31.011-5.865,8.388,5.573Z" transform="translate(3405.914 1338.904)" fill="url(#linear-gradient)"/>
      <path id="Path_130" data-name="Path 130" d="M11.786,9.191A119.03,119.03,0,0,1,.991,28.854c-7.112,10.711,3.554,13.718,18,5.005C29.971,28.012,42.847,6.63,38.286,2.339,30.434-4.066,15.489-.315,11.786,9.191Z" transform="translate(3441.753 1349.945)" fill="url(#linear-gradient)"/>
      <path id="Path_131" data-name="Path 131" d="M-.3,8.17C-.515,14.257,2.62,20.8,5.931,22.362c3.985,1.543,6.8-1.856,7.014-7.944S10.7,1.769,6.714.226C3.4-1.336-.084,2.082-.3,8.17Z" transform="translate(3776.384 1340.177)" fill="url(#linear-gradient)"/>
      <path id="Path_132" data-name="Path 132" d="M5.319,11.438C-5.261,25.014-2.087,30.45,13.571,25.572,23.8,21.958,29.319-.869,19.21-.575,16.514-.5,10.271,4.66,5.319,11.438Z" transform="translate(3512.458 1361.384)" fill="url(#linear-gradient)"/>
      <path id="Path_133" data-name="Path 133" d="M-.325,8.846c-.274,7.748,1.748,7.689,10.031,1.92C15.235,6.735,20.09,2.724,20.129,1.617S15.49-.459,10.1-.3-.148,3.865-.325,8.846Z" transform="translate(2964.05 1382.434)" fill="url(#linear-gradient)"/>
      <path id="Path_134" data-name="Path 134" d="M3.513,6.452C-3.062,21.017-1.831,24.3,6.648,13,10.888,7.344,13.125,1.2,11.143.15,9.853-1.471,6.386,1.393,3.513,6.452Z" transform="translate(3725.457 1363.866)" fill="url(#linear-gradient)"/>
      <path id="Path_135" data-name="Path 135" d="M.744,5.5c-2.12,2.826-.87,5.554,2.5,5.456,4.044-.118,7.512-2.982,7.61-5.75C10.971,1.885,9.7-.289,8.353-.25,6.332-.191,2.883,2.12.744,5.5Z" transform="translate(3032.663 1387.485)" fill="url(#linear-gradient)"/>
      <path id="Path_136" data-name="Path 136" d="M.466,5.5c-2.12,2.826.478,5.514,5.87,5.358,6.066-.176,10.881-3.08,10.979-5.847.118-3.32-2.5-5.456-5.87-5.358C7.4-.225,2.606,2.126.466,5.5Z" transform="translate(2983.289 1396.841)" fill="url(#linear-gradient)"/>
      <path id="Path_137" data-name="Path 137" d="M-.09,2.455c-.1,2.767,4.5,5.95,9.816,8.007,5.333,1.5,10.09.26,10.168-1.954.1-2.767-4.5-5.95-9.816-8.007C4.745-1-.012.242-.09,2.455Z" transform="translate(3139.335 1396.019)" fill="url(#linear-gradient)"/>
      <path id="Path_138" data-name="Path 138" d="M72.914,9.625c-.255,7.194-3.957,16.7-7.484,21.225-5.646,7.351-6.975,6.837-6.681-1.464a8.74,8.74,0,0,0-9.1-9.134c-5.392.157-10.666-3.007-12.551-6.822-1.846-4.922-5.889-4.8-15.482-.1C4.49,21.565-.717,35.537,14.96,30.106c10.9-3.634,10.882-3.08,1.015,9.369-8.46,10.75-9.29,15.2-3.4,20,5.87,5.358,5.1,8.144-3.86,13.933C-7.794,83.286-7.2,85.48,12.327,85.466c13.44.715,17.6-2.723,21.422-15.549,3.009-8.933,3.342-18.341.764-21.583-1.924-2.708.87-5.554,6.261-5.71,6.066-.176,10.627,4.114,10.451,9.094.341,9.388.341,9.388,9.435-.274,11.195-11.935,20.65-12.762,14.867-1.538-2.2,5.039-.294,8.3,5.772,8.125,5.392-.157,9.494-1.934,9.592-4.7-.6-2.194.176-4.981.909-6.66,5.07-10.1,5.18-32.215.082-40.359C84.265-6.737,73.423-4.764,72.914,9.625Z" transform="translate(3023.779 1421.793)" fill="url(#linear-gradient)"/>
      <path id="Path_139" data-name="Path 139" d="M.213,4.781C-1.887,7.053,4,11.857,12.646,14.923c13.3,4.589,16.673,4.491,16.889-1.6C29.692,8.9,25.15,4.056,19.143,2.572,5.821-1.463,4.473-1.424.213,4.781Z" transform="translate(3555.422 1398.099)" fill="url(#linear-gradient)"/>
      <path id="Path_140" data-name="Path 140" d="M4.54,3.248c-9,6.9-5.168,12.865,7.637,12.493C29.7,15.232,36.079,6.2,22.756,2.166,10.088-1.336,10.088-1.336,4.54,3.248Z" transform="translate(3433.34 1409.362)" fill="url(#linear-gradient)"/>
      <path id="Path_141" data-name="Path 141" d="M-.2,5.528C-.3,8.3,2.971,10.964,6.341,10.866c4.044-.118,6.838-2.963,6.936-5.73.118-3.32-2.5-5.456-6.544-5.338C3.363-.1-.085,2.208-.2,5.528Z" transform="translate(3623.571 1401.983)" fill="url(#linear-gradient)"/>
      <path id="Path_142" data-name="Path 142" d="M1.326,2.79C-1.468,5.635-.257,9.47,3.054,11.032c3.291,2.116,8.048.872,10.168-1.954C16.016,6.233,14.805,2.4,11.494.836,8.2-1.28,3.446-.036,1.326,2.79Z" transform="translate(3492.336 1424.989)" fill="url(#linear-gradient)"/>
      <path id="Path_143" data-name="Path 143" d="M3.17,4.5c-6.183,3.5-4.3,7.312,6.865,15.28C34.345,36.762,40.987,39.333,41.32,29.925c.176-4.981-4.4-8.717-10.47-8.541-7.413.215-9.318-3.046-5.674-10.892C30.305-1.266,19.639-4.273,3.17,4.5Z" transform="translate(3540.068 1449.781)" fill="url(#linear-gradient)"/>
      <path id="Path_144" data-name="Path 144" d="M.751,5.5c1.924,2.708,5.2,5.377,7.218,5.319,1.348-.039,2.794-2.845,2.892-5.612.118-3.32-3.174-5.436-7.218-5.319C.272-.011-1.154,2.242.751,5.5Z" transform="translate(3608.052 1442.022)" fill="url(#linear-gradient)"/>
      <path id="Path_145" data-name="Path 145" d="M.282,6.058c3.076,8.2,24.584,9.237,27.574.857C28.648,3.576,22.026.451,13.284.152,2.559-1.195-1.563,1.137.282,6.058Z" transform="translate(3598.316 1499.057)" fill="url(#linear-gradient)"/>
      <path id="Path_146" data-name="Path 146" d="M.74,4.944C-3.519,11.149,6.355,17.5,13.271,12.319,19.513,7.162,18.439-.546,11.7-.35,7.656-.233,3.534,2.1.74,4.944Z" transform="translate(3062.245 1522.07)" fill="url(#linear-gradient)"/>
      <path id="Path_147" data-name="Path 147" d="M1.326,2.79C-1.468,5.635-.257,9.47,3.054,11.032c3.292,2.116,8.049.872,10.168-1.954C16.016,6.233,14.805,2.4,11.494.836,8.2-1.28,3.446-.036,1.326,2.79Z" transform="translate(3011.198 1541.927)" fill="url(#linear-gradient)"/>
      <path id="Path_148" data-name="Path 148" d="M2.811,8.07c-4.279,6.758-4.475,12.292-1.183,14.408C5.613,24.021,11.8,20.525,16.056,14.32,20.335,7.561,20.53,2.027,17.239-.089,13.254-1.631,7.071,1.866,2.811,8.07Z" transform="translate(3162.936 1564.258)" fill="url(#linear-gradient)"/>
      <path id="Path_149" data-name="Path 149" d="M-.2,5.528C-.3,8.3,2.971,10.964,6.341,10.866c4.044-.118,6.838-2.963,6.936-5.73.118-3.32-2.5-5.456-6.544-5.338C3.363-.1-.085,2.208-.2,5.528Z" transform="translate(3122.625 1606.578)" fill="url(#linear-gradient)"/>
      <path id="Path_150" data-name="Path 150" d="M-.223,6.082C-.321,8.849,3.01,9.858,6.438,8.1c4.1-1.778,6.9-4.623,6.955-6.283C13.433.709,10.776-.319,6.732-.2,3.362-.1-.106,2.761-.223,6.082Z" transform="translate(2991.387 1768.196)" fill="url(#linear-gradient)"/>
      <path id="Path_151" data-name="Path 151" d="M.537,11.035c-2.237,6.146-1.066,11.088,2.3,10.99S9.083,16.868,9.3,10.78,8.343-.249,6.995-.209,2.774,4.889.537,11.035Z" transform="translate(2985.694 1811.706)" fill="url(#linear-gradient)"/>
    </g>
  </g>
</svg>
