<svg xmlns="http://www.w3.org/2000/svg" width="1924.068" height="237.324" viewBox="0 0 1924.068 237.324"><path d="M-37.046,917.324h0l-1924.069,0c.433-.006,55.3-.736,141.953-3.138,51.1-1.416,103.313-3.131,155.185-5.1,64.809-2.456,129.252-5.313,191.539-8.492,158.516-8.09,304.127-18.284,432.789-30.3,76.387-7.134,147.571-15,211.574-23.374,34.4-4.5,67.4-9.24,98.09-14.085,32.085-5.065,62.529-10.386,90.486-15.815,104.7-20.33,201.524-40.184,287.781-59.011,69.005-15.061,131.443-29.5,185.577-42.923,48.158-11.939,80.7-20.843,99.51-26.211,20.271-5.783,29.5-8.846,29.584-8.875V917.323Z" transform="translate(1961.114 -680)" fill="#2b2b2b"/></svg>