<?xml version="1.0" encoding="UTF-8" standalone="no"?>
<svg
   xmlns:dc="http://purl.org/dc/elements/1.1/"
   xmlns:cc="http://creativecommons.org/ns#"
   xmlns:rdf="http://www.w3.org/1999/02/22-rdf-syntax-ns#"
   xmlns:svg="http://www.w3.org/2000/svg"
   xmlns="http://www.w3.org/2000/svg"
   xmlns:sodipodi="http://sodipodi.sourceforge.net/DTD/sodipodi-0.dtd"
   xmlns:inkscape="http://www.inkscape.org/namespaces/inkscape"
   width="1901.533"
   height="1617.861"
   viewBox="0 0 1901.533 1617.861"
   version="1.1"
   id="svg1369"
   sodipodi:docname="Project Board Components.svg"
   inkscape:version="0.92.3 (2405546, 2018-03-11)">
  <metadata
     id="metadata1373">
    <rdf:RDF>
      <cc:Work
         rdf:about="">
        <dc:format>image/svg+xml</dc:format>
        <dc:type
           rdf:resource="http://purl.org/dc/dcmitype/StillImage" />
        <dc:title></dc:title>
      </cc:Work>
    </rdf:RDF>
  </metadata>
  <sodipodi:namedview
     pagecolor="#ffffff"
     bordercolor="#666666"
     borderopacity="1"
     objecttolerance="10"
     gridtolerance="10"
     guidetolerance="10"
     inkscape:pageopacity="0"
     inkscape:pageshadow="2"
     inkscape:window-width="1920"
     inkscape:window-height="1051"
     id="namedview1371"
     showgrid="false"
     inkscape:pagecheckerboard="true"
     inkscape:zoom="0.26516494"
     inkscape:cx="-643.10488"
     inkscape:cy="1804.639"
     inkscape:window-x="-9"
     inkscape:window-y="-9"
     inkscape:window-maximized="1"
     inkscape:current-layer="Project_Board_Components" />
  <defs
     id="defs1097">
    <style
       id="style1095">
      .cls-1 {
        mix-blend-mode: luminosity;
        isolation: isolate;
      }

      .cls-2, .cls-7 {
        fill: #ffe600;
      }

      .cls-12, .cls-13, .cls-15, .cls-16, .cls-17, .cls-18, .cls-3, .cls-6, .cls-8, .cls-9 {
        fill: #2b2b2b;
      }

      .cls-3 {
        font-size: 77px;
      }

      .cls-13, .cls-15, .cls-16, .cls-17, .cls-3 {
        font-family: Impact;
      }

      .cls-4 {
        opacity: 0.8;
      }

      .cls-5 {
        font-size: 25px;
      }

      .cls-5, .cls-7, .cls-8 {
        font-family: Raleway-Regular, Raleway;
      }

      .cls-7 {
        font-size: 32px;
      }

      .cls-8 {
        font-size: 18px;
      }

      .cls-9 {
        font-size: 33px;
      }

      .cls-18, .cls-9 {
        font-family: Raleway-Bold, Raleway;
        font-weight: 700;
      }

      .cls-10 {
        fill: none;
        stroke: #ffe600;
        stroke-width: 11px;
      }

      .cls-11 {
        fill: #fff;
      }

      .cls-12 {
        font-size: 26px;
        font-family: Raleway-Light, Raleway;
        font-weight: 300;
      }

      .cls-13 {
        font-size: 68px;
      }

      .cls-14 {
        stroke: #95eef9;
        stroke-linecap: round;
        stroke-linejoin: round;
        stroke-width: 10px;
      }

      .cls-15 {
        font-size: 45px;
      }

      .cls-16 {
        font-size: 56px;
      }

      .cls-17 {
        font-size: 50px;
      }

      .cls-18 {
        font-size: 22px;
      }
    </style>
  </defs>
  <g
     id="Project_Board_Components"
     data-name="Project Board Components"
     transform="translate(-95.649,-3554.506)">
    <g
       id="DIYHacks_Component"
       data-name="DIYHacks Component"
       class="cls-1"
       transform="rotate(-34,6865.7489,1902.2727)"
       style="isolation:isolate;mix-blend-mode:luminosity">
      <g
         id="Hack">
        <g
           id="Group_4"
           data-name="Group 4">
          <g
             id="Group_1"
             data-name="Group 1">
            <path
               id="Rectangle_1"
               data-name="Rectangle 1"
               class="cls-2"
               d="m 29,0 h 449 a 29,29 0 0 1 29,29 V 284 H 0 V 29 A 29,29 0 0 1 29,0 Z"
               inkscape:connector-curvature="0"
               style="fill:#ffffff;fill-opacity:0.67843137" />
          </g>
          <text
             id="DIYHacks"
             class="cls-3"
             transform="translate(56,114)"
             style="font-size:77px;font-family:Impact;fill:#2b2b2b">
            <tspan
               x="0"
               y="0"
               id="tspan1101">DIYHacks</tspan>
          </text>
          <g
             id="Group_2"
             data-name="Group 2"
             class="cls-4"
             transform="translate(0,284)"
             style="opacity:0.8">
            <path
               id="Rectangle_1-2"
               data-name="Rectangle 1"
               class="cls-2"
               d="m 0,0 h 507 v 118.037 a 29,29 0 0 1 -29,29 H 29 a 29,29 0 0 1 -29,-29 z"
               inkscape:connector-curvature="0"
               style="fill:#ffffff;fill-opacity:0.50980392" />
          </g>
          <text
             id="A_website_for_university_students_to_host_their_own_hackathon_for_any_kind_of_project._"
             data-name="A website for university students to host their own hackathon for  any kind of project. "
             class="cls-5"
             transform="translate(56,308)"
             style="font-size:25px;font-family:Raleway-Regular, Raleway">
            <tspan
               x="0"
               y="24"
               id="tspan1106">A website for university students</tspan>
            <tspan
               x="0"
               y="54"
               xml:space="preserve"
               id="tspan1108">to host their own hackathon for  </tspan>            <tspan
               x="0"
               y="84"
               id="tspan1110">any kind of project.</tspan>
            <tspan
               x="0"
               y="114"
               id="tspan1112" />
          </text>
          <g
             id="Group_3"
             data-name="Group 3"
             transform="translate(329,140)">
            <rect
               id="Rectangle_4"
               data-name="Rectangle 4"
               class="cls-6"
               width="108"
               height="112"
               rx="14"
               x="0"
               y="0"
               style="fill:#2b2b2b" />
            <text
               id="Sep._21-22"
               data-name="Sep.  21-22"
               class="cls-7"
               transform="translate(54,49)"
               style="font-size:32px;font-family:Raleway-Regular, Raleway;fill:#ffffff;fill-opacity:1">
              <tspan
                 x="-36.080002"
                 y="0"
                 id="tspan1116"
                 style="fill:#ffffff;fill-opacity:1">Sep.</tspan>
              <tspan
                 x="-38.208"
                 y="37"
                 id="tspan1118"
                 style="fill:#ffffff;fill-opacity:1">21-22</tspan>
            </text>
          </g>
          <text
             id="Hosted_By:_Aliah_Shaira_De..."
             data-name="Hosted By: Aliah Shaira De..."
             class="cls-8"
             transform="translate(171,149)"
             style="font-size:18px;font-family:Raleway-Regular, Raleway;fill:#2b2b2b">
            <tspan
               x="-114.561"
               y="0"
               id="tspan1122">Hosted By: Aliah Shaira De...</tspan>
          </text>
          <text
             id="Northwest_4.416"
             data-name="Northwest 4.416"
             class="cls-9"
             transform="translate(184,188)"
             style="font-weight:700;font-size:33px;font-family:Raleway-Bold, Raleway;fill:#2b2b2b">
            <tspan
               x="-127.562"
               y="0"
               id="tspan1125">Northwest 4.416</tspan>
          </text>
          <g
             id="Web_Skill"
             data-name="Web Skill"
             transform="translate(383,52)" />
        </g>
        <rect
           id="Rectangle_5"
           data-name="Rectangle 5"
           class="cls-11"
           width="244"
           height="47"
           rx="9"
           transform="translate(56,204)"
           x="0"
           y="0"
           style="fill:#ffffff" />
        <text
           id="Sign_Up"
           data-name="Sign Up"
           class="cls-12"
           transform="translate(178,237)"
           style="font-weight:300;font-size:26px;font-family:Raleway-Light, Raleway;fill:#2b2b2b">
          <tspan
             x="-47.125"
             y="0"
             id="tspan1132">Sign Up</tspan>
        </text>
      </g>
      <g
         id="Web_Skill-2"
         data-name="Web Skill"
         transform="translate(290.56605,27.181222)">
        <path
           id="Icon_material-desktop-windows-2"
           data-name="Icon material-desktop-windows"
           class="cls-6"
           d="M 153.63618,31.617374 H 98.521176 a 6.133,6.133 0 0 0 -6.124,6.106 v 36.634 a 6.133,6.133 0 0 0 6.124,6.106 h 21.433004 v 6.106 h -6.123 v 6.106 h 24.5 v -6.107 h -6.129 v -6.106 h 21.434 a 6.133,6.133 0 0 0 6.124,-6.106 v -36.633 a 6.133,6.133 0 0 0 -6.124,-6.106 z m 0,42.74 z"
           inkscape:connector-curvature="0"
           style="fill:#2b2b2b" />
      </g>
    </g>
    <g
       id="Foodie_Component"
       data-name="Foodie Component"
       class="cls-1"
       transform="rotate(-34,7547.8365,1288.5031)"
       style="isolation:isolate;mix-blend-mode:luminosity">
      <g
         id="Hack-2"
         data-name="Hack">
        <g
           id="Group_4-2"
           data-name="Group 4">
          <g
             id="Group_1-2"
             data-name="Group 1">
            <path
               id="Rectangle_1-3"
               data-name="Rectangle 1"
               class="cls-2"
               d="m 29,0 h 449 a 29,29 0 0 1 29,29 V 284 H 0 V 29 A 29,29 0 0 1 29,0 Z"
               inkscape:connector-curvature="0"
               style="fill:#ffffff;fill-opacity:0.67961162" />
          </g>
          <text
             id="Foodie_App"
             data-name="Foodie App"
             class="cls-13"
             transform="translate(56,114)"
             style="font-size:68px;font-family:Impact;fill:#2b2b2b">
            <tspan
               x="0"
               y="0"
               id="tspan1141">Foodie App</tspan>
          </text>
          <g
             id="Group_2-2"
             data-name="Group 2"
             class="cls-4"
             transform="translate(0,284)"
             style="opacity:0.8;fill:#ffffff;fill-opacity:0.50970878">
            <path
               id="Rectangle_1-4"
               data-name="Rectangle 1"
               class="cls-2"
               d="m 0,0 h 507 v 394.56 a 29,29 0 0 1 -29,29 H 29 a 29,29 0 0 1 -29,-29 z"
               inkscape:connector-curvature="0"
               style="fill:#ffffff;fill-opacity:0.50970878" />
          </g>
          <text
             id="Develop_an_app_that_allows_users_to_weigh_in_on_the_quality_of_on-campus_food_for_the_day._Sometimes_the_food_can_be_great_sometimes_it_can_be_not_great._Help_out_fellow_students_by_leaving_short_ratings_of_the_food_quality_per_day_then_display_these_qua"
             data-name="Develop an app that allows users to weigh in on the quality of on-campus food for the day. Sometimes the food can be great, sometimes it can be not great. Help out fellow students by leaving short ratings of the food quality per day, then display these qua"
             class="cls-5"
             transform="translate(56,308)"
             style="font-size:25px;font-family:Raleway-Regular, Raleway">
            <tspan
               x="0"
               y="24"
               id="tspan1146">Develop an app that allows</tspan>
            <tspan
               x="0"
               y="54"
               id="tspan1148">users to weigh in on the quality</tspan>
            <tspan
               x="0"
               y="84"
               id="tspan1150">of on-campus food for the day.</tspan>
            <tspan
               x="0"
               y="114"
               id="tspan1152">Sometimes the food can be</tspan>
            <tspan
               x="0"
               y="144"
               id="tspan1154">great, sometimes it can be not</tspan>
            <tspan
               x="0"
               y="174"
               id="tspan1156">great. Help out fellow students</tspan>
            <tspan
               x="0"
               y="204"
               id="tspan1158">by leaving short ratings of the</tspan>
            <tspan
               x="0"
               y="234"
               id="tspan1160">food quality per day, then</tspan>
            <tspan
               x="0"
               y="264"
               id="tspan1162">display these quality ratings on</tspan>
            <tspan
               x="0"
               y="294"
               id="tspan1164">the app for all to see when they</tspan>
            <tspan
               x="0"
               y="324"
               id="tspan1166">are planning which restaurant to</tspan>
            <tspan
               x="0"
               y="354"
               id="tspan1168">go to.</tspan>
          </text>
          <g
             id="Group_3-2"
             data-name="Group 3"
             transform="translate(329,140)">
            <rect
               id="Rectangle_4-2"
               data-name="Rectangle 4"
               class="cls-6"
               width="108"
               height="112"
               rx="14"
               x="0"
               y="0"
               style="fill:#2b2b2b" />
            <text
               id="Dec._1-2"
               data-name="Dec. 1-2"
               class="cls-7"
               transform="translate(54,49)"
               style="font-size:32px;font-family:Raleway-Regular, Raleway;fill:#ffffff;fill-opacity:1">
              <tspan
                 x="-32.639999"
                 y="0"
                 id="tspan1172"
                 style="fill:#ffffff;fill-opacity:1">Dec.</tspan>
              <tspan
                 x="-21.535999"
                 y="37"
                 id="tspan1174"
                 style="fill:#ffffff;fill-opacity:1">1-2</tspan>
            </text>
          </g>
          <text
             id="Hosted_By:_Samuel_Anozie."
             data-name="Hosted By: Samuel Anozie."
             class="cls-8"
             transform="translate(60,149)"
             style="font-size:18px;font-family:Raleway-Regular, Raleway;fill:#2b2b2b">
            <tspan
               x="0"
               y="0"
               id="tspan1178">Hosted By: Samuel Anozie.</tspan>
          </text>
          <text
             id="CB3_2.02"
             data-name="CB3 2.02"
             class="cls-9"
             transform="translate(124.924,187.958)"
             style="font-weight:700;font-size:33px;font-family:Raleway-Bold, Raleway;fill:#2b2b2b">
            <tspan
               x="-68.161003"
               y="0"
               id="tspan1181">CB3 2.02</tspan>
          </text>
        </g>
        <rect
           id="Rectangle_5-2"
           data-name="Rectangle 5"
           class="cls-11"
           width="244"
           height="47"
           rx="9"
           transform="translate(56,204)"
           x="0"
           y="0"
           style="fill:#ffffff" />
        <text
           id="Sign_Up-2"
           data-name="Sign Up"
           class="cls-12"
           transform="translate(178,237)"
           style="font-weight:300;font-size:26px;font-family:Raleway-Light, Raleway;fill:#2b2b2b">
          <tspan
             x="-47.125"
             y="0"
             id="tspan1188">Sign Up</tspan>
        </text>
      </g>
      <g
         id="App_Dev_Skill"
         data-name="App Dev Skill"
         transform="translate(369.19474,41.850268)">
        <g
           id="Icon_feather-smartphone"
           data-name="Icon feather-smartphone"
           transform="translate(30.155288,-2.9802257)"
           style="fill:none;fill-opacity:1;stroke:#2b2b2b;stroke-opacity:1">
          <path
             id="Path_1"
             data-name="Path 1"
             class="cls-14"
             d="m 15.955,3 h 42.274 a 8.441,8.441 0 0 1 8.455,8.426 v 67.41 a 8.441,8.441 0 0 1 -8.455,8.426 H 15.955 A 8.441,8.441 0 0 1 7.5,78.837 V 11.426 A 8.441,8.441 0 0 1 15.955,3 Z"
             transform="translate(-7.5,-3)"
             inkscape:connector-curvature="0"
             style="fill:none;fill-opacity:1;stroke:#2b2b2b;stroke-width:10px;stroke-linecap:round;stroke-linejoin:round;stroke-opacity:1" />
          <path
             id="Path_2"
             data-name="Path 2"
             class="cls-14"
             d="m 18,27 v 0"
             transform="translate(11.592,40.41)"
             inkscape:connector-curvature="0"
             style="fill:none;fill-opacity:1;stroke:#2b2b2b;stroke-width:10px;stroke-linecap:round;stroke-linejoin:round;stroke-opacity:1" />
        </g>
      </g>
    </g>
    <g
       id="QRCode_Component"
       data-name="QRCode Component"
       class="cls-1"
       transform="rotate(-34,7835.0198,2203.3773)"
       style="isolation:isolate;mix-blend-mode:luminosity">
      <g
         id="Hack-3"
         data-name="Hack">
        <g
           id="Group_4-3"
           data-name="Group 4">
          <g
             id="Group_1-3"
             data-name="Group 1">
            <path
               id="Rectangle_1-5"
               data-name="Rectangle 1"
               class="cls-2"
               d="m 29,0 h 449 a 29,29 0 0 1 29,29 V 284 H 0 V 29 A 29,29 0 0 1 29,0 Z"
               inkscape:connector-curvature="0"
               style="fill:#ffffff;fill-opacity:0.67843137" />
          </g>
          <text
             id="QRcode_Receipts"
             data-name="QRcode Receipts"
             class="cls-15"
             transform="translate(56,114)"
             style="font-size:45px;font-family:Impact;fill:#2b2b2b">
            <tspan
               x="0"
               y="0"
               id="tspan1199">QRcode Receipts</tspan>
          </text>
          <g
             id="Group_2-3"
             data-name="Group 2"
             class="cls-4"
             transform="translate(0,284)"
             style="opacity:0.8">
            <path
               id="Rectangle_1-6"
               data-name="Rectangle 1"
               class="cls-2"
               d="m 0,0 h 507 v 201.037 a 29,29 0 0 1 -29,29 H 29 a 29,29 0 0 1 -29,-29 z"
               inkscape:connector-curvature="0"
               style="fill:#ffffff;fill-opacity:0.50980386" />
          </g>
          <text
             id="Instead_of_wasting_paper_on_receipts_and_sending_them_to_an_email_where_they_might_get_lost_make_an_app_that_will_scan_receipts_via_QR_Code_and_store_them._"
             data-name="Instead of wasting paper on receipts and sending them to an email where they might get lost, make an app that will scan receipts via QR Code and store them. "
             class="cls-5"
             transform="translate(56,308)"
             style="font-size:25px;font-family:Raleway-Regular, Raleway">
            <tspan
               x="0"
               y="24"
               id="tspan1204">Instead of wasting paper on</tspan>
            <tspan
               x="0"
               y="54"
               id="tspan1206">receipts and sending them to an</tspan>
            <tspan
               x="0"
               y="84"
               id="tspan1208">email where they might get lost,</tspan>
            <tspan
               x="0"
               y="114"
               id="tspan1210">make an app that will scan</tspan>
            <tspan
               x="0"
               y="144"
               id="tspan1212">receipts via QR Code and store</tspan>
            <tspan
               x="0"
               y="174"
               id="tspan1214">them.</tspan>
          </text>
          <g
             id="Group_3-3"
             data-name="Group 3"
             transform="translate(329,140)">
            <rect
               id="Rectangle_4-3"
               data-name="Rectangle 4"
               class="cls-6"
               width="108"
               height="112"
               rx="14"
               x="0"
               y="0"
               style="fill:#2b2b2b" />
            <text
               id="May._1-22"
               data-name="May.  1-22"
               class="cls-7"
               transform="translate(54,49)"
               style="font-size:32px;font-family:Raleway-Regular, Raleway;fill:#ffffff;fill-opacity:1">
              <tspan
                 x="-37.472"
                 y="0"
                 id="tspan1218"
                 style="fill:#ffffff;fill-opacity:1">May.</tspan>
              <tspan
                 x="-29.872"
                 y="37"
                 id="tspan1220"
                 style="fill:#ffffff;fill-opacity:1">1-22</tspan>
            </text>
          </g>
          <text
             id="Hosted_By:_Aliah_Shaira_De...-2"
             data-name="Hosted By: Aliah Shaira De..."
             class="cls-8"
             transform="translate(171,149)"
             style="font-size:18px;font-family:Raleway-Regular, Raleway;fill:#2b2b2b">
            <tspan
               x="-114.561"
               y="0"
               id="tspan1224">Hosted By: Aliah Shaira De...</tspan>
          </text>
          <text
             id="ECSW_2.202"
             data-name="ECSW 2.202"
             class="cls-9"
             transform="translate(144.031,193.608)"
             style="font-weight:700;font-size:33px;font-family:Raleway-Bold, Raleway;fill:#2b2b2b">
            <tspan
               x="-93.373001"
               y="0"
               id="tspan1227">ECSW 2.202</tspan>
          </text>
          <g
             id="Web_Skill-4"
             data-name="Web Skill"
             transform="translate(383,52)" />
        </g>
        <rect
           id="Rectangle_5-3"
           data-name="Rectangle 5"
           class="cls-11"
           width="244"
           height="47"
           rx="9"
           transform="translate(56,204)"
           x="0"
           y="0"
           style="fill:#ffffff" />
        <text
           id="Sign_Up-3"
           data-name="Sign Up"
           class="cls-12"
           transform="translate(178,237)"
           style="font-weight:300;font-size:26px;font-family:Raleway-Light, Raleway;fill:#2b2b2b">
          <tspan
             x="-47.125"
             y="0"
             id="tspan1234">Sign Up</tspan>
        </text>
      </g>
      <g
         id="computing-cloud"
         transform="translate(389.672,77.071)">
        <path
           id="Subtraction_18"
           data-name="Subtraction 18"
           d="M 53.121,36.119 H 12.748 A 12.689,12.689 0 0 1 5.62,33.942 12.785,12.785 0 0 1 1,28.333 12.731,12.731 0 0 1 2.177,16.244 a 12.784,12.784 0 0 1 5.609,-4.619 12.668,12.668 0 0 1 4.962,-1 h 0.013 a 12.618,12.618 0 0 1 1.548,0.1 A 18.055,18.055 0 0 1 30.8,0 c 0.548,0 1.1,0.025 1.651,0.075 a 18.052,18.052 0 0 1 15.916,13.757 c 0.151,-0.01 0.327,-0.021 0.5,-0.021 a 6.371,6.371 0 0 1 6.321,5.566 8.5,8.5 0 0 1 -2.066,16.742 z M 41.43,22.575 a 4.249,4.249 0 1 0 4.249,4.249 4.254,4.254 0 0 0 -4.249,-4.249 z m -21.246,0 a 4.249,4.249 0 1 0 4.249,4.249 4.254,4.254 0 0 0 -4.249,-4.249 z M 26.545,19.4 a 1.058,1.058 0 0 0 -0.738,0.3 l -2.125,2.125 a 1.062,1.062 0 1 0 1.5,1.5 L 27.309,21.2 A 1.068,1.068 0 0 0 27.296,19.711 1.055,1.055 0 0 0 26.545,19.4 Z m 8.524,0 A 1.056,1.056 0 0 0 34.318,19.711 1.068,1.068 0 0 0 34.3,21.2 l 2.125,2.125 a 1.062,1.062 0 0 0 1.5,-1.5 L 35.807,19.7 a 1.057,1.057 0 0 0 -0.738,-0.3 z m -4.262,-7.449 a 4.249,4.249 0 1 0 4.249,4.249 4.254,4.254 0 0 0 -4.249,-4.248 z m 10.623,17 a 2.124,2.124 0 1 1 1.5,-0.622 2.111,2.111 0 0 1 -1.5,0.62 z m -21.246,0 a 2.125,2.125 0 1 1 1.5,-0.622 2.111,2.111 0 0 1 -1.5,0.62 z M 30.807,18.326 a 2.125,2.125 0 1 1 1.5,-0.622 2.111,2.111 0 0 1 -1.5,0.622 z"
           inkscape:connector-curvature="0" />
      </g>
    </g>
    <g
       id="Gradient_Component"
       data-name="Gradient Component"
       class="cls-1"
       transform="rotate(-34,6565.2159,997.68175)"
       style="isolation:isolate;mix-blend-mode:luminosity">
      <g
         id="Hack-4"
         data-name="Hack">
        <g
           id="Group_4-4"
           data-name="Group 4">
          <g
             id="Group_1-4"
             data-name="Group 1">
            <path
               id="Rectangle_1-7"
               data-name="Rectangle 1"
               class="cls-2"
               d="m 29,0 h 449 a 29,29 0 0 1 29,29 V 284 H 0 V 29 A 29,29 0 0 1 29,0 Z"
               inkscape:connector-curvature="0"
               style="fill:#ffffff;fill-opacity:0.67843137" />
          </g>
          <text
             id="GRADIENT_GEN"
             data-name="GRADIENT GEN"
             class="cls-16"
             transform="translate(56,114)"
             style="font-size:56px;font-family:Impact;fill:#2b2b2b">
            <tspan
               x="0"
               y="0"
               id="tspan1243">GRADIENT GEN</tspan>
          </text>
          <g
             id="Group_2-4"
             data-name="Group 2"
             class="cls-4"
             transform="translate(0,284)"
             style="opacity:0.8">
            <path
               id="Rectangle_1-8"
               data-name="Rectangle 1"
               class="cls-2"
               d="m 0,0 h 507 v 145.037 a 29,29 0 0 1 -29,29 H 29 a 29,29 0 0 1 -29,-29 z"
               inkscape:connector-curvature="0"
               style="fill:#ffffff;fill-opacity:0.50980392" />
          </g>
          <text
             id="Develop_a_site_that_can_create_unconventional_gradients_with_different_shapes_and_save_as_a_CSS3_background_image._"
             data-name="Develop a site that can create unconventional gradients with different shapes, and save as a CSS3 background image. "
             class="cls-5"
             transform="translate(56,308)"
             style="font-size:25px;font-family:Raleway-Regular, Raleway">
            <tspan
               x="0"
               y="24"
               id="tspan1248">Develop a site that can create</tspan>
            <tspan
               x="0"
               y="54"
               id="tspan1250">unconventional gradients with</tspan>
            <tspan
               x="0"
               y="84"
               id="tspan1252">different shapes, and save as a</tspan>
            <tspan
               x="0"
               y="114"
               id="tspan1254">CSS3 background image.</tspan>
          </text>
          <g
             id="Group_3-4"
             data-name="Group 3"
             transform="translate(329,140)">
            <rect
               id="Rectangle_4-4"
               data-name="Rectangle 4"
               class="cls-6"
               width="108"
               height="112"
               rx="14"
               x="0"
               y="0"
               style="fill:#2b2b2b" />
            <text
               id="Sep._21-22-2"
               data-name="Sep.  21-22"
               class="cls-7"
               transform="translate(54,49)"
               style="font-size:32px;font-family:Raleway-Regular, Raleway;fill:#fffffe;fill-opacity:1">
              <tspan
                 x="-36.080002"
                 y="0"
                 id="tspan1258"
                 style="fill:#fffffe;fill-opacity:1">Sep.</tspan>
              <tspan
                 x="-38.208"
                 y="37"
                 id="tspan1260"
                 style="fill:#fffffe;fill-opacity:1">21-22</tspan>
            </text>
          </g>
          <text
             id="Hosted_By:_Aliah_Shaira_De...-3"
             data-name="Hosted By: Aliah Shaira De..."
             class="cls-8"
             transform="translate(171,149)"
             style="font-size:18px;font-family:Raleway-Regular, Raleway;fill:#2b2b2b">
            <tspan
               x="-114.561"
               y="0"
               id="tspan1264">Hosted By: Aliah Shaira De...</tspan>
          </text>
          <text
             id="Northwest_4.416-2"
             data-name="Northwest 4.416"
             class="cls-9"
             transform="translate(184,188)"
             style="font-weight:700;font-size:33px;font-family:Raleway-Bold, Raleway;fill:#2b2b2b">
            <tspan
               x="-127.562"
               y="0"
               id="tspan1267">Northwest 4.416</tspan>
          </text>
          <g
             id="Web_Skill-5"
             data-name="Web Skill"
             transform="translate(383,52)" />
        </g>
        <rect
           id="Rectangle_5-4"
           data-name="Rectangle 5"
           class="cls-11"
           width="244"
           height="47"
           rx="9"
           transform="translate(56,204)"
           x="0"
           y="0"
           style="fill:#ffffff" />
        <text
           id="Sign_Up-4"
           data-name="Sign Up"
           class="cls-12"
           transform="translate(178,237)"
           style="font-weight:300;font-size:26px;font-family:Raleway-Light, Raleway;fill:#2b2b2b">
          <tspan
             x="-47.125"
             y="0"
             id="tspan1274">Sign Up</tspan>
        </text>
      </g>
      <g
         id="Open_Source_SKill"
         data-name="Open Source SKill"
         transform="translate(393.336,66.274)">
        <g
           id="Group_8"
           data-name="Group 8">
          <path
             id="Path_3"
             data-name="Path 3"
             d="M 28.667,8.144 A 28.582,28.582 0 0 0 18.39,63.428 1.767,1.767 0 0 0 19.809,63.367 1.8,1.8 0 0 0 20.737,62.29 l 5.375,-17.132 a 1.784,1.784 0 0 0 -0.842,-2.1 7.163,7.163 0 1 1 6.794,0 1.78,1.78 0 0 0 -0.842,2.1 L 36.6,62.294 a 1.8,1.8 0 0 0 0.928,1.077 1.82,1.82 0 0 0 0.781,0.179 1.783,1.783 0 0 0 0.638,-0.118 28.584,28.584 0 0 0 -10.28,-55.288 z"
             transform="translate(0,-8.144)"
             inkscape:connector-curvature="0" />
        </g>
      </g>
    </g>
    <g
       id="Component_8_7"
       data-name="Component 8 – 7"
       class="cls-1"
       transform="rotate(-34,7254.6489,364.71206)"
       style="isolation:isolate;mix-blend-mode:luminosity">
      <g
         id="Hack-5"
         data-name="Hack">
        <g
           id="Group_4-5"
           data-name="Group 4">
          <g
             id="Group_1-5"
             data-name="Group 1">
            <path
               id="Rectangle_1-9"
               data-name="Rectangle 1"
               class="cls-2"
               d="m 29,0 h 449 a 29,29 0 0 1 29,29 V 284 H 0 V 29 A 29,29 0 0 1 29,0 Z"
               inkscape:connector-curvature="0"
               style="fill:#ffffff;fill-opacity:0.67843137" />
          </g>
          <text
             id="YOUR_IDEA_HERE"
             data-name="YOUR IDEA HERE"
             class="cls-17"
             transform="translate(56,114)"
             style="font-size:50px;font-family:Impact;fill:#2b2b2b">
            <tspan
               x="0"
               y="0"
               id="tspan1284">YOUR IDEA HERE</tspan>
          </text>
          <g
             id="Group_2-5"
             data-name="Group 2"
             class="cls-4"
             transform="translate(0,284)"
             style="opacity:0.8">
            <path
               id="Rectangle_1-10"
               data-name="Rectangle 1"
               class="cls-2"
               d="m 0,0 h 507 v 145.037 a 29,29 0 0 1 -29,29 H 29 a 29,29 0 0 1 -29,-29 z"
               inkscape:connector-curvature="0"
               style="fill:#ffffff;fill-opacity:0.50980386" />
          </g>
          <text
             id="Lorem_ipsum_dolor_sit_amet_consetetur_sadipscing_elitr_sed_diam_nonumy_eirmod_tempor_invidunt_ut_labore_et_dolore_"
             data-name="Lorem ipsum dolor sit amet, consetetur sadipscing elitr, sed diam nonumy eirmod tempor invidunt ut labore et dolore…"
             class="cls-5"
             transform="translate(56,308)"
             style="font-size:25px;font-family:Raleway-Regular, Raleway">
            <tspan
               x="0"
               y="24"
               id="tspan1289">Lorem ipsum dolor sit amet,</tspan>
            <tspan
               x="0"
               y="54"
               id="tspan1291">consetetur sadipscing elitr, sed</tspan>
            <tspan
               x="0"
               y="84"
               id="tspan1293">diam nonumy eirmod tempor</tspan>
            <tspan
               x="0"
               y="114"
               id="tspan1295">invidunt ut labore et dolore…</tspan>
          </text>
          <g
             id="Group_3-5"
             data-name="Group 3"
             transform="translate(329,140)">
            <rect
               id="Rectangle_4-5"
               data-name="Rectangle 4"
               class="cls-6"
               width="108"
               height="112"
               rx="14"
               x="0"
               y="0"
               style="fill:#2b2b2b" />
            <text
               id="Your_time_"
               data-name="Your time "
               class="cls-7"
               transform="translate(54,49)"
               style="font-size:32px;font-family:Raleway-Regular, Raleway;fill:#ffffff;fill-opacity:1">
              <tspan
                 x="-33.568001"
                 y="0"
                 id="tspan1299"
                 style="fill:#ffffff;fill-opacity:1">Your</tspan>
              <tspan
                 x="-32.944"
                 y="37"
                 id="tspan1301"
                 style="fill:#ffffff;fill-opacity:1">time</tspan>
              <tspan
                 x="0"
                 y="74"
                 id="tspan1303"
                 style="fill:#ffffff;fill-opacity:1" />
            </text>
          </g>
          <text
             id="Hosted_By:_Aliah_Shaira_De...-4"
             data-name="Hosted By: Aliah Shaira De..."
             class="cls-8"
             transform="translate(171,149)"
             style="font-size:18px;font-family:Raleway-Regular, Raleway;fill:#2b2b2b">
            <tspan
               x="-114.561"
               y="0"
               id="tspan1307">Hosted By: Aliah Shaira De...</tspan>
          </text>
          <text
             id="Any_location_on_campus"
             data-name="Any location on campus"
             class="cls-18"
             transform="translate(184,188)"
             style="font-weight:700;font-size:22px;font-family:Raleway-Bold, Raleway;fill:#2b2b2b">
            <tspan
               x="-125.851"
               y="0"
               id="tspan1310">Any location on campus</tspan>
          </text>
          <g
             id="Web_Skill-6"
             data-name="Web Skill"
             transform="translate(383,52)" />
        </g>
        <rect
           id="Rectangle_5-5"
           data-name="Rectangle 5"
           class="cls-11"
           width="244"
           height="47"
           rx="9"
           transform="translate(56,204)"
           x="0"
           y="0"
           style="fill:#ffffff" />
        <text
           id="Sign_Up-5"
           data-name="Sign Up"
           class="cls-12"
           transform="translate(178,237)"
           style="font-weight:300;font-size:26px;font-family:Raleway-Light, Raleway;fill:#2b2b2b">
          <tspan
             x="-47.125"
             y="0"
             id="tspan1317">Sign Up</tspan>
        </text>
      </g>
      <g
         id="Open_Source_SKill-2"
         data-name="Open Source SKill"
         transform="translate(393.336,66.274)">
        <g
           id="Group_8-2"
           data-name="Group 8">
          <path
             id="Path_3-2"
             data-name="Path 3"
             d="M 28.667,8.144 A 28.582,28.582 0 0 0 18.39,63.428 1.767,1.767 0 0 0 19.809,63.367 1.8,1.8 0 0 0 20.737,62.29 l 5.375,-17.132 a 1.784,1.784 0 0 0 -0.842,-2.1 7.163,7.163 0 1 1 6.794,0 1.78,1.78 0 0 0 -0.842,2.1 L 36.6,62.294 a 1.8,1.8 0 0 0 0.928,1.077 1.82,1.82 0 0 0 0.781,0.179 1.783,1.783 0 0 0 0.638,-0.118 28.584,28.584 0 0 0 -10.28,-55.288 z"
             transform="translate(0,-8.144)"
             inkscape:connector-curvature="0" />
        </g>
      </g>
    </g>
    <g
       id="Component_8_8"
       data-name="Component 8 – 8"
       class="cls-1"
       transform="rotate(-34,8081.9766,116.69201)"
       style="isolation:isolate;mix-blend-mode:luminosity">
      <g
         id="Hack-6"
         data-name="Hack">
        <g
           id="Group_4-6"
           data-name="Group 4">
          <g
             id="Group_1-6"
             data-name="Group 1">
            <path
               id="Rectangle_1-11"
               data-name="Rectangle 1"
               class="cls-2"
               d="m 29,0 h 449 a 29,29 0 0 1 29,29 V 284 H 0 V 29 A 29,29 0 0 1 29,0 Z"
               inkscape:connector-curvature="0"
               style="fill:#ffffff;fill-opacity:0.67843137" />
          </g>
          <text
             id="YOUR_IDEA_HERE-2"
             data-name="YOUR IDEA HERE"
             class="cls-17"
             transform="translate(56,114)"
             style="font-size:50px;font-family:Impact;fill:#2b2b2b">
            <tspan
               x="0"
               y="0"
               id="tspan1327">YOUR IDEA HERE</tspan>
          </text>
          <g
             id="Group_2-6"
             data-name="Group 2"
             class="cls-4"
             transform="translate(0,284)"
             style="opacity:0.8">
            <path
               id="Rectangle_1-12"
               data-name="Rectangle 1"
               class="cls-2"
               d="m 0,0 h 507 v 145.037 a 29,29 0 0 1 -29,29 H 29 a 29,29 0 0 1 -29,-29 z"
               inkscape:connector-curvature="0"
               style="fill:#ffffff;fill-opacity:0.50980386" />
          </g>
          <text
             id="Lorem_ipsum_dolor_sit_amet_consetetur_sadipscing_elitr_sed_diam_nonumy_eirmod_tempor_invidunt_ut_labore_et_dolore_2"
             data-name="Lorem ipsum dolor sit amet, consetetur sadipscing elitr, sed diam nonumy eirmod tempor invidunt ut labore et dolore…"
             class="cls-5"
             transform="translate(56,308)"
             style="font-size:25px;font-family:Raleway-Regular, Raleway">
            <tspan
               x="0"
               y="24"
               id="tspan1332">Lorem ipsum dolor sit amet,</tspan>
            <tspan
               x="0"
               y="54"
               id="tspan1334">consetetur sadipscing elitr, sed</tspan>
            <tspan
               x="0"
               y="84"
               id="tspan1336">diam nonumy eirmod tempor</tspan>
            <tspan
               x="0"
               y="114"
               id="tspan1338">invidunt ut labore et dolore…</tspan>
          </text>
          <g
             id="Group_3-6"
             data-name="Group 3"
             transform="translate(329,140)">
            <rect
               id="Rectangle_4-6"
               data-name="Rectangle 4"
               class="cls-6"
               width="108"
               height="112"
               rx="14"
               x="0"
               y="0"
               style="fill:#2b2b2b" />
            <text
               id="Your_time_2"
               data-name="Your time "
               class="cls-7"
               transform="translate(54,49)"
               style="font-size:32px;font-family:Raleway-Regular, Raleway;fill:#ffffff;fill-opacity:1">
              <tspan
                 x="-33.568001"
                 y="0"
                 id="tspan1342"
                 style="fill:#ffffff;fill-opacity:1">Your</tspan>
              <tspan
                 x="-32.944"
                 y="37"
                 id="tspan1344"
                 style="fill:#ffffff;fill-opacity:1">time</tspan>
              <tspan
                 x="0"
                 y="74"
                 id="tspan1346"
                 style="fill:#ffffff;fill-opacity:1" />
            </text>
          </g>
          <text
             id="Hosted_By:_Aliah_Shaira_De...-5"
             data-name="Hosted By: Aliah Shaira De..."
             class="cls-8"
             transform="translate(171,149)"
             style="font-size:18px;font-family:Raleway-Regular, Raleway;fill:#2b2b2b">
            <tspan
               x="-114.561"
               y="0"
               id="tspan1350">Hosted By: Aliah Shaira De...</tspan>
          </text>
          <text
             id="Any_location_on_campus-2"
             data-name="Any location on campus"
             class="cls-18"
             transform="translate(184,188)"
             style="font-weight:700;font-size:22px;font-family:Raleway-Bold, Raleway;fill:#2b2b2b">
            <tspan
               x="-125.851"
               y="0"
               id="tspan1353">Any location on campus</tspan>
          </text>
          <g
             id="Web_Skill-7"
             data-name="Web Skill"
             transform="translate(383,52)" />
        </g>
        <rect
           id="Rectangle_5-6"
           data-name="Rectangle 5"
           class="cls-11"
           width="244"
           height="47"
           rx="9"
           transform="translate(56,204)"
           x="0"
           y="0"
           style="fill:#ffffff" />
        <text
           id="Sign_Up-6"
           data-name="Sign Up"
           class="cls-12"
           transform="translate(178,237)"
           style="font-weight:300;font-size:26px;font-family:Raleway-Light, Raleway;fill:#2b2b2b">
          <tspan
             x="-47.125"
             y="0"
             id="tspan1360">Sign Up</tspan>
        </text>
      </g>
      <g
         id="Open_Source_SKill-3"
         data-name="Open Source SKill"
         transform="translate(393.336,66.274)">
        <g
           id="Group_8-3"
           data-name="Group 8">
          <path
             id="Path_3-3"
             data-name="Path 3"
             d="M 28.667,8.144 A 28.582,28.582 0 0 0 18.39,63.428 1.767,1.767 0 0 0 19.809,63.367 1.8,1.8 0 0 0 20.737,62.29 l 5.375,-17.132 a 1.784,1.784 0 0 0 -0.842,-2.1 7.163,7.163 0 1 1 6.794,0 1.78,1.78 0 0 0 -0.842,2.1 L 36.6,62.294 a 1.8,1.8 0 0 0 0.928,1.077 1.82,1.82 0 0 0 0.781,0.179 1.783,1.783 0 0 0 0.638,-0.118 28.584,28.584 0 0 0 -10.28,-55.288 z"
             transform="translate(0,-8.144)"
             inkscape:connector-curvature="0" />
        </g>
      </g>
    </g>
  </g>
</svg>
