<svg xmlns="http://www.w3.org/2000/svg" width="1901.533" height="1617.861" viewBox="0 0 1901.533 1617.861">
  <g id="Project_Board_Components" data-name="Project Board Components" transform="translate(-83.649 -3554.506)" opacity="0.4">
    <g id="DIYHacks_Component" data-name="DIYHacks Component" transform="translate(83.649 4160.724) rotate(-34)" opacity="0.17" style="mix-blend-mode: luminosity;isolation: isolate">
      <g id="Hack">
        <g id="Group_4" data-name="Group 4">
          <g id="Group_1" data-name="Group 1">
            <path id="Rectangle_1" data-name="Rectangle 1" d="M29,0H478a29,29,0,0,1,29,29V284a0,0,0,0,1,0,0H0a0,0,0,0,1,0,0V29A29,29,0,0,1,29,0Z" fill="#ffe600"/>
          </g>
          <text id="DIYHacks" transform="translate(56 114)" fill="#2b2b2b" font-size="77" font-family="Impact"><tspan x="0" y="0">DIYHacks</tspan></text>
          <g id="Group_2" data-name="Group 2" transform="translate(0 284)" opacity="0.8">
            <path id="Rectangle_1-2" data-name="Rectangle 1" d="M0,0H507a0,0,0,0,1,0,0V118.037a29,29,0,0,1-29,29H29a29,29,0,0,1-29-29V0A0,0,0,0,1,0,0Z" fill="#ffe600"/>
          </g>
          <text id="A_website_for_university_students_to_host_their_own_hackathon_for_any_kind_of_project._" data-name="A website for university students to host their own hackathon for  any kind of project.
" transform="translate(56 308)" font-size="25" font-family="Raleway-Regular, Raleway"><tspan x="0" y="24">A website for university students </tspan><tspan x="0" y="54" xml:space="preserve">to host their own hackathon for  </tspan><tspan x="0" y="84">any kind of project.</tspan><tspan x="0" y="114"></tspan></text>
          <g id="Group_3" data-name="Group 3" transform="translate(329 140)">
            <rect id="Rectangle_4" data-name="Rectangle 4" width="108" height="112" rx="14" fill="#2b2b2b"/>
            <text id="Sep._21-22" data-name="Sep. 
21-22" transform="translate(54 49)" fill="#ffe600" font-size="32" font-family="Raleway-Regular, Raleway"><tspan x="-36.08" y="0">Sep. </tspan><tspan x="-38.208" y="37">21-22</tspan></text>
          </g>
          <text id="Hosted_By:_Aliah_Shaira_De..." data-name="Hosted By: Aliah Shaira De..." transform="translate(171 149)" fill="#2b2b2b" font-size="18" font-family="Raleway-Regular, Raleway"><tspan x="-114.561" y="0">Hosted By: Aliah Shaira De...</tspan></text>
          <text id="Northwest_4.416" data-name="Northwest 4.416" transform="translate(184 188)" fill="#2b2b2b" font-size="33" font-family="Raleway-Bold, Raleway" font-weight="700"><tspan x="-127.562" y="0">Northwest 4.416</tspan></text>
          <g id="Web_Skill" data-name="Web Skill" transform="translate(383 52)">
            <path id="Icon_material-desktop-windows" data-name="Icon material-desktop-windows" d="M62.739,3H7.624A6.133,6.133,0,0,0,1.5,9.106V45.74a6.133,6.133,0,0,0,6.124,6.106H29.057v6.106H22.934v6.106h24.5V57.951H41.305V51.845H62.739a6.133,6.133,0,0,0,6.124-6.106V9.106A6.133,6.133,0,0,0,62.739,3Zm0,42.74Z" transform="translate(-1.5 -3)" fill="none" stroke="#ffe600" stroke-width="11"/>
          </g>
        </g>
        <rect id="Rectangle_5" data-name="Rectangle 5" width="244" height="47" rx="9" transform="translate(56 204)" fill="#fff"/>
        <text id="Sign_Up" data-name="Sign Up" transform="translate(178 237)" fill="#2b2b2b" font-size="26" font-family="Raleway-Light, Raleway" font-weight="300"><tspan x="-47.125" y="0">Sign Up</tspan></text>
      </g>
      <g id="Web_Skill-2" data-name="Web Skill" transform="translate(383 52)">
        <path id="Icon_material-desktop-windows-2" data-name="Icon material-desktop-windows" d="M62.739,3H7.624A6.133,6.133,0,0,0,1.5,9.106V45.74a6.133,6.133,0,0,0,6.124,6.106H29.057v6.106H22.934v6.106h24.5V57.951H41.305V51.845H62.739a6.133,6.133,0,0,0,6.124-6.106V9.106A6.133,6.133,0,0,0,62.739,3Zm0,42.74Z" transform="translate(-1.5 -3)" fill="#2b2b2b"/>
      </g>
    </g>
    <g id="Foodie_Component" data-name="Foodie Component" transform="translate(543.476 4437.211) rotate(-34)" opacity="0.17" style="mix-blend-mode: luminosity;isolation: isolate">
      <g id="Hack-2" data-name="Hack">
        <g id="Group_4-2" data-name="Group 4">
          <g id="Group_1-2" data-name="Group 1">
            <path id="Rectangle_1-3" data-name="Rectangle 1" d="M29,0H478a29,29,0,0,1,29,29V284a0,0,0,0,1,0,0H0a0,0,0,0,1,0,0V29A29,29,0,0,1,29,0Z" fill="#ffe600"/>
          </g>
          <text id="Foodie_App" data-name="Foodie App" transform="translate(56 114)" fill="#2b2b2b" font-size="68" font-family="Impact"><tspan x="0" y="0">Foodie App</tspan></text>
          <g id="Group_2-2" data-name="Group 2" transform="translate(0 284)" opacity="0.8">
            <path id="Rectangle_1-4" data-name="Rectangle 1" d="M0,0H507a0,0,0,0,1,0,0V394.56a29,29,0,0,1-29,29H29a29,29,0,0,1-29-29V0A0,0,0,0,1,0,0Z" fill="#ffe600"/>
          </g>
          <text id="Develop_an_app_that_allows_users_to_weigh_in_on_the_quality_of_on-campus_food_for_the_day._Sometimes_the_food_can_be_great_sometimes_it_can_be_not_great._Help_out_fellow_students_by_leaving_short_ratings_of_the_food_quality_per_day_then_display_these_qua" data-name="Develop an app that allows users to weigh in on the quality of on-campus food for the day. Sometimes the food can be great, sometimes it can be not great. Help out fellow students by leaving short ratings of the food quality per day, then display these qua" transform="translate(56 308)" font-size="25" font-family="Raleway-Regular, Raleway"><tspan x="0" y="24">Develop an app that allows </tspan><tspan x="0" y="54">users to weigh in on the quality </tspan><tspan x="0" y="84">of on-campus food for the day. </tspan><tspan x="0" y="114">Sometimes the food can be </tspan><tspan x="0" y="144">great, sometimes it can be not </tspan><tspan x="0" y="174">great. Help out fellow students </tspan><tspan x="0" y="204">by leaving short ratings of the </tspan><tspan x="0" y="234">food quality per day, then </tspan><tspan x="0" y="264">display these quality ratings on </tspan><tspan x="0" y="294">the app for all to see when they </tspan><tspan x="0" y="324">are planning which restaurant to </tspan><tspan x="0" y="354">go to.</tspan></text>
          <g id="Group_3-2" data-name="Group 3" transform="translate(329 140)">
            <rect id="Rectangle_4-2" data-name="Rectangle 4" width="108" height="112" rx="14" fill="#2b2b2b"/>
            <text id="Dec._1-2" data-name="Dec.
1-2" transform="translate(54 49)" fill="#ffe600" font-size="32" font-family="Raleway-Regular, Raleway"><tspan x="-32.64" y="0">Dec.</tspan><tspan x="-21.536" y="37">1-2</tspan></text>
          </g>
          <text id="Hosted_By:_Samuel_Anozie." data-name="Hosted By: Samuel Anozie." transform="translate(60 149)" fill="#2b2b2b" font-size="18" font-family="Raleway-Regular, Raleway"><tspan x="0" y="0">Hosted By: Samuel Anozie.</tspan></text>
          <text id="CB3_2.02" data-name="CB3 2.02" transform="translate(124.924 187.958)" fill="#2b2b2b" font-size="33" font-family="Raleway-Bold, Raleway" font-weight="700"><tspan x="-68.161" y="0">CB3 2.02</tspan></text>
          <g id="Web_Skill-3" data-name="Web Skill" transform="translate(383 52)">
            <path id="Icon_material-desktop-windows-3" data-name="Icon material-desktop-windows" d="M62.739,3H7.624A6.133,6.133,0,0,0,1.5,9.106V45.74a6.133,6.133,0,0,0,6.124,6.106H29.057v6.106H22.934v6.106h24.5V57.951H41.305V51.845H62.739a6.133,6.133,0,0,0,6.124-6.106V9.106A6.133,6.133,0,0,0,62.739,3Zm0,42.74Z" transform="translate(-1.5 -3)" fill="none" stroke="#ffe600" stroke-width="11"/>
          </g>
        </g>
        <rect id="Rectangle_5-2" data-name="Rectangle 5" width="244" height="47" rx="9" transform="translate(56 204)" fill="#fff"/>
        <text id="Sign_Up-2" data-name="Sign Up" transform="translate(178 237)" fill="#2b2b2b" font-size="26" font-family="Raleway-Light, Raleway" font-weight="300"><tspan x="-47.125" y="0">Sign Up</tspan></text>
      </g>
      <g id="App_Dev_Skill" data-name="App Dev Skill" transform="translate(379.175 33.798)">
        <g id="Icon_feather-smartphone" data-name="Icon feather-smartphone">
          <path id="Path_1" data-name="Path 1" d="M15.955,3H58.229a8.441,8.441,0,0,1,8.455,8.426v67.41a8.441,8.441,0,0,1-8.455,8.426H15.955A8.441,8.441,0,0,1,7.5,78.837V11.426A8.441,8.441,0,0,1,15.955,3Z" transform="translate(-7.5 -3)" stroke="#6ac4cf" stroke-linecap="round" stroke-linejoin="round" stroke-width="10"/>
          <path id="Path_2" data-name="Path 2" d="M18,27h0" transform="translate(11.592 40.41)" stroke="#6ac4cf" stroke-linecap="round" stroke-linejoin="round" stroke-width="10"/>
        </g>
      </g>
    </g>
    <g id="QRCode_Component" data-name="QRCode Component" transform="translate(83.649 4746.211) rotate(-34)" opacity="0.17" style="mix-blend-mode: luminosity;isolation: isolate">
      <g id="Hack-3" data-name="Hack">
        <g id="Group_4-3" data-name="Group 4">
          <g id="Group_1-3" data-name="Group 1">
            <path id="Rectangle_1-5" data-name="Rectangle 1" d="M29,0H478a29,29,0,0,1,29,29V284a0,0,0,0,1,0,0H0a0,0,0,0,1,0,0V29A29,29,0,0,1,29,0Z" fill="#ffe600"/>
          </g>
          <text id="QRcode_Receipts" data-name="QRcode Receipts" transform="translate(56 114)" fill="#2b2b2b" font-size="45" font-family="Impact"><tspan x="0" y="0">QRcode Receipts</tspan></text>
          <g id="Group_2-3" data-name="Group 2" transform="translate(0 284)" opacity="0.8">
            <path id="Rectangle_1-6" data-name="Rectangle 1" d="M0,0H507a0,0,0,0,1,0,0V201.037a29,29,0,0,1-29,29H29a29,29,0,0,1-29-29V0A0,0,0,0,1,0,0Z" fill="#ffe600"/>
          </g>
          <text id="Instead_of_wasting_paper_on_receipts_and_sending_them_to_an_email_where_they_might_get_lost_make_an_app_that_will_scan_receipts_via_QR_Code_and_store_them._" data-name="Instead of wasting paper on receipts and sending them to an email where they might get lost, make an app that will scan receipts via QR Code and store them.
" transform="translate(56 308)" font-size="25" font-family="Raleway-Regular, Raleway"><tspan x="0" y="24">Instead of wasting paper on </tspan><tspan x="0" y="54">receipts and sending them to an </tspan><tspan x="0" y="84">email where they might get lost, </tspan><tspan x="0" y="114">make an app that will scan </tspan><tspan x="0" y="144">receipts via QR Code and store </tspan><tspan x="0" y="174">them.</tspan></text>
          <g id="Group_3-3" data-name="Group 3" transform="translate(329 140)">
            <rect id="Rectangle_4-3" data-name="Rectangle 4" width="108" height="112" rx="14" fill="#2b2b2b"/>
            <text id="May._1-22" data-name="May. 
1-22" transform="translate(54 49)" fill="#ffe600" font-size="32" font-family="Raleway-Regular, Raleway"><tspan x="-37.472" y="0">May. </tspan><tspan x="-29.872" y="37">1-22</tspan></text>
          </g>
          <text id="Hosted_By:_Aliah_Shaira_De...-2" data-name="Hosted By: Aliah Shaira De..." transform="translate(171 149)" fill="#2b2b2b" font-size="18" font-family="Raleway-Regular, Raleway"><tspan x="-114.561" y="0">Hosted By: Aliah Shaira De...</tspan></text>
          <text id="ECSW_2.202" data-name="ECSW 2.202" transform="translate(144.031 193.608)" fill="#2b2b2b" font-size="33" font-family="Raleway-Bold, Raleway" font-weight="700"><tspan x="-93.373" y="0">ECSW 2.202</tspan></text>
          <g id="Web_Skill-4" data-name="Web Skill" transform="translate(383 52)">
            <path id="Icon_material-desktop-windows-4" data-name="Icon material-desktop-windows" d="M62.739,3H7.624A6.133,6.133,0,0,0,1.5,9.106V45.74a6.133,6.133,0,0,0,6.124,6.106H29.057v6.106H22.934v6.106h24.5V57.951H41.305V51.845H62.739a6.133,6.133,0,0,0,6.124-6.106V9.106A6.133,6.133,0,0,0,62.739,3Zm0,42.74Z" transform="translate(-1.5 -3)" fill="none" stroke="#ffe600" stroke-width="11"/>
          </g>
        </g>
        <rect id="Rectangle_5-3" data-name="Rectangle 5" width="244" height="47" rx="9" transform="translate(56 204)" fill="#fff"/>
        <text id="Sign_Up-3" data-name="Sign Up" transform="translate(178 237)" fill="#2b2b2b" font-size="26" font-family="Raleway-Light, Raleway" font-weight="300"><tspan x="-47.125" y="0">Sign Up</tspan></text>
      </g>
      <g id="computing-cloud" transform="translate(389.672 77.071)">
        <path id="Subtraction_18" data-name="Subtraction 18" d="M53.121,36.119H12.748A12.689,12.689,0,0,1,5.62,33.942,12.785,12.785,0,0,1,1,28.333,12.731,12.731,0,0,1,2.177,16.244a12.784,12.784,0,0,1,5.609-4.619,12.668,12.668,0,0,1,4.962-1h.013a12.618,12.618,0,0,1,1.548.1A18.055,18.055,0,0,1,30.8,0c.548,0,1.1.025,1.651.075A18.052,18.052,0,0,1,48.367,13.832c.151-.01.327-.021.5-.021a6.371,6.371,0,0,1,6.321,5.566,8.5,8.5,0,0,1-2.066,16.742ZM41.43,22.575a4.249,4.249,0,1,0,4.249,4.249A4.254,4.254,0,0,0,41.43,22.575Zm-21.246,0a4.249,4.249,0,1,0,4.249,4.249A4.254,4.254,0,0,0,20.184,22.575ZM26.545,19.4a1.058,1.058,0,0,0-.738.3l-2.125,2.125a1.062,1.062,0,1,0,1.5,1.5L27.309,21.2a1.068,1.068,0,0,0-.013-1.489A1.055,1.055,0,0,0,26.545,19.4Zm8.524,0a1.056,1.056,0,0,0-.751.311A1.068,1.068,0,0,0,34.3,21.2l2.125,2.125a1.062,1.062,0,0,0,1.5-1.5L35.807,19.7A1.057,1.057,0,0,0,35.069,19.4Zm-4.262-7.449A4.249,4.249,0,1,0,35.056,16.2,4.254,4.254,0,0,0,30.807,11.952Zm10.623,17a2.124,2.124,0,1,1,1.5-.622A2.111,2.111,0,0,1,41.43,28.949Zm-21.246,0a2.125,2.125,0,1,1,1.5-.622A2.111,2.111,0,0,1,20.184,28.949ZM30.807,18.326a2.125,2.125,0,1,1,1.5-.622A2.111,2.111,0,0,1,30.807,18.326Z"/>
      </g>
    </g>
    <g id="Gradient_Component" data-name="Gradient Component" transform="translate(538.11 3838.017) rotate(-34)" opacity="0.17" style="mix-blend-mode: luminosity;isolation: isolate">
      <g id="Hack-4" data-name="Hack">
        <g id="Group_4-4" data-name="Group 4">
          <g id="Group_1-4" data-name="Group 1">
            <path id="Rectangle_1-7" data-name="Rectangle 1" d="M29,0H478a29,29,0,0,1,29,29V284a0,0,0,0,1,0,0H0a0,0,0,0,1,0,0V29A29,29,0,0,1,29,0Z" fill="#ffe600"/>
          </g>
          <text id="GRADIENT_GEN" data-name="GRADIENT GEN" transform="translate(56 114)" fill="#2b2b2b" font-size="56" font-family="Impact"><tspan x="0" y="0">GRADIENT GEN</tspan></text>
          <g id="Group_2-4" data-name="Group 2" transform="translate(0 284)" opacity="0.8">
            <path id="Rectangle_1-8" data-name="Rectangle 1" d="M0,0H507a0,0,0,0,1,0,0V145.037a29,29,0,0,1-29,29H29a29,29,0,0,1-29-29V0A0,0,0,0,1,0,0Z" fill="#ffe600"/>
          </g>
          <text id="Develop_a_site_that_can_create_unconventional_gradients_with_different_shapes_and_save_as_a_CSS3_background_image._" data-name="Develop a site that can create unconventional gradients with different shapes, and save as a CSS3 background image.
" transform="translate(56 308)" font-size="25" font-family="Raleway-Regular, Raleway"><tspan x="0" y="24">Develop a site that can create </tspan><tspan x="0" y="54">unconventional gradients with </tspan><tspan x="0" y="84">different shapes, and save as a </tspan><tspan x="0" y="114">CSS3 background image.</tspan></text>
          <g id="Group_3-4" data-name="Group 3" transform="translate(329 140)">
            <rect id="Rectangle_4-4" data-name="Rectangle 4" width="108" height="112" rx="14" fill="#2b2b2b"/>
            <text id="Sep._21-22-2" data-name="Sep. 
21-22" transform="translate(54 49)" fill="#ffe600" font-size="32" font-family="Raleway-Regular, Raleway"><tspan x="-36.08" y="0">Sep. </tspan><tspan x="-38.208" y="37">21-22</tspan></text>
          </g>
          <text id="Hosted_By:_Aliah_Shaira_De...-3" data-name="Hosted By: Aliah Shaira De..." transform="translate(171 149)" fill="#2b2b2b" font-size="18" font-family="Raleway-Regular, Raleway"><tspan x="-114.561" y="0">Hosted By: Aliah Shaira De...</tspan></text>
          <text id="Northwest_4.416-2" data-name="Northwest 4.416" transform="translate(184 188)" fill="#2b2b2b" font-size="33" font-family="Raleway-Bold, Raleway" font-weight="700"><tspan x="-127.562" y="0">Northwest 4.416</tspan></text>
          <g id="Web_Skill-5" data-name="Web Skill" transform="translate(383 52)">
            <path id="Icon_material-desktop-windows-5" data-name="Icon material-desktop-windows" d="M62.739,3H7.624A6.133,6.133,0,0,0,1.5,9.106V45.74a6.133,6.133,0,0,0,6.124,6.106H29.057v6.106H22.934v6.106h24.5V57.951H41.305V51.845H62.739a6.133,6.133,0,0,0,6.124-6.106V9.106A6.133,6.133,0,0,0,62.739,3Zm0,42.74Z" transform="translate(-1.5 -3)" fill="none" stroke="#ffe600" stroke-width="11"/>
          </g>
        </g>
        <rect id="Rectangle_5-4" data-name="Rectangle 5" width="244" height="47" rx="9" transform="translate(56 204)" fill="#fff"/>
        <text id="Sign_Up-4" data-name="Sign Up" transform="translate(178 237)" fill="#2b2b2b" font-size="26" font-family="Raleway-Light, Raleway" font-weight="300"><tspan x="-47.125" y="0">Sign Up</tspan></text>
      </g>
      <g id="Open_Source_SKill" data-name="Open Source SKill" transform="translate(393.336 66.274)">
        <g id="Group_8" data-name="Group 8">
          <path id="Path_3" data-name="Path 3" d="M28.667,8.144A28.582,28.582,0,0,0,18.39,63.428a1.767,1.767,0,0,0,1.419-.061,1.8,1.8,0,0,0,.928-1.077l5.375-17.132a1.784,1.784,0,0,0-.842-2.1,7.163,7.163,0,1,1,6.794,0,1.78,1.78,0,0,0-.842,2.1L36.6,62.294a1.8,1.8,0,0,0,.928,1.077,1.82,1.82,0,0,0,.781.179,1.783,1.783,0,0,0,.638-.118A28.584,28.584,0,0,0,28.667,8.144Z" transform="translate(0 -8.144)"/>
        </g>
      </g>
    </g>
    <g id="Component_8_7" data-name="Component 8 – 7" transform="translate(1020.596 4107.329) rotate(-34)" opacity="0.17" style="mix-blend-mode: luminosity;isolation: isolate">
      <g id="Hack-5" data-name="Hack">
        <g id="Group_4-5" data-name="Group 4">
          <g id="Group_1-5" data-name="Group 1">
            <path id="Rectangle_1-9" data-name="Rectangle 1" d="M29,0H478a29,29,0,0,1,29,29V284a0,0,0,0,1,0,0H0a0,0,0,0,1,0,0V29A29,29,0,0,1,29,0Z" fill="#ffe600"/>
          </g>
          <text id="YOUR_IDEA_HERE" data-name="YOUR IDEA HERE" transform="translate(56 114)" fill="#2b2b2b" font-size="50" font-family="Impact"><tspan x="0" y="0">YOUR IDEA HERE</tspan></text>
          <g id="Group_2-5" data-name="Group 2" transform="translate(0 284)" opacity="0.8">
            <path id="Rectangle_1-10" data-name="Rectangle 1" d="M0,0H507a0,0,0,0,1,0,0V145.037a29,29,0,0,1-29,29H29a29,29,0,0,1-29-29V0A0,0,0,0,1,0,0Z" fill="#ffe600"/>
          </g>
          <text id="Lorem_ipsum_dolor_sit_amet_consetetur_sadipscing_elitr_sed_diam_nonumy_eirmod_tempor_invidunt_ut_labore_et_dolore_" data-name="Lorem ipsum dolor sit amet, consetetur sadipscing elitr, sed diam nonumy eirmod tempor invidunt ut labore et dolore…" transform="translate(56 308)" font-size="25" font-family="Raleway-Regular, Raleway"><tspan x="0" y="24">Lorem ipsum dolor sit amet, </tspan><tspan x="0" y="54">consetetur sadipscing elitr, sed </tspan><tspan x="0" y="84">diam nonumy eirmod tempor </tspan><tspan x="0" y="114">invidunt ut labore et dolore…</tspan></text>
          <g id="Group_3-5" data-name="Group 3" transform="translate(329 140)">
            <rect id="Rectangle_4-5" data-name="Rectangle 4" width="108" height="112" rx="14" fill="#2b2b2b"/>
            <text id="Your_time_" data-name="Your
time
" transform="translate(54 49)" fill="#ffe600" font-size="32" font-family="Raleway-Regular, Raleway"><tspan x="-33.568" y="0">Your</tspan><tspan x="-32.944" y="37">time</tspan><tspan x="0" y="74"></tspan></text>
          </g>
          <text id="Hosted_By:_Aliah_Shaira_De...-4" data-name="Hosted By: Aliah Shaira De..." transform="translate(171 149)" fill="#2b2b2b" font-size="18" font-family="Raleway-Regular, Raleway"><tspan x="-114.561" y="0">Hosted By: Aliah Shaira De...</tspan></text>
          <text id="Any_location_on_campus" data-name="Any location on campus" transform="translate(184 188)" fill="#2b2b2b" font-size="22" font-family="Raleway-Bold, Raleway" font-weight="700"><tspan x="-125.851" y="0">Any location on campus</tspan></text>
          <g id="Web_Skill-6" data-name="Web Skill" transform="translate(383 52)">
            <path id="Icon_material-desktop-windows-6" data-name="Icon material-desktop-windows" d="M62.739,3H7.624A6.133,6.133,0,0,0,1.5,9.106V45.74a6.133,6.133,0,0,0,6.124,6.106H29.057v6.106H22.934v6.106h24.5V57.951H41.305V51.845H62.739a6.133,6.133,0,0,0,6.124-6.106V9.106A6.133,6.133,0,0,0,62.739,3Zm0,42.74Z" transform="translate(-1.5 -3)" fill="none" stroke="#ffe600" stroke-width="11"/>
          </g>
        </g>
        <rect id="Rectangle_5-5" data-name="Rectangle 5" width="244" height="47" rx="9" transform="translate(56 204)" fill="#fff"/>
        <text id="Sign_Up-5" data-name="Sign Up" transform="translate(178 237)" fill="#2b2b2b" font-size="26" font-family="Raleway-Light, Raleway" font-weight="300"><tspan x="-47.125" y="0">Sign Up</tspan></text>
      </g>
      <g id="Open_Source_SKill-2" data-name="Open Source SKill" transform="translate(393.336 66.274)">
        <g id="Group_8-2" data-name="Group 8">
          <path id="Path_3-2" data-name="Path 3" d="M28.667,8.144A28.582,28.582,0,0,0,18.39,63.428a1.767,1.767,0,0,0,1.419-.061,1.8,1.8,0,0,0,.928-1.077l5.375-17.132a1.784,1.784,0,0,0-.842-2.1,7.163,7.163,0,1,1,6.794,0,1.78,1.78,0,0,0-.842,2.1L36.6,62.294a1.8,1.8,0,0,0,.928,1.077,1.82,1.82,0,0,0,.781.179,1.783,1.783,0,0,0,.638-.118A28.584,28.584,0,0,0,28.667,8.144Z" transform="translate(0 -8.144)"/>
        </g>
      </g>
    </g>
    <g id="Component_8_8" data-name="Component 8 – 8" transform="translate(1308.729 4540.896) rotate(-34)" opacity="0.17" style="mix-blend-mode: luminosity;isolation: isolate">
      <g id="Hack-6" data-name="Hack">
        <g id="Group_4-6" data-name="Group 4">
          <g id="Group_1-6" data-name="Group 1">
            <path id="Rectangle_1-11" data-name="Rectangle 1" d="M29,0H478a29,29,0,0,1,29,29V284a0,0,0,0,1,0,0H0a0,0,0,0,1,0,0V29A29,29,0,0,1,29,0Z" fill="#ffe600"/>
          </g>
          <text id="YOUR_IDEA_HERE-2" data-name="YOUR IDEA HERE" transform="translate(56 114)" fill="#2b2b2b" font-size="50" font-family="Impact"><tspan x="0" y="0">YOUR IDEA HERE</tspan></text>
          <g id="Group_2-6" data-name="Group 2" transform="translate(0 284)" opacity="0.8">
            <path id="Rectangle_1-12" data-name="Rectangle 1" d="M0,0H507a0,0,0,0,1,0,0V145.037a29,29,0,0,1-29,29H29a29,29,0,0,1-29-29V0A0,0,0,0,1,0,0Z" fill="#ffe600"/>
          </g>
          <text id="Lorem_ipsum_dolor_sit_amet_consetetur_sadipscing_elitr_sed_diam_nonumy_eirmod_tempor_invidunt_ut_labore_et_dolore_2" data-name="Lorem ipsum dolor sit amet, consetetur sadipscing elitr, sed diam nonumy eirmod tempor invidunt ut labore et dolore…" transform="translate(56 308)" font-size="25" font-family="Raleway-Regular, Raleway"><tspan x="0" y="24">Lorem ipsum dolor sit amet, </tspan><tspan x="0" y="54">consetetur sadipscing elitr, sed </tspan><tspan x="0" y="84">diam nonumy eirmod tempor </tspan><tspan x="0" y="114">invidunt ut labore et dolore…</tspan></text>
          <g id="Group_3-6" data-name="Group 3" transform="translate(329 140)">
            <rect id="Rectangle_4-6" data-name="Rectangle 4" width="108" height="112" rx="14" fill="#2b2b2b"/>
            <text id="Your_time_2" data-name="Your
time
" transform="translate(54 49)" fill="#ffe600" font-size="32" font-family="Raleway-Regular, Raleway"><tspan x="-33.568" y="0">Your</tspan><tspan x="-32.944" y="37">time</tspan><tspan x="0" y="74"></tspan></text>
          </g>
          <text id="Hosted_By:_Aliah_Shaira_De...-5" data-name="Hosted By: Aliah Shaira De..." transform="translate(171 149)" fill="#2b2b2b" font-size="18" font-family="Raleway-Regular, Raleway"><tspan x="-114.561" y="0">Hosted By: Aliah Shaira De...</tspan></text>
          <text id="Any_location_on_campus-2" data-name="Any location on campus" transform="translate(184 188)" fill="#2b2b2b" font-size="22" font-family="Raleway-Bold, Raleway" font-weight="700"><tspan x="-125.851" y="0">Any location on campus</tspan></text>
          <g id="Web_Skill-7" data-name="Web Skill" transform="translate(383 52)">
            <path id="Icon_material-desktop-windows-7" data-name="Icon material-desktop-windows" d="M62.739,3H7.624A6.133,6.133,0,0,0,1.5,9.106V45.74a6.133,6.133,0,0,0,6.124,6.106H29.057v6.106H22.934v6.106h24.5V57.951H41.305V51.845H62.739a6.133,6.133,0,0,0,6.124-6.106V9.106A6.133,6.133,0,0,0,62.739,3Zm0,42.74Z" transform="translate(-1.5 -3)" fill="none" stroke="#ffe600" stroke-width="11"/>
          </g>
        </g>
        <rect id="Rectangle_5-6" data-name="Rectangle 5" width="244" height="47" rx="9" transform="translate(56 204)" fill="#fff"/>
        <text id="Sign_Up-6" data-name="Sign Up" transform="translate(178 237)" fill="#2b2b2b" font-size="26" font-family="Raleway-Light, Raleway" font-weight="300"><tspan x="-47.125" y="0">Sign Up</tspan></text>
      </g>
      <g id="Open_Source_SKill-3" data-name="Open Source SKill" transform="translate(393.336 66.274)">
        <g id="Group_8-3" data-name="Group 8">
          <path id="Path_3-3" data-name="Path 3" d="M28.667,8.144A28.582,28.582,0,0,0,18.39,63.428a1.767,1.767,0,0,0,1.419-.061,1.8,1.8,0,0,0,.928-1.077l5.375-17.132a1.784,1.784,0,0,0-.842-2.1,7.163,7.163,0,1,1,6.794,0,1.78,1.78,0,0,0-.842,2.1L36.6,62.294a1.8,1.8,0,0,0,.928,1.077,1.82,1.82,0,0,0,.781.179,1.783,1.783,0,0,0,.638-.118A28.584,28.584,0,0,0,28.667,8.144Z" transform="translate(0 -8.144)"/>
        </g>
      </g>
    </g>
  </g>
</svg>
